<svg width="160" height="160" viewBox="0 0 160 160" fill="none" xmlns="http://www.w3.org/2000/svg">
<g clip-path="url(#clip0_14_1366)">
<path d="M15.0751 144.168H149.26C151.463 141.535 164.275 124.866 158.533 99.5346C152.262 71.8692 148.573 71.5005 120.908 54.1634C93.2425 36.8266 83.6519 22.0715 51.9291 33.8755C20.2063 45.6795 19.0995 67.8118 20.5753 85.5176C22.0506 103.223 1.76276 116.872 0.656412 127.938C-0.232282 136.82 7.43593 142.609 15.0751 144.168Z" fill="#92E3A9"/>
<path opacity="0.7" d="M15.0751 144.168H149.26C151.463 141.535 164.275 124.866 158.533 99.5346C152.262 71.8692 148.573 71.5005 120.908 54.1634C93.2425 36.8266 83.6519 22.0715 51.9291 33.8755C20.2063 45.6795 19.0995 67.8118 20.5753 85.5176C22.0506 103.223 1.76276 116.872 0.656412 127.938C-0.232282 136.82 7.43593 142.609 15.0751 144.168Z" fill="white"/>
<g opacity="0.5">
<path d="M24.7518 49.4485C34.5407 49.4485 42.4761 41.5131 42.4761 31.7242C42.4761 21.9354 34.5407 14 24.7518 14C14.963 14 7.02759 21.9354 7.02759 31.7242C7.02759 41.5131 14.963 49.4485 24.7518 49.4485Z" stroke="black" stroke-width="0.5" stroke-miterlimit="10"/>
<path d="M24.7519 47.6761C33.5618 47.6761 40.7037 40.5342 40.7037 31.7243C40.7037 22.9143 33.5618 15.7725 24.7519 15.7725C15.9419 15.7725 8.80005 22.9143 8.80005 31.7243C8.80005 40.5342 15.9419 47.6761 24.7519 47.6761Z" stroke="black" stroke-width="0.5" stroke-miterlimit="10"/>
<path d="M18.5452 35.7055L24.7519 31.7243L18.0847 20.814" stroke="black" stroke-width="0.5" stroke-miterlimit="10"/>
</g>
<g opacity="0.5">
<path d="M48.0294 76.3623H6.2002V143.951H48.0294V76.3623Z" stroke="black" stroke-width="0.5" stroke-miterlimit="10"/>
<path d="M46.3755 80.1433H7.85474V103.539H46.3755V80.1433Z" stroke="black" stroke-width="0.5" stroke-miterlimit="10"/>
<path d="M29.3603 89.3599H23.4521V94.7952H29.3603V89.3599Z" stroke="black" stroke-width="0.5" stroke-miterlimit="10"/>
<path d="M46.3755 107.084H7.85474V130.48H46.3755V107.084Z" stroke="black" stroke-width="0.5" stroke-miterlimit="10"/>
<path d="M29.3603 116.301H23.4521V121.736H29.3603V116.301Z" stroke="black" stroke-width="0.5" stroke-miterlimit="10"/>
<path d="M46.3755 134.261H7.85474V143.715H46.3755V134.261Z" stroke="black" stroke-width="0.5" stroke-miterlimit="10"/>
</g>
<g opacity="0.5">
<path d="M19.1282 68.6895H8.29907L9.65285 76.3435H17.7745L19.1282 68.6895Z" stroke="black" stroke-width="0.5" stroke-miterlimit="10"/>
<path d="M15.091 57.0819C15.091 58.6257 13.5663 60.2836 13.5663 60.2836C13.5663 60.2836 11.2285 58.6257 11.2285 57.0819C11.2285 55.5382 13.1597 53.4736 13.1597 53.4736C13.1597 53.4736 15.091 55.5382 15.091 57.0819Z" stroke="black" stroke-width="0.5" stroke-miterlimit="10"/>
<path d="M9.58867 61.3867C10.5784 62.5714 10.4706 64.8213 10.4706 64.8213C10.4706 64.8213 7.61348 65.0471 6.62412 63.8624C5.63475 62.6777 5.79356 59.855 5.79356 59.855C5.79356 59.855 8.59931 60.202 9.58867 61.3867Z" stroke="black" stroke-width="0.5" stroke-miterlimit="10"/>
<path d="M16.9822 58.1504C18.057 57.0423 20.5795 57.3868 20.5795 57.3868C20.5795 57.3868 20.8294 59.7307 19.755 60.8392C18.6802 61.9473 15.8567 62.0852 15.8567 62.0852C15.8567 62.0852 15.9077 59.2585 16.9822 58.1504Z" stroke="black" stroke-width="0.5" stroke-miterlimit="10"/>
<path d="M18.6579 66.4536C17.2148 65.9055 16.2056 63.892 16.2056 63.892C16.2056 63.892 18.5852 62.2947 20.0287 62.8428C21.4718 63.3908 22.7167 65.9289 22.7167 65.9289C22.7167 65.9289 20.101 67.0016 18.6579 66.4536Z" stroke="black" stroke-width="0.5" stroke-miterlimit="10"/>
<path d="M13.4651 68.5671V56.5735" stroke="black" stroke-width="0.5" stroke-miterlimit="10"/>
<path d="M13.3633 64.3999L19.3601 59.2163" stroke="black" stroke-width="0.5" stroke-miterlimit="10"/>
<path d="M13.465 67.1442L7.36646 62.3672" stroke="black" stroke-width="0.5" stroke-miterlimit="10"/>
<path d="M14.8879 63.2817L19.5632 65.1112" stroke="black" stroke-width="0.5" stroke-miterlimit="10"/>
</g>
<path opacity="0.5" d="M157.092 38.4307H75.7976V92.7151H157.092V38.4307Z" stroke="black" stroke-width="0.5" stroke-miterlimit="10"/>
<path opacity="0.5" d="M156.001 39.1587H76.8879V91.9865H156.001V39.1587Z" stroke="black" stroke-width="0.5" stroke-miterlimit="10"/>
<path opacity="0.3" d="M86.4651 47.0715C86.4651 47.0715 87.3311 51.7471 87.3311 53.1325C87.3311 54.5178 87.3311 57.9811 87.3311 57.9811C87.3311 57.9811 90.7944 58.1541 93.5654 57.9811C96.3361 57.8081 99.6264 56.0761 99.6264 56.0761C99.6264 56.0761 98.4141 51.4004 98.4141 50.1885C98.4141 48.9765 97.7214 46.0325 97.7214 46.0325L86.4651 47.0715Z" fill="white" stroke="black" stroke-width="0.5" stroke-miterlimit="10"/>
<path opacity="0.3" d="M86.8115 76.1646C86.8115 76.1646 86.2918 80.1475 86.2918 81.8792C86.2918 83.6109 85.4258 86.3815 85.4258 86.3815C85.4258 86.3815 89.5818 87.9402 90.6208 87.9402C91.6598 87.9402 96.1624 87.5939 96.1624 87.5939L96.8551 77.3769C96.8551 77.3769 88.1968 76.5109 86.8115 76.1646Z" fill="white" stroke="black" stroke-width="0.5" stroke-miterlimit="10"/>
<path opacity="0.3" d="M106.033 54.6913L108.111 64.2156C108.111 64.2156 110.709 64.3886 113.48 64.3886C116.25 64.3886 120.926 61.7909 120.926 61.7909C120.926 61.7909 118.675 57.2886 118.675 56.0763C118.675 54.864 117.982 51.4006 117.982 51.4006C117.982 51.4006 110.882 53.652 109.843 53.825C108.804 53.9979 106.033 54.6913 106.033 54.6913Z" fill="white" stroke="black" stroke-width="0.5" stroke-miterlimit="10"/>
<path opacity="0.3" d="M121.619 52.0935C121.619 52.0935 121.099 58.3278 121.099 59.0205C121.099 59.7132 120.927 62.4838 120.927 62.4838C120.927 62.4838 124.39 63.0031 126.295 63.0031C128.2 63.0031 131.49 62.8301 131.49 62.8301C131.49 62.8301 131.316 56.7692 131.663 56.2495C132.009 55.7302 132.182 52.9592 132.182 52.9592C132.182 52.9592 122.312 52.2668 121.619 52.0935Z" fill="white" stroke="black" stroke-width="0.5" stroke-miterlimit="10"/>
<path opacity="0.3" d="M125.429 65.9471C125.429 65.9471 125.429 69.4104 125.429 70.103C125.429 70.7957 125.082 75.8177 125.082 75.8177C125.082 75.8177 129.585 75.991 131.317 75.8177C133.048 75.6447 136.512 74.6054 136.512 74.6054L135.992 69.064L135.646 65.2544C135.646 65.2544 127.334 66.4667 125.429 65.9471Z" fill="white" stroke="black" stroke-width="0.5" stroke-miterlimit="10"/>
<path opacity="0.3" d="M151.577 42.5694L147.594 42.7427H145.516C145.516 42.7427 145.516 44.8207 145.516 45.6867C145.516 46.5527 145.344 49.3234 145.344 49.8427C145.344 50.362 148.114 50.7087 149.327 50.7087C150.539 50.7087 153.656 50.7087 153.656 50.7087L153.829 42.2234L151.577 42.5694Z" fill="white" stroke="black" stroke-width="0.5" stroke-miterlimit="10"/>
<g opacity="0.5">
<path d="M141.534 61.2715H148.98" stroke="black" stroke-width="0.5" stroke-miterlimit="10"/>
<path d="M141.534 63.0037H148.98" stroke="black" stroke-width="0.5" stroke-miterlimit="10"/>
<path d="M141.534 64.7351H148.98" stroke="black" stroke-width="0.5" stroke-miterlimit="10"/>
<path d="M141.534 66.4668H148.98" stroke="black" stroke-width="0.5" stroke-miterlimit="10"/>
</g>
<g opacity="0.5">
<path d="M103.09 41.5303H127.68" stroke="black" stroke-width="0.5" stroke-miterlimit="10"/>
<path d="M103.09 43.262H127.68" stroke="black" stroke-width="0.5" stroke-miterlimit="10"/>
</g>
<g opacity="0.5">
<path d="M128.199 79.2815H135.646" stroke="black" stroke-width="0.5" stroke-miterlimit="10"/>
<path d="M128.199 81.0132H135.646" stroke="black" stroke-width="0.5" stroke-miterlimit="10"/>
<path d="M128.199 82.7449H135.646" stroke="black" stroke-width="0.5" stroke-miterlimit="10"/>
<path d="M128.199 84.4768H135.646" stroke="black" stroke-width="0.5" stroke-miterlimit="10"/>
</g>
<g opacity="0.5">
<path d="M81.9629 67.8523H89.4092" stroke="black" stroke-width="0.5" stroke-miterlimit="10"/>
<path d="M81.9629 69.584H89.4092" stroke="black" stroke-width="0.5" stroke-miterlimit="10"/>
<path d="M81.9629 71.3157H89.4092" stroke="black" stroke-width="0.5" stroke-miterlimit="10"/>
<path d="M81.9629 73.0476H89.4092" stroke="black" stroke-width="0.5" stroke-miterlimit="10"/>
</g>
<g opacity="0.5">
<path d="M134.434 46.0325H141.88" stroke="black" stroke-width="0.5" stroke-miterlimit="10"/>
<path d="M134.434 47.7642H141.88" stroke="black" stroke-width="0.5" stroke-miterlimit="10"/>
<path d="M134.434 49.4958H141.88" stroke="black" stroke-width="0.5" stroke-miterlimit="10"/>
<path d="M134.434 51.2278H141.88" stroke="black" stroke-width="0.5" stroke-miterlimit="10"/>
</g>
<path opacity="0.5" d="M107.168 62.5692L102.9 63.7887L103.998 64.7408C102.001 66.0549 97.7715 68.3069 95.0034 66.0202C91.2923 62.9546 92.2912 60.3037 92.3355 60.1924L92.0069 60.0591L91.679 59.9241C91.6255 60.0542 90.4149 63.1492 94.5517 66.5664C95.5666 67.4048 96.7254 67.7242 97.9016 67.7242C100.485 67.7242 103.152 66.1843 104.56 65.2272L105.948 66.4306L107.168 62.5692Z" fill="black"/>
<path opacity="0.5" d="M150.277 55.2804L149.043 51.1687L146.782 54.458L148.037 54.7533L146.733 59.4452L147.417 59.6349L148.727 54.916L150.277 55.2804Z" fill="black"/>
<path opacity="0.3" d="M93.5651 47.5912C93.5651 47.0173 93.1 46.5522 92.5261 46.5522C91.9521 46.5522 91.4871 47.0173 91.4871 47.5912C91.4871 48.1652 91.9521 48.6302 92.5261 48.6302C93.1 48.6302 93.5651 48.1652 93.5651 47.5912Z" fill="white" stroke="black" stroke-width="0.5" stroke-miterlimit="10"/>
<path opacity="0.3" d="M112.614 54.1716C112.614 53.5977 112.149 53.1326 111.575 53.1326C111.001 53.1326 110.536 53.5977 110.536 54.1716C110.536 54.7455 111.001 55.2106 111.575 55.2106C112.149 55.2106 112.614 54.7455 112.614 54.1716Z" fill="#92E3A9" stroke="black" stroke-width="0.5" stroke-miterlimit="10"/>
<path opacity="0.3" d="M127.334 53.6522C127.907 53.6522 128.373 53.187 128.373 52.6132C128.373 52.0394 127.907 51.5742 127.334 51.5742C126.76 51.5742 126.295 52.0394 126.295 52.6132C126.295 53.187 126.76 53.6522 127.334 53.6522Z" fill="white" stroke="black" stroke-width="0.5" stroke-miterlimit="10"/>
<path opacity="0.3" d="M130.797 68.0253C131.371 68.0253 131.836 67.5601 131.836 66.9863C131.836 66.4124 131.371 65.9473 130.797 65.9473C130.223 65.9473 129.758 66.4124 129.758 66.9863C129.758 67.5601 130.223 68.0253 130.797 68.0253Z" fill="white" stroke="black" stroke-width="0.5" stroke-miterlimit="10"/>
<path opacity="0.3" d="M93.5651 78.069C93.5651 77.4951 93.1 77.03 92.5261 77.03C91.9521 77.03 91.4871 77.4951 91.4871 78.069C91.4871 78.6429 91.9521 79.108 92.5261 79.108C93.1 79.108 93.5651 78.6429 93.5651 78.069Z" fill="#92E3A9" stroke="black" stroke-width="0.5" stroke-miterlimit="10"/>
<path opacity="0.3" d="M150.712 42.5693C150.712 41.9954 150.246 41.5303 149.673 41.5303C149.099 41.5303 148.634 41.9954 148.634 42.5693C148.634 43.1432 149.099 43.6083 149.673 43.6083C150.246 43.6083 150.712 43.1432 150.712 42.5693Z" fill="#92E3A9" stroke="black" stroke-width="0.5" stroke-miterlimit="10"/>
<path d="M117.066 137.511V136.415L117.909 136.238L117.066 136.027V135.725L117.83 135.368L117.066 135.139V130.642H116.138V129.716L116.566 129.68L116.138 129.477V129.128L117.198 129.285L116.487 128.416L116.138 127.892V127.697L117.277 127.625C117.277 127.625 116.632 127.231 116.138 126.877V123.123H117.277C117.277 123.123 116.646 122.825 116.138 122.572V121.176H90.1509V123.451L88.9942 123.914L90.1509 124.428V124.693C89.7918 124.9 89.1835 125.273 89.0732 125.494C88.9151 125.809 88.5993 126.52 88.5993 126.52C88.5993 126.52 89.3894 126.362 89.6262 126.283C89.8226 126.218 90.0711 126.314 90.1509 126.35V126.391L89.2313 127.31L90.1509 127.713V130.828H92.1927V131.047C92.0484 131.083 91.8949 131.127 91.7592 131.182C91.3643 131.34 90.416 131.972 90.416 131.972L91.6011 131.893L91.0481 132.762L92.1927 132.834V137.14H89.594V138.708C89.4383 138.74 89.2561 138.802 89.0732 138.924C88.9183 139.027 88.7386 139.198 88.566 139.38C88.2104 139.758 87.8882 140.188 87.8882 140.188L89.2313 139.793L88.5202 140.741L89.0732 140.899L88.5993 141.61L89.5943 141.681V143.265H115.582V142.205C116.158 142.228 116.487 142.242 116.487 142.242L116.171 142.084L116.961 141.847L116.171 141.056L115.934 140.109C115.934 140.109 115.789 140.086 115.581 140.049V137.51H117.066V137.511Z" fill="#B5B5B5"/>
<path d="M91.2852 123.597H107.086" stroke="#263238" stroke-width="0.5" stroke-miterlimit="10"/>
<path d="M91.4434 124.941H100.45" stroke="#263238" stroke-width="0.5" stroke-miterlimit="10"/>
<path d="M114.038 126.836H98.2378" stroke="#263238" stroke-width="0.5" stroke-miterlimit="10"/>
<path d="M92.9446 130.865H114.275" stroke="#263238" stroke-width="0.5" stroke-miterlimit="10"/>
<path d="M92.5493 128.1H108.034" stroke="#263238" stroke-width="0.5" stroke-miterlimit="10"/>
<path d="M114.67 132.446H103.294" stroke="#263238" stroke-width="0.5" stroke-miterlimit="10"/>
<path d="M114.196 134.579H93.3394" stroke="#263238" stroke-width="0.5" stroke-miterlimit="10"/>
<path d="M97.4475 136.396H109.772" stroke="#263238" stroke-width="0.5" stroke-miterlimit="10"/>
<path d="M114.828 137.502H94.2874" stroke="#263238" stroke-width="0.5" stroke-miterlimit="10"/>
<path d="M91.2061 140.425H106.059" stroke="#263238" stroke-width="0.5" stroke-miterlimit="10"/>
<path d="M104.637 138.924H93.7344" stroke="#263238" stroke-width="0.5" stroke-miterlimit="10"/>
<path d="M95.3933 141.294H111.194" stroke="#263238" stroke-width="0.5" stroke-miterlimit="10"/>
<path d="M113.564 138.766H109.298" stroke="#263238" stroke-width="0.5" stroke-miterlimit="10"/>
<path d="M124.156 115.403V114.307L124.999 114.13L124.156 113.919V113.617L124.92 113.26L124.156 113.031V108.534H123.228V107.607L123.656 107.572L123.228 107.369V107.02L124.288 107.177L123.577 106.307L123.228 105.784V105.589L124.367 105.517C124.367 105.517 123.722 105.123 123.228 104.769V101.014H124.367C124.367 101.014 123.736 100.715 123.228 100.462V99.0671H97.2405V101.342L96.0838 101.804L97.2405 102.318V102.584C96.8814 102.791 96.2731 103.164 96.1628 103.384C96.0047 103.7 95.6889 104.411 95.6889 104.411C95.6889 104.411 96.479 104.253 96.7158 104.174C96.9122 104.109 97.1607 104.205 97.2405 104.24V104.282L96.3209 105.201L97.2405 105.604V108.719H99.2823V108.938C99.138 108.974 98.9845 109.018 98.8488 109.072C98.4539 109.231 97.5056 109.863 97.5056 109.863L98.6907 109.784L98.1377 110.653L99.2823 110.724V115.031H96.6836V116.599C96.5279 116.63 96.3457 116.693 96.1628 116.815C96.0079 116.918 95.8282 117.088 95.6556 117.271C95.3 117.649 94.9778 118.079 94.9778 118.079L96.3209 117.684L95.6098 118.632L96.1628 118.79L95.6889 119.501L96.6839 119.572V121.156H122.671V120.096C123.248 120.119 123.577 120.133 123.577 120.133L123.261 119.975L124.051 119.738L123.261 118.947L123.024 117.999C123.024 117.999 122.878 117.976 122.671 117.94V115.401H124.156V115.403Z" fill="#B5B5B5"/>
<path d="M98.3748 101.489H114.176" stroke="#263238" stroke-width="0.5" stroke-miterlimit="10"/>
<path d="M98.533 102.833H107.539" stroke="#263238" stroke-width="0.5" stroke-miterlimit="10"/>
<path d="M121.128 104.728H105.327" stroke="#263238" stroke-width="0.5" stroke-miterlimit="10"/>
<path d="M100.034 108.758H121.365" stroke="#263238" stroke-width="0.5" stroke-miterlimit="10"/>
<path d="M99.6389 105.992H115.124" stroke="#263238" stroke-width="0.5" stroke-miterlimit="10"/>
<path d="M121.76 110.338H110.383" stroke="#263238" stroke-width="0.5" stroke-miterlimit="10"/>
<path d="M121.285 112.471H100.429" stroke="#263238" stroke-width="0.5" stroke-miterlimit="10"/>
<path d="M104.537 114.288H116.861" stroke="#263238" stroke-width="0.5" stroke-miterlimit="10"/>
<path d="M121.918 115.394H101.377" stroke="#263238" stroke-width="0.5" stroke-miterlimit="10"/>
<path d="M98.2957 118.317H113.148" stroke="#263238" stroke-width="0.5" stroke-miterlimit="10"/>
<path d="M111.727 116.816H100.824" stroke="#263238" stroke-width="0.5" stroke-miterlimit="10"/>
<path d="M102.483 119.186H118.284" stroke="#263238" stroke-width="0.5" stroke-miterlimit="10"/>
<path d="M120.654 116.658H116.387" stroke="#263238" stroke-width="0.5" stroke-miterlimit="10"/>
<path d="M140.793 137.511V136.415L141.636 136.238L140.793 136.027V135.725L141.557 135.368L140.793 135.139V130.642H139.865V129.716L140.293 129.68L139.865 129.477V129.128L140.925 129.285L140.214 128.416L139.865 127.892V127.697L141.004 127.625C141.004 127.625 140.359 127.231 139.865 126.877V123.123H141.004C141.004 123.123 140.374 122.825 139.865 122.572V121.176H113.878V123.451L112.721 123.914L113.878 124.428V124.693C113.519 124.9 112.911 125.273 112.8 125.494C112.642 125.809 112.326 126.52 112.326 126.52C112.326 126.52 113.116 126.362 113.353 126.283C113.55 126.218 113.798 126.314 113.878 126.35V126.391L112.958 127.31L113.878 127.713V130.828H115.92V131.047C115.775 131.083 115.622 131.127 115.486 131.182C115.091 131.34 114.143 131.972 114.143 131.972L115.328 131.893L114.775 132.762L115.92 132.834V137.14H113.321V138.708C113.165 138.74 112.983 138.802 112.8 138.924C112.645 139.027 112.466 139.198 112.293 139.38C111.937 139.758 111.615 140.188 111.615 140.188L112.958 139.793L112.247 140.741L112.8 140.899L112.326 141.61L113.321 141.681V143.265H139.309V142.205C139.885 142.228 140.214 142.242 140.214 142.242L139.898 142.084L140.688 141.847L139.898 141.056L139.661 140.109C139.661 140.109 139.516 140.086 139.308 140.049V137.51H140.793V137.511Z" fill="#B5B5B5" stroke="#263238" stroke-width="0.5" stroke-miterlimit="10"/>
<path d="M115.012 123.597H130.813" stroke="#263238" stroke-width="0.5" stroke-miterlimit="10"/>
<path d="M115.17 124.941H124.176" stroke="#263238" stroke-width="0.5" stroke-miterlimit="10"/>
<path d="M137.765 126.836H121.964" stroke="#263238" stroke-width="0.5" stroke-miterlimit="10"/>
<path d="M116.671 130.865H138.002" stroke="#263238" stroke-width="0.5" stroke-miterlimit="10"/>
<path d="M116.276 128.1H131.761" stroke="#263238" stroke-width="0.5" stroke-miterlimit="10"/>
<path d="M138.397 132.446H127.021" stroke="#263238" stroke-width="0.5" stroke-miterlimit="10"/>
<path d="M137.923 134.579H117.066" stroke="#263238" stroke-width="0.5" stroke-miterlimit="10"/>
<path d="M121.175 136.396H133.499" stroke="#263238" stroke-width="0.5" stroke-miterlimit="10"/>
<path d="M138.555 137.502H118.014" stroke="#263238" stroke-width="0.5" stroke-miterlimit="10"/>
<path d="M114.933 140.425H129.786" stroke="#263238" stroke-width="0.5" stroke-miterlimit="10"/>
<path d="M128.364 138.924H117.461" stroke="#263238" stroke-width="0.5" stroke-miterlimit="10"/>
<path d="M119.12 141.294H134.921" stroke="#263238" stroke-width="0.5" stroke-miterlimit="10"/>
<path d="M137.291 138.766H133.025" stroke="#263238" stroke-width="0.5" stroke-miterlimit="10"/>
<path d="M147.316 137.511V136.415L148.159 136.238L147.316 136.027V135.725L148.08 135.368L147.316 135.139V130.642H146.388V129.716L146.816 129.68L146.388 129.477V129.128L147.448 129.285L146.737 128.416L146.388 127.892V127.697L147.527 127.625C147.527 127.625 146.882 127.231 146.388 126.877V123.123H147.527C147.527 123.123 146.896 122.825 146.388 122.572V121.176H120.4V123.451L119.244 123.914L120.4 124.428V124.693C120.041 124.9 119.433 125.273 119.323 125.494C119.165 125.809 118.849 126.52 118.849 126.52C118.849 126.52 119.639 126.362 119.876 126.283C120.072 126.218 120.32 126.314 120.4 126.35V126.391L119.481 127.31L120.4 127.713V130.828H122.442V131.047C122.298 131.083 122.145 131.127 122.009 131.182C121.614 131.34 120.666 131.972 120.666 131.972L121.851 131.893L121.298 132.762L122.442 132.834V137.14H119.844V138.708C119.688 138.74 119.506 138.802 119.323 138.924C119.168 139.027 118.988 139.198 118.816 139.38C118.46 139.758 118.137 140.188 118.137 140.188L119.481 139.793L118.769 140.741L119.323 140.899L118.849 141.61L119.843 141.681V143.265H145.831V142.205C146.407 142.228 146.736 142.242 146.736 142.242L146.42 142.084L147.21 141.847L146.42 141.056L146.183 140.109C146.183 140.109 146.038 140.086 145.83 140.049V137.51H147.316V137.511Z" fill="white" stroke="#263238" stroke-width="0.5" stroke-miterlimit="10"/>
<path d="M121.535 123.597H137.335" stroke="#263238" stroke-width="0.5" stroke-miterlimit="10"/>
<path d="M121.693 124.941H130.699" stroke="#263238" stroke-width="0.5" stroke-miterlimit="10"/>
<path d="M144.288 126.836H128.487" stroke="#263238" stroke-width="0.5" stroke-miterlimit="10"/>
<path d="M123.194 130.865H144.525" stroke="#263238" stroke-width="0.5" stroke-miterlimit="10"/>
<path d="M122.799 128.1H138.283" stroke="#263238" stroke-width="0.5" stroke-miterlimit="10"/>
<path d="M144.919 132.446H133.543" stroke="#263238" stroke-width="0.5" stroke-miterlimit="10"/>
<path d="M144.445 134.579H123.589" stroke="#263238" stroke-width="0.5" stroke-miterlimit="10"/>
<path d="M127.697 136.396H140.021" stroke="#263238" stroke-width="0.5" stroke-miterlimit="10"/>
<path d="M145.077 137.502H124.537" stroke="#263238" stroke-width="0.5" stroke-miterlimit="10"/>
<path d="M121.456 140.425H136.308" stroke="#263238" stroke-width="0.5" stroke-miterlimit="10"/>
<path d="M134.886 138.924H123.984" stroke="#263238" stroke-width="0.5" stroke-miterlimit="10"/>
<path d="M125.643 141.294H141.444" stroke="#263238" stroke-width="0.5" stroke-miterlimit="10"/>
<path d="M143.814 138.766H139.547" stroke="#263238" stroke-width="0.5" stroke-miterlimit="10"/>
<path d="M147.316 115.769V114.673L148.159 114.496L147.316 114.285V113.983L148.08 113.627L147.316 113.397V108.9H146.388V107.974L146.816 107.938L146.388 107.735V107.385L147.448 107.543L146.737 106.673L146.388 106.15V105.954L147.527 105.883C147.527 105.883 146.882 105.489 146.388 105.135V101.38H147.527C147.527 101.38 146.896 101.081 146.388 100.828V99.4326H120.4V101.707L119.244 102.17L120.4 102.684V102.95C120.041 103.156 119.433 103.529 119.323 103.75C119.165 104.066 118.849 104.777 118.849 104.777C118.849 104.777 119.639 104.619 119.876 104.54C120.072 104.474 120.32 104.571 120.4 104.606V104.647L119.481 105.567L120.4 105.969V109.085H122.442V109.304C122.298 109.339 122.145 109.383 122.009 109.438C121.614 109.596 120.666 110.228 120.666 110.228L121.851 110.149L121.298 111.018L122.442 111.089V115.396H119.844V116.964C119.688 116.996 119.506 117.058 119.323 117.18C119.168 117.283 118.988 117.454 118.816 117.637C118.46 118.014 118.137 118.444 118.137 118.444L119.481 118.049L118.769 118.997L119.323 119.155L118.849 119.867L119.843 119.937V121.522H145.831V120.462C146.407 120.485 146.736 120.499 146.736 120.499L146.42 120.34L147.21 120.103L146.42 119.313L146.183 118.365C146.183 118.365 146.038 118.342 145.83 118.306V115.767H147.316V115.769Z" fill="white" stroke="#263238" stroke-width="0.5" stroke-miterlimit="10"/>
<path d="M121.535 101.856H137.335" stroke="#263238" stroke-width="0.5" stroke-miterlimit="10"/>
<path d="M121.693 103.199H130.699" stroke="#263238" stroke-width="0.5" stroke-miterlimit="10"/>
<path d="M144.288 105.095H128.487" stroke="#263238" stroke-width="0.5" stroke-miterlimit="10"/>
<path d="M123.194 109.124H144.525" stroke="#263238" stroke-width="0.5" stroke-miterlimit="10"/>
<path d="M122.799 106.359H138.283" stroke="#263238" stroke-width="0.5" stroke-miterlimit="10"/>
<path d="M144.919 110.704H133.543" stroke="#263238" stroke-width="0.5" stroke-miterlimit="10"/>
<path d="M144.445 112.837H123.589" stroke="#263238" stroke-width="0.5" stroke-miterlimit="10"/>
<path d="M127.697 114.654H140.021" stroke="#263238" stroke-width="0.5" stroke-miterlimit="10"/>
<path d="M145.077 115.76H124.537" stroke="#263238" stroke-width="0.5" stroke-miterlimit="10"/>
<path d="M121.456 118.683H136.308" stroke="#263238" stroke-width="0.5" stroke-miterlimit="10"/>
<path d="M134.886 117.182H123.984" stroke="#263238" stroke-width="0.5" stroke-miterlimit="10"/>
<path d="M125.643 119.552H141.444" stroke="#263238" stroke-width="0.5" stroke-miterlimit="10"/>
<path d="M143.814 117.024H139.547" stroke="#263238" stroke-width="0.5" stroke-miterlimit="10"/>
<path d="M100.775 142.881H70.4678V141.264L100.775 139.648V142.881Z" fill="white" stroke="#263238" stroke-width="0.5" stroke-miterlimit="10"/>
<path d="M118.062 136.87L110.252 117.538L108.93 118.072V118.386L116.631 137.448C116.774 137.801 116.846 138.172 116.846 138.553C116.846 140.18 115.523 141.503 113.896 141.503H103.676V143.046H113.896C116.374 143.046 118.39 141.031 118.39 138.553C118.389 137.973 118.279 137.407 118.062 136.87Z" fill="white" stroke="#263238" stroke-width="0.5" stroke-miterlimit="10"/>
<path d="M114.069 90.8596L111.661 90.5691L106.215 135.702L108.622 135.993L114.069 90.8596Z" fill="white" stroke="#263238" stroke-width="0.5" stroke-miterlimit="10"/>
<path d="M103.934 142.92H90.8086V141.374C90.8086 139.704 92.0727 138.306 93.7342 138.138L100.352 137.467C102.269 137.273 103.934 138.778 103.934 140.704V142.92Z" fill="white" stroke="#263238" stroke-width="0.5" stroke-miterlimit="10"/>
<path d="M45.6723 79.2418C45.6723 79.2418 42.8768 72.474 40.2285 71.8855C37.5801 71.2971 26.3986 76.8877 29.4883 82.0373C32.578 87.1869 35.8148 86.8923 38.7574 85.5683C41.7 84.244 45.6723 79.2418 45.6723 79.2418Z" fill="#263238" stroke="#263238" stroke-width="0.5" stroke-miterlimit="10"/>
<path d="M33.6077 74.3865C33.6077 74.3865 30.6652 73.3567 29.194 73.3567C27.7229 73.3567 27.4287 78.0646 27.4287 78.0646C27.4287 78.0646 28.4585 73.5038 33.6077 74.3865Z" fill="#263238" stroke="#263238" stroke-width="0.5" stroke-miterlimit="10"/>
<path d="M65.3869 84.391C65.3869 84.391 67.0051 86.598 67.4468 88.5104C67.8881 90.4232 66.7112 92.4828 67.1526 94.1014C67.5939 95.7196 69.6538 97.1911 69.5067 98.2208C69.3596 99.2506 66.417 100.869 66.417 100.869C66.417 100.869 63.9158 106.901 62.886 107.343C61.8562 107.784 58.3252 106.754 56.7066 106.019C55.0884 105.283 53.0285 105.43 53.0285 105.43L43.4652 100.575C43.4652 100.575 44.4949 98.6625 43.3181 95.8674C42.1412 93.0723 41.5527 88.364 48.7619 83.6561C55.971 78.9475 65.3869 84.391 65.3869 84.391Z" fill="white" stroke="#263238" stroke-width="0.5" stroke-miterlimit="10"/>
<path d="M64.0629 100.575C64.0629 100.575 63.4745 99.5451 62.1501 99.9864" stroke="#263238" stroke-width="0.5" stroke-miterlimit="10"/>
<path d="M65.2396 93.3655C65.2396 94.0968 65.0092 94.6895 64.7245 94.6895C64.4402 94.6895 64.2095 94.0968 64.2095 93.3655C64.2095 92.6342 64.4399 92.0415 64.7245 92.0415C65.0092 92.0415 65.2396 92.6346 65.2396 93.3655Z" fill="#263238"/>
<path d="M63.7686 89.6873C63.7686 89.6873 64.7983 88.6575 65.8285 89.8344" stroke="#263238" stroke-width="0.5" stroke-miterlimit="10"/>
<path d="M64.8722 96.308C66.2942 96.308 67.4469 94.4637 67.4469 92.1886C67.4469 89.9134 66.2942 88.0691 64.8722 88.0691C63.4503 88.0691 62.2976 89.9134 62.2976 92.1886C62.2976 94.4637 63.4503 96.308 64.8722 96.308Z" stroke="#263238" stroke-width="0.5" stroke-miterlimit="10"/>
<path d="M62.297 92.1885L50.8213 93.3654" stroke="#263238" stroke-width="0.5" stroke-miterlimit="10"/>
<path d="M48.4675 96.161C48.4675 96.161 45.672 99.2507 44.0538 99.2507C42.4356 99.2507 39.3459 97.1911 37.8744 94.9841C36.403 92.7771 39.3455 87.1865 40.9641 83.9497C42.5827 80.7129 45.5249 75.2691 51.5572 74.0922C57.5894 72.9153 59.9432 73.3566 65.0928 76.005C70.2421 78.6533 69.6536 82.4786 68.771 83.6555C67.8883 84.8324 66.5639 85.8625 66.5639 85.8625C66.5639 85.8625 69.8007 84.0972 70.9776 84.6856C72.1545 85.2741 72.1545 86.0096 72.1545 86.0096C72.1545 86.0096 68.4764 86.1567 68.0351 86.1567C67.5937 86.1567 66.1223 86.8923 66.1223 86.8923C66.1223 86.8923 63.0326 87.6278 61.4143 87.1865C59.7961 86.7452 57.5891 85.1266 57.442 86.8923C57.2949 88.6576 55.0879 91.7473 54.2052 92.0415C53.3225 92.3358 51.9982 92.4829 50.8213 93.3655C49.6447 94.2486 48.4675 96.161 48.4675 96.161Z" fill="#263238" stroke="#263238" stroke-width="0.5" stroke-miterlimit="10"/>
<path d="M51.8513 94.8369C51.8513 94.8369 49.7914 90.5704 47.7318 92.3357C45.6723 94.101 47.8789 98.6622 48.7616 99.1035C49.6443 99.5448 51.4099 98.368 51.4099 98.368C51.4099 98.368 51.5571 100.281 52.1455 101.163" fill="white"/>
<path d="M51.8513 94.8369C51.8513 94.8369 49.7914 90.5704 47.7318 92.3357C45.6723 94.101 47.8789 98.6622 48.7616 99.1035C49.6443 99.5448 51.4099 98.368 51.4099 98.368C51.4099 98.368 51.5571 100.281 52.1455 101.163" stroke="#263238" stroke-width="0.5" stroke-miterlimit="10"/>
<path d="M40.0813 105.43C40.0813 105.43 42.5825 102.929 42.5825 101.311C42.5825 99.6924 43.4652 98.368 49.0561 101.016C54.6467 103.665 56.5595 106.754 55.3826 107.637C54.2057 108.52 51.7045 109.402 51.1161 109.991C50.5276 110.58 48.4677 113.375 48.4677 113.375C48.4677 113.375 44.9363 105.43 40.0813 105.43Z" fill="#92E3A9" stroke="#263238" stroke-width="0.5" stroke-miterlimit="10"/>
<path d="M46.1754 100.151C46.1754 100.151 44.9297 100.4 45.1789 101.272C45.4281 102.143 45.1789 102.891 45.1789 102.891L44.4316 104.012" stroke="#263238" stroke-width="0.5" stroke-miterlimit="10"/>
<path d="M49.0562 101.017C49.0562 101.017 47.6698 102.517 47.7946 103.016C47.919 103.514 48.1682 104.261 47.6701 104.51C47.1721 104.759 46.3 105.008 46.3 105.008" stroke="#263238" stroke-width="0.5" stroke-miterlimit="10"/>
<path d="M49.5372 106.791C49.2788 107.17 49.0396 107.499 49.0396 107.499" stroke="#263238" stroke-width="0.5" stroke-miterlimit="10"/>
<path d="M51.6554 102.766C51.6554 102.766 51.9046 103.887 51.4062 104.634C50.9081 105.382 50.2853 105.382 50.1609 105.755" stroke="#263238" stroke-width="0.5" stroke-miterlimit="10"/>
<path d="M54.3955 104.759C54.3955 104.759 53.8974 106.129 53.5238 106.627C53.1502 107.125 51.7801 107.001 51.5309 107.624C51.2817 108.246 50.5344 108.869 50.5344 108.869" stroke="#263238" stroke-width="0.5" stroke-miterlimit="10"/>
<path d="M83.0214 128.151C81.926 127.713 78.8594 127.274 78.8594 127.274" stroke="#263238" stroke-width="0.5" stroke-miterlimit="10"/>
<path d="M77.5449 126.836C77.5449 126.836 79.9544 126.179 81.4879 126.836" stroke="#263238" stroke-width="0.5" stroke-miterlimit="10"/>
<path d="M82.5329 131.932C82.5329 131.932 83.8328 134.177 84.1872 134.886C84.5417 135.595 84.6598 135.949 84.3053 135.949C83.9508 135.949 82.6509 135.359 82.5329 134.65C82.4148 133.941 82.1784 133.586 82.1784 133.586C82.1784 133.586 82.8448 136.186 82.6509 136.304C81.8799 136.774 81.351 135.949 81.351 135.949L80.4056 133.114C80.4056 133.114 80.0511 134.532 79.9331 134.886C79.815 135.24 79.1061 134.295 79.1061 133.586C79.1061 132.877 79.2241 131.932 79.2241 131.932L78.5151 131.341C78.5151 131.341 79.5786 130.277 80.7601 130.277C81.9419 130.278 82.5329 131.932 82.5329 131.932Z" fill="white" stroke="#263238" stroke-width="0.5" stroke-miterlimit="10"/>
<path d="M64.3356 128.387C64.3356 128.387 64.5036 128.376 64.7982 128.356C66.8351 128.219 74.9265 127.678 75.4427 127.678C76.0336 127.678 79.46 129.569 79.46 129.569C79.46 129.569 81.4689 129.451 82.6504 129.687C83.8319 129.923 84.8954 131.341 85.3682 131.814C85.8408 132.286 87.3771 132.877 86.5497 133.114C85.7227 133.35 85.3682 133.468 84.8954 133.35C84.4228 133.232 82.532 131.932 82.532 131.932L79.4597 131.46C79.4597 131.46 76.6238 132.996 76.2693 133.114C75.9148 133.232 76.7419 134.059 77.5692 134.65C78.3962 135.241 79.6961 136.068 79.5781 137.013C79.46 137.959 79.1056 137.84 78.1602 137.013C77.2147 136.186 76.2697 135.713 74.8517 134.768C73.4338 133.823 71.5433 132.05 71.1889 131.696C70.8344 131.342 70.4799 130.987 70.4799 130.987C70.4799 130.987 62.2087 133.705 59.3728 134.532C56.5369 135.359 53.2285 135.95 51.4561 136.186C49.6837 136.423 46.2569 135.714 45.3118 135.005C44.3664 134.296 41.885 132.051 41.885 132.051L46.1388 123.543C46.1388 123.543 51.2197 128.27 53.2285 128.742C55.2374 129.214 64.3356 128.387 64.3356 128.387Z" fill="white" stroke="#263238" stroke-width="0.5" stroke-miterlimit="10"/>
<path d="M53.2285 128.742C51.2197 128.269 46.1388 123.542 46.1388 123.542L41.885 132.05C41.885 132.05 44.3664 134.295 45.3118 135.004C46.2572 135.713 49.6837 136.422 51.4561 136.186C53.0796 135.969 55.991 135.455 58.6486 134.734C58.7128 134.19 58.761 133.608 58.7822 132.995C58.8283 131.657 58.7844 130.14 58.7135 128.786C56.4324 128.904 54.1247 128.953 53.2285 128.742Z" fill="#92E3A9" stroke="#263238" stroke-width="0.5" stroke-miterlimit="10"/>
<path d="M50.2849 114.756C50.252 112.315 49.5189 109.916 48.0754 107.948C47.3562 106.967 46.4572 106.068 45.3781 105.577C40.466 103.344 37.0119 104.962 33.9024 109.108C27.723 117.347 23.4983 127.138 21.8382 131.177C18.371 139.613 17.7188 142.653 17.7188 142.653H40.9645C40.9645 142.653 39.7876 139.71 39.7876 138.975C39.7876 138.239 40.9645 136.768 40.9645 136.768C40.9645 136.768 48.0265 134.266 49.3505 130.441C50.3246 127.627 50.3431 119.078 50.2849 114.756Z" fill="#92E3A9" stroke="#263238" stroke-width="0.5" stroke-miterlimit="10"/>
<path d="M84.5544 116.76C84.5544 116.76 87.8402 117.418 90.0305 118.294" stroke="#263238" stroke-width="0.5" stroke-miterlimit="10"/>
<path d="M88.0593 116.103C88.0593 116.103 90.2497 116.98 91.7832 118.294" stroke="#263238" stroke-width="0.5" stroke-miterlimit="10"/>
<path d="M35.2263 120.731C35.2263 120.731 42.4355 140.446 44.3483 141.034C46.2607 141.623 48.1735 140.74 49.0562 140.152C49.9389 139.563 75.5387 121.467 75.5387 121.467C75.5387 121.467 80.0995 124.115 80.9822 124.115C81.8648 124.115 83.6305 126.764 84.0719 127.646C84.5132 128.529 84.9545 128.97 85.1016 128.088C85.2487 127.205 84.0718 125.292 83.7776 124.704C83.4834 124.115 83.3363 123.674 83.3363 123.674C83.3363 123.674 84.3661 123.821 84.8074 124.115C85.2487 124.409 86.7202 126.322 87.1615 126.911C87.6029 127.499 88.6327 128.088 88.6327 127.205C88.6327 126.322 87.0144 124.704 86.7199 123.968C86.4253 123.233 85.8372 122.938 85.8372 122.938C85.8372 122.938 88.6327 123.38 89.3682 123.674C90.1038 123.968 90.5451 125.734 91.4281 125.881C92.3108 126.028 90.9868 124.116 90.6926 123.233C90.3983 122.35 86.7202 121.173 86.7202 121.173C86.7202 121.173 89.0743 120.879 89.8099 120.879C90.5455 120.879 92.164 122.35 92.6054 122.35C93.0467 122.35 93.0467 121.909 91.8698 121.026C90.6929 120.143 88.633 119.261 87.7503 119.261C86.8677 119.261 85.985 119.113 85.102 118.966C84.2193 118.819 77.5986 117.495 76.2746 117.495C74.9506 117.495 55.0885 126.764 55.0885 126.764L53.802 125.621C53.7772 125.599 53.7467 125.585 53.7138 125.581L53.4958 125.555C52.7517 125.465 52.0385 125.726 51.4167 126.145C51.3107 126.216 51.204 126.205 51.1157 126.029C50.8215 125.44 48.9087 113.67 47.8789 111.169C46.8492 108.668 43.6124 103.077 38.0214 106.314" fill="white"/>
<path d="M35.2263 120.731C35.2263 120.731 42.4355 140.446 44.3483 141.034C46.2607 141.623 48.1735 140.74 49.0562 140.152C49.9389 139.563 75.5387 121.467 75.5387 121.467C75.5387 121.467 80.0995 124.115 80.9822 124.115C81.8648 124.115 83.6305 126.764 84.0719 127.646C84.5132 128.529 84.9545 128.97 85.1016 128.088C85.2487 127.205 84.0718 125.292 83.7776 124.704C83.4834 124.115 83.3363 123.674 83.3363 123.674C83.3363 123.674 84.3661 123.821 84.8074 124.115C85.2487 124.409 86.7202 126.322 87.1615 126.911C87.6029 127.499 88.6327 128.088 88.6327 127.205C88.6327 126.322 87.0144 124.704 86.7199 123.968C86.4253 123.233 85.8372 122.938 85.8372 122.938C85.8372 122.938 88.6327 123.38 89.3682 123.674C90.1038 123.968 90.5451 125.734 91.4281 125.881C92.3108 126.028 90.9868 124.116 90.6926 123.233C90.3983 122.35 86.7202 121.173 86.7202 121.173C86.7202 121.173 89.0743 120.879 89.8099 120.879C90.5455 120.879 92.164 122.35 92.6054 122.35C93.0467 122.35 93.0467 121.909 91.8698 121.026C90.6929 120.143 88.633 119.261 87.7503 119.261C86.8677 119.261 85.985 119.113 85.102 118.966C84.2193 118.819 77.5986 117.495 76.2746 117.495C74.9506 117.495 55.0885 126.764 55.0885 126.764L53.802 125.621C53.7772 125.599 53.7467 125.585 53.7138 125.581L53.4958 125.555C52.7517 125.465 52.0385 125.726 51.4167 126.145C51.3107 126.216 51.204 126.205 51.1157 126.029C50.8215 125.44 48.9087 113.67 47.8789 111.169C46.8492 108.668 43.6124 103.077 38.0214 106.314" stroke="#263238" stroke-width="0.5" stroke-miterlimit="10"/>
<path d="M35.2263 120.731C35.2263 120.731 42.4355 140.446 44.3483 141.035C46.2607 141.623 48.1735 140.74 49.0562 140.152C49.5216 139.842 56.8612 134.662 63.6953 129.835L61.1491 123.965C57.7294 125.531 55.0881 126.764 55.0881 126.764L53.8017 125.621C53.7769 125.599 53.7464 125.585 53.7134 125.581L53.4954 125.555C52.7513 125.465 52.0381 125.726 51.4163 126.144C51.3104 126.215 51.2037 126.205 51.115 126.028C50.8208 125.44 48.908 113.67 47.8782 111.169C46.8485 108.667 43.6117 103.077 38.0207 106.314" fill="#92E3A9"/>
<path d="M35.2263 120.731C35.2263 120.731 42.4355 140.446 44.3483 141.035C46.2607 141.623 48.1735 140.74 49.0562 140.152C49.5216 139.842 56.8612 134.662 63.6953 129.835L61.1491 123.965C57.7294 125.531 55.0881 126.764 55.0881 126.764L53.8017 125.621C53.7769 125.599 53.7464 125.585 53.7134 125.581L53.4954 125.555C52.7513 125.465 52.0381 125.726 51.4163 126.144C51.3104 126.215 51.2037 126.205 51.115 126.028C50.8208 125.44 48.908 113.67 47.8782 111.169C46.8485 108.667 43.6117 103.077 38.0207 106.314" stroke="#263238" stroke-width="0.5" stroke-miterlimit="10"/>
<path d="M51.1359 126.505C51.1359 126.505 49.4482 128.615 47.4436 130.303" stroke="#263238" stroke-width="0.5" stroke-miterlimit="10"/>
<path d="M50.292 127.455C50.292 127.455 47.8656 128.299 45.8613 128.827" stroke="#263238" stroke-width="0.5" stroke-miterlimit="10"/>
<path d="M17.7184 142.653L13.6741 107.06C13.4667 105.236 11.7932 103.942 9.9747 104.202C8.21256 104.454 6.97824 106.073 7.20228 107.839L11.6248 142.709L17.7184 142.653Z" fill="#263238" stroke="#263238" stroke-width="0.5" stroke-miterlimit="10"/>
<path d="M37.1979 133.307C37.1979 133.307 36.271 132.318 35.0349 132.997C33.7988 133.677 33.5513 136.459 34.1079 138.436C34.6641 140.414 37.1983 139.302 37.1983 139.302L37.1366 138.004C37.1366 138.004 35.0352 138.251 34.9115 137.139C34.7878 136.026 34.7261 134.605 35.9622 134.605C37.1983 134.605 37.5691 134.914 37.5691 134.914L37.1979 133.307Z" fill="white" stroke="#263238" stroke-width="0.5" stroke-miterlimit="10"/>
<path d="M46.8097 130.884H36.9937V142.631H46.8097V130.884Z" fill="white" stroke="#263238" stroke-width="0.5" stroke-miterlimit="10"/>
<path d="M152.484 142.567H0V146.009H152.484V142.567Z" fill="#263238" stroke="#263238" stroke-width="0.5" stroke-miterlimit="10"/>
</g>
<defs>
<clipPath id="clip0_14_1366">
<rect width="160" height="160" fill="white"/>
</clipPath>
</defs>
</svg>
