<svg width="280" height="435" viewBox="0 0 280 435" fill="none" xmlns="http://www.w3.org/2000/svg">
<g clip-path="url(#clip0_25_14)">
<path d="M104.177 4.19344C104.177 4.19344 135.156 -5.23905 163.344 4.19344C180.584 9.9605 216.887 23.6361 225.461 54.6328C234.035 85.6296 192.771 112.074 213.042 143.519C221.788 157.085 263.754 174.974 261.394 262.964C259.033 350.954 197.545 404.591 112.094 402.201C26.6423 399.81 -22.6911 283.084 10.357 225.603C43.4051 168.121 57.6348 167.952 42.6558 121.138C27.6767 74.3245 48.471 17.5902 104.177 4.19344Z" fill="#92E3A9"/>
<path opacity="0.7" d="M105.55 4.19344C105.55 4.19344 135.451 -5.23905 162.657 4.19344C179.297 9.9605 214.337 23.6361 222.613 54.6328C230.888 85.6296 191.061 112.074 210.625 143.519C219.067 157.085 259.573 174.974 257.294 262.964C255.016 350.954 195.669 404.591 113.192 402.201C30.715 399.81 -16.901 283.084 14.9966 225.603C46.8942 168.121 60.6286 167.952 46.171 121.138C31.7134 74.3245 51.7838 17.5902 105.55 4.19344Z" fill="white"/>
<path d="M187.4 127.523H80.5446L67.21 27.8892H200.742L187.4 127.523Z" fill="#263238"/>
<path d="M77.2293 31.1262L57.5557 232.157H210.39L190.716 31.1262" fill="#92E3A9"/>
<mask id="mask0_25_14" style="mask-type:luminance" maskUnits="userSpaceOnUse" x="57" y="31" width="154" height="202">
<path d="M77.236 31.1262L57.5557 232.157H210.396L190.716 31.1262" fill="white"/>
</mask>
<g mask="url(#mask0_25_14)">
<path opacity="0.3" d="M210.396 232.157H57.5557L65.7845 148.091H202.167L210.396 232.157Z" fill="black" fill-opacity="0.7"/>
</g>
<path d="M77.2293 31.1262L57.5557 232.157H210.39L190.716 31.1262" stroke="#263238" stroke-width="0.64" stroke-linecap="round" stroke-linejoin="round"/>
<path d="M186.558 31.1262H81.3935L63.1587 232.157H204.793L186.558 31.1262Z" fill="#263238"/>
<path d="M176.168 46.4453H119.083L118.42 44.254C118.242 43.6593 117.953 43.1547 117.588 42.8012C117.224 42.4477 116.798 42.2604 116.364 42.262H103.421C103.069 42.262 102.732 42.4718 102.483 42.8454C102.234 43.219 102.095 43.7257 102.095 44.254V46.4852H91.7838C91.5978 46.4857 91.4141 46.5481 91.246 46.668C91.078 46.7878 90.9296 46.962 90.8117 47.1782C90.6938 47.3944 90.6092 47.6471 90.5641 47.9182C90.5189 48.1893 90.5143 48.4721 90.5505 48.7462L98.9849 111.746H168.967L177.401 48.7462C177.442 48.4693 177.441 48.1821 177.398 47.906C177.354 47.6299 177.271 47.3718 177.152 47.1509C177.034 46.93 176.884 46.7519 176.713 46.6298C176.543 46.5077 176.357 46.4446 176.168 46.4453Z" fill="#BFBFBF" stroke="#263238" stroke-width="0.64" stroke-linecap="round" stroke-linejoin="round"/>
<path d="M178.323 51.2761L177.593 56.7145L170.1 112.682C169.993 113.522 169.693 114.28 169.254 114.825C168.815 115.371 168.263 115.669 167.693 115.67H100.258C99.6881 115.669 99.1363 115.371 98.6971 114.825C98.2579 114.28 97.9587 113.522 97.8509 112.682L90.2122 55.3897L89.6619 51.2761C89.6259 51.0044 89.6301 50.7242 89.6742 50.4553C89.7182 50.1863 89.801 49.9351 89.9167 49.7195C90.0325 49.5039 90.1783 49.329 90.3439 49.2073C90.5095 49.0856 90.6909 49.02 90.8753 49.0151H177.076C177.263 49.0127 177.448 49.0729 177.618 49.1914C177.788 49.31 177.938 49.4839 178.057 49.7004C178.177 49.9169 178.262 50.1707 178.308 50.4433C178.354 50.7158 178.359 51.0003 178.323 51.2761Z" fill="white"/>
<mask id="mask1_25_14" style="mask-type:luminance" maskUnits="userSpaceOnUse" x="89" y="49" width="90" height="67">
<path d="M178.323 51.2761L177.593 56.7145L170.1 112.682C169.993 113.522 169.693 114.28 169.254 114.825C168.815 115.371 168.263 115.669 167.693 115.67H100.258C99.6881 115.669 99.1363 115.371 98.6971 114.825C98.2579 114.28 97.9587 113.522 97.8509 112.682L90.2122 55.3897L89.6619 51.2761C89.6259 51.0044 89.6301 50.7242 89.6742 50.4553C89.7182 50.1863 89.801 49.9351 89.9167 49.7195C90.0325 49.5039 90.1783 49.329 90.3439 49.2073C90.5095 49.0856 90.6909 49.02 90.8753 49.0151H177.076C177.263 49.0127 177.448 49.0729 177.618 49.1914C177.788 49.31 177.938 49.4839 178.057 49.7004C178.177 49.9169 178.262 50.1707 178.308 50.4433C178.354 50.7158 178.359 51.0003 178.323 51.2761Z" fill="white"/>
</mask>
<g mask="url(#mask1_25_14)">
<path opacity="0.4" d="M177.593 56.7145L170.101 112.682C169.993 113.522 169.694 114.28 169.254 114.825C168.815 115.371 168.263 115.669 167.694 115.67H100.258C99.6883 115.669 99.1365 115.371 98.6973 114.825C98.2581 114.28 97.9589 113.522 97.8511 112.682L90.2124 55.3898L177.593 56.7145Z" fill="#92E3A9"/>
</g>
<path d="M178.323 51.2761L177.593 56.7145L170.1 112.682C169.993 113.522 169.693 114.28 169.254 114.825C168.815 115.371 168.263 115.669 167.693 115.67H100.258C99.6881 115.669 99.1363 115.371 98.6971 114.825C98.2579 114.28 97.9587 113.522 97.8509 112.682L90.2122 55.3897L89.6619 51.2761C89.6259 51.0044 89.6301 50.7242 89.6742 50.4553C89.7182 50.1863 89.801 49.9351 89.9167 49.7195C90.0325 49.5039 90.1783 49.329 90.3439 49.2073C90.5095 49.0856 90.6909 49.02 90.8753 49.0151H177.076C177.263 49.0127 177.448 49.0729 177.618 49.1914C177.788 49.31 177.938 49.4839 178.057 49.7004C178.177 49.9169 178.262 50.1707 178.308 50.4433C178.354 50.7158 178.359 51.0003 178.323 51.2761Z" stroke="#263238" stroke-width="0.64" stroke-linecap="round" stroke-linejoin="round"/>
<path d="M177.182 60.9576H118.725L118.062 58.7763C117.874 58.1776 117.577 57.6719 117.204 57.3189C116.832 56.9659 116.4 56.7804 115.96 56.7842H102.698C102.346 56.7842 102.009 56.9941 101.76 57.3677C101.512 57.7413 101.372 58.248 101.372 58.7763V61.0074H90.7626C90.5747 61.0039 90.3886 61.0631 90.2178 61.1809C90.0471 61.2988 89.8959 61.4722 89.7753 61.6887C89.6547 61.9051 89.5676 62.1592 89.5205 62.4324C89.4733 62.7057 89.4673 62.9912 89.5027 63.2684L98.1228 126.079H169.782L178.402 63.2684C178.443 62.9926 178.442 62.7068 178.399 62.4317C178.357 62.1565 178.274 61.899 178.158 61.6777C178.041 61.4565 177.893 61.2771 177.724 61.1525C177.555 61.028 177.37 60.9614 177.182 60.9576Z" fill="#BFBFBF" stroke="#263238" stroke-width="0.64" stroke-linecap="round" stroke-linejoin="round"/>
<path d="M179.384 65.9577L178.655 71.2765L170.969 127.184C170.851 128.034 170.541 128.796 170.092 129.34C169.642 129.885 169.08 130.179 168.503 130.172H99.4493C98.8716 130.179 98.3102 129.885 97.8605 129.34C97.4108 128.796 97.1006 128.034 96.9827 127.184L89.271 71.0873L88.5681 65.9577C88.5327 65.6805 88.5388 65.3949 88.5859 65.1217C88.6331 64.8484 88.7201 64.5944 88.8407 64.3779C88.9613 64.1615 89.1125 63.988 89.2832 63.8702C89.454 63.7524 89.6401 63.6931 89.828 63.6967H178.124C178.312 63.6931 178.498 63.7524 178.669 63.8702C178.84 63.988 178.991 64.1615 179.111 64.3779C179.232 64.5944 179.319 64.8484 179.366 65.1217C179.413 65.3949 179.419 65.6805 179.384 65.9577Z" fill="white"/>
<mask id="mask2_25_14" style="mask-type:luminance" maskUnits="userSpaceOnUse" x="88" y="63" width="92" height="68">
<path d="M179.384 65.9577L178.655 71.2765L170.969 127.184C170.851 128.034 170.541 128.796 170.092 129.34C169.642 129.885 169.08 130.179 168.503 130.172H99.4493C98.8716 130.179 98.3102 129.885 97.8605 129.34C97.4108 128.796 97.1006 128.034 96.9827 127.184L89.271 71.0873L88.5681 65.9577C88.5327 65.6805 88.5388 65.3949 88.5859 65.1217C88.6331 64.8484 88.7201 64.5944 88.8407 64.3779C88.9613 64.1615 89.1125 63.988 89.2832 63.8702C89.454 63.7524 89.6401 63.6931 89.828 63.6967H178.124C178.312 63.6931 178.498 63.7524 178.669 63.8702C178.84 63.988 178.991 64.1615 179.111 64.3779C179.232 64.5944 179.319 64.8484 179.366 65.1217C179.413 65.3949 179.419 65.6805 179.384 65.9577Z" fill="white"/>
</mask>
<g mask="url(#mask2_25_14)">
<path opacity="0.4" d="M178.655 71.2765L170.969 127.184C170.851 128.034 170.541 128.796 170.092 129.34C169.642 129.885 169.08 130.179 168.503 130.172H99.4493C98.8716 130.179 98.3102 129.885 97.8605 129.34C97.4108 128.796 97.1006 128.034 96.9827 127.184L89.271 71.0873L178.655 71.2765Z" fill="#92E3A9"/>
</g>
<path d="M179.384 65.9577L178.655 71.2765L170.969 127.184C170.851 128.034 170.541 128.796 170.092 129.34C169.642 129.885 169.08 130.179 168.503 130.172H99.4493C98.8716 130.179 98.3102 129.885 97.8605 129.34C97.4108 128.796 97.1006 128.034 96.9827 127.184L89.271 71.0873L88.5681 65.9577C88.5327 65.6805 88.5388 65.3949 88.5859 65.1217C88.6331 64.8484 88.7201 64.5944 88.8407 64.3779C88.9613 64.1615 89.1125 63.988 89.2832 63.8702C89.454 63.7524 89.6401 63.6931 89.828 63.6967H178.124C178.312 63.6931 178.498 63.7524 178.669 63.8702C178.84 63.988 178.991 64.1615 179.111 64.3779C179.232 64.5944 179.319 64.8484 179.366 65.1217C179.413 65.3949 179.419 65.6805 179.384 65.9577Z" stroke="#263238" stroke-width="0.64" stroke-linecap="round" stroke-linejoin="round"/>
<path d="M178.19 75.4699H118.374L117.71 73.2886C117.515 72.6844 117.21 72.1761 116.829 71.8233C116.449 71.4705 116.009 71.2878 115.562 71.2966H101.956C101.778 71.2885 101.601 71.3342 101.436 71.4307C101.27 71.5272 101.119 71.6727 100.992 71.8585C100.865 72.0442 100.763 72.2666 100.694 72.5122C100.625 72.7579 100.59 73.0219 100.59 73.2886V75.5098H89.7615C89.5719 75.5008 89.3833 75.5556 89.2096 75.6702C89.0359 75.7847 88.8814 75.9562 88.7574 76.1719C88.6335 76.3877 88.5433 76.6423 88.4933 76.9173C88.4433 77.1922 88.4348 77.4804 88.4685 77.7608L97.3074 140.382H170.644L179.483 77.7608C179.521 77.4775 179.516 77.1849 179.468 76.9049C179.421 76.6249 179.331 76.3649 179.207 76.1444C179.082 75.9239 178.926 75.7487 178.75 75.6319C178.574 75.515 178.383 75.4597 178.19 75.4699Z" fill="#BFBFBF" stroke="#263238" stroke-width="0.64" stroke-linecap="round" stroke-linejoin="round"/>
<path d="M179.158 78.3883H88.7935C88.6048 78.3793 88.4171 78.4338 88.2441 78.5478C88.0712 78.6619 87.9175 78.8326 87.7941 79.0474C87.6708 79.2623 87.581 79.5159 87.5314 79.7896C87.4817 80.0633 87.4734 80.3502 87.5072 80.6294L96.1272 141.677C96.2539 142.534 96.5738 143.3 97.0329 143.845C97.492 144.389 98.0621 144.679 98.647 144.665H169.312C169.897 144.679 170.467 144.389 170.926 143.845C171.385 143.3 171.705 142.534 171.831 141.677L180.451 80.6294C180.485 80.3494 180.477 80.0615 180.427 79.7871C180.377 79.5126 180.287 79.2585 180.162 79.0434C180.038 78.8284 179.884 78.6579 179.71 78.5445C179.536 78.4311 179.348 78.3777 179.158 78.3883Z" fill="white" stroke="#263238" stroke-width="0.64" stroke-linecap="round" stroke-linejoin="round"/>
<path d="M179.205 86.9941H118.015L117.319 84.8227C117.114 84.2152 116.8 83.7064 116.412 83.3542C116.024 83.002 115.578 82.8206 115.124 82.8307H101.2C101.019 82.8157 100.839 82.8562 100.67 82.9496C100.5 83.0431 100.345 83.1874 100.214 83.3739C100.083 83.5604 99.9792 83.7851 99.908 84.0342C99.8369 84.2833 99.8003 84.5516 99.8006 84.8227V87.0439H88.747C88.5556 87.0294 88.3646 87.0797 88.1879 87.1909C88.0112 87.3022 87.8534 87.4716 87.7261 87.6867C87.5988 87.9018 87.5053 88.1571 87.4525 88.4337C87.3996 88.7103 87.3888 89.0012 87.4208 89.285L96.4586 151.727H171.486L180.524 89.285C180.562 88.9985 180.555 88.7029 180.505 88.4207C180.456 88.1385 180.364 87.8771 180.236 87.6563C180.109 87.4354 179.95 87.2611 179.771 87.1463C179.593 87.0316 179.399 86.9795 179.205 86.9941Z" fill="#BFBFBF" stroke="#263238" stroke-width="0.64" stroke-linecap="round" stroke-linejoin="round"/>
<path d="M180.193 90.0818H87.7592C87.5678 90.0673 87.3768 90.1175 87.2001 90.2288C87.0234 90.34 86.8656 90.5095 86.7383 90.7246C86.611 90.9397 86.5175 91.1949 86.4647 91.4716C86.4118 91.7482 86.401 92.0391 86.433 92.3229L95.2454 153.191C95.3898 154.047 95.724 154.803 96.1929 155.335C96.6617 155.867 97.2373 156.144 97.8248 156.119H170.101C170.688 156.144 171.264 155.867 171.733 155.335C172.202 154.803 172.536 154.047 172.68 153.191L181.493 92.3229C181.524 92.0426 181.514 91.7553 181.462 91.4817C181.411 91.2081 181.32 90.955 181.196 90.7406C181.071 90.5263 180.917 90.356 180.744 90.2421C180.57 90.1282 180.382 90.0734 180.193 90.0818Z" fill="white" stroke="#263238" stroke-width="0.64" stroke-linecap="round" stroke-linejoin="round"/>
<path d="M180.213 98.5183H117.657L116.948 96.3469C116.733 95.7346 116.409 95.2241 116.012 94.8723C115.615 94.5205 115.161 94.3414 114.7 94.3549H100.49C100.131 94.3277 99.7786 94.516 99.5113 94.8782C99.2441 95.2405 99.0834 95.7472 99.0645 96.2872V98.4984H87.7391C87.5507 98.4963 87.3642 98.5546 87.1919 98.6693C87.0197 98.784 86.8657 98.9526 86.7403 99.1637C86.6148 99.3748 86.5207 99.6236 86.4642 99.8936C86.4078 100.164 86.3903 100.449 86.4129 100.73L95.6563 162.982H172.322L181.565 100.73C181.586 100.447 181.567 100.16 181.508 99.8901C181.449 99.6196 181.352 99.3713 181.224 99.1618C181.096 98.9523 180.939 98.7865 180.765 98.6755C180.59 98.5645 180.402 98.5109 180.213 98.5183Z" fill="#BFBFBF" stroke="#263238" stroke-width="0.64" stroke-linecap="round" stroke-linejoin="round"/>
<path d="M181.221 101.785H86.7315C86.5411 101.773 86.3513 101.824 86.1758 101.935C86.0002 102.047 85.8434 102.215 85.7165 102.429C85.5896 102.642 85.4958 102.895 85.442 103.17C85.3882 103.445 85.3757 103.734 85.4053 104.016L87.62 118.957L94.41 164.705C94.5679 165.57 94.9158 166.33 95.3971 166.862C95.8785 167.393 96.4653 167.665 97.0623 167.633H170.93C171.527 167.665 172.114 167.393 172.595 166.862C173.076 166.33 173.424 165.57 173.582 164.705L176.897 142.264L182.573 104.026C182.605 103.739 182.593 103.445 182.538 103.167C182.483 102.888 182.387 102.631 182.257 102.416C182.127 102.2 181.966 102.032 181.787 101.922C181.607 101.813 181.414 101.766 181.221 101.785Z" fill="white"/>
<mask id="mask3_25_14" style="mask-type:luminance" maskUnits="userSpaceOnUse" x="85" y="101" width="98" height="67">
<path d="M181.221 101.785H86.7315C86.5411 101.773 86.3513 101.824 86.1758 101.935C86.0002 102.047 85.8434 102.215 85.7165 102.429C85.5896 102.642 85.4958 102.895 85.442 103.17C85.3882 103.445 85.3757 103.734 85.4053 104.016L87.62 118.957L94.41 164.705C94.5679 165.57 94.9158 166.33 95.3971 166.862C95.8785 167.393 96.4653 167.665 97.0623 167.633H170.93C171.527 167.665 172.114 167.393 172.595 166.862C173.076 166.33 173.424 165.57 173.582 164.705L176.897 142.264L182.573 104.026C182.605 103.739 182.593 103.445 182.538 103.167C182.483 102.888 182.387 102.631 182.257 102.416C182.127 102.2 181.966 102.032 181.787 101.922C181.607 101.813 181.414 101.766 181.221 101.785Z" fill="white"/>
</mask>
<g mask="url(#mask3_25_14)">
<path opacity="0.4" d="M87.5933 118.947L94.3832 164.695C94.5412 165.56 94.889 166.32 95.3704 166.852C95.8518 167.383 96.4385 167.655 97.0356 167.623H170.93C171.527 167.655 172.113 167.383 172.595 166.852C173.076 166.32 173.424 165.56 173.582 164.695L176.897 142.254L87.5933 118.947Z" fill="#92E3A9"/>
</g>
<path d="M181.221 101.785H86.7315C86.5411 101.773 86.3513 101.824 86.1758 101.935C86.0002 102.047 85.8434 102.215 85.7165 102.429C85.5896 102.642 85.4958 102.895 85.442 103.17C85.3882 103.445 85.3757 103.734 85.4053 104.016L87.62 118.957L94.41 164.705C94.5679 165.57 94.9158 166.33 95.3971 166.862C95.8785 167.393 96.4653 167.665 97.0623 167.633H170.93C171.527 167.665 172.114 167.393 172.595 166.862C173.076 166.33 173.424 165.57 173.582 164.705L176.897 142.264L182.573 104.026C182.605 103.739 182.593 103.445 182.538 103.167C182.483 102.888 182.387 102.631 182.257 102.416C182.127 102.2 181.966 102.032 181.787 101.922C181.607 101.813 181.414 101.766 181.221 101.785Z" stroke="#263238" stroke-width="0.64" stroke-linecap="round" stroke-linejoin="round"/>
<path d="M115.257 169.785L114.422 167.693C114.148 167.089 113.772 166.605 113.333 166.29C112.894 165.975 112.407 165.84 111.922 165.9L96.4854 166.966C96.1135 166.944 95.7503 167.139 95.4721 167.51C95.1939 167.882 95.0224 168.401 94.9935 168.958L95.0598 171.149L82.753 171.996C81.8114 172.056 81.1351 173.171 81.3605 174.297L93.296 235.055L176.606 229.298L184.768 167.175C184.914 166.02 184.178 165.004 183.23 165.074L115.257 169.785Z" fill="#BFBFBF" stroke="#263238" stroke-width="0.64" stroke-linecap="round" stroke-linejoin="round"/>
<path d="M185.961 171.06L185.033 178.211L178.024 231.629C177.851 232.53 177.485 233.321 176.983 233.879C176.481 234.437 175.87 234.731 175.246 234.717L94.9665 240.255C94.3454 240.356 93.7192 240.148 93.1846 239.662C92.6501 239.176 92.237 238.439 92.0091 237.565L80.929 181.09L80.3919 178.351C80.1731 177.225 80.8495 176.11 81.791 176.05L184.443 168.958C185.378 168.898 186.114 169.914 185.961 171.06Z" fill="white"/>
<mask id="mask4_25_14" style="mask-type:luminance" maskUnits="userSpaceOnUse" x="80" y="168" width="106" height="73">
<path d="M185.961 171.06L185.033 178.211L178.024 231.629C177.851 232.53 177.485 233.321 176.983 233.879C176.481 234.437 175.87 234.731 175.246 234.717L94.9665 240.255C94.3454 240.356 93.7192 240.148 93.1846 239.662C92.6501 239.176 92.237 238.439 92.0091 237.565L80.929 181.09L80.3919 178.351C80.1731 177.225 80.8495 176.11 81.791 176.05L184.443 168.958C185.378 168.898 186.114 169.914 185.961 171.06Z" fill="white"/>
</mask>
<g mask="url(#mask4_25_14)">
<path opacity="0.4" d="M185.033 178.211L178.024 231.629C177.851 232.53 177.485 233.321 176.983 233.879C176.481 234.437 175.871 234.731 175.246 234.717L94.9667 240.255C94.3455 240.356 93.7193 240.148 93.1848 239.662C92.6503 239.176 92.2372 238.439 92.0093 237.565L80.9292 181.09L185.033 178.211Z" fill="#92E3A9"/>
</g>
<path d="M185.961 171.06L185.033 178.211L178.024 231.629C177.851 232.53 177.485 233.321 176.983 233.879C176.481 234.437 175.87 234.731 175.246 234.717L94.9665 240.255C94.3454 240.356 93.7192 240.148 93.1846 239.662C92.6501 239.176 92.237 238.439 92.0091 237.565L80.929 181.09L80.3919 178.351C80.1731 177.225 80.8495 176.11 81.791 176.05L184.443 168.958C185.378 168.898 186.114 169.914 185.961 171.06Z" stroke="#263238" stroke-width="0.64" stroke-linecap="round" stroke-linejoin="round"/>
<path d="M117.028 183.65L116.318 181.458C116.074 180.813 115.721 180.274 115.295 179.897C114.87 179.52 114.386 179.316 113.891 179.307L98.1695 178.072C97.7929 177.985 97.4086 178.123 97.0988 178.456C96.7891 178.789 96.5784 179.291 96.5118 179.855L96.4388 182.036L83.8933 181.04C82.9318 180.96 82.1759 181.966 82.3218 183.112L90.4313 245.155L175.392 251.829L187.759 191.399C187.984 190.273 187.301 189.158 186.34 189.088L117.028 183.65Z" fill="#BFBFBF" stroke="#263238" stroke-width="0.64" stroke-linecap="round" stroke-linejoin="round"/>
<path d="M188.72 195.612L186.731 205.453L176.692 254.518C176.45 255.395 176.023 256.13 175.477 256.608C174.931 257.087 174.296 257.283 173.668 257.167L91.7972 250.743C91.1654 250.757 90.5478 250.461 90.038 249.9C89.5283 249.34 89.1542 248.544 88.9725 247.635L82.0433 194.576L81.0752 187.156C80.9227 186.01 81.6852 185.004 82.6467 185.084L187.301 193.301C188.263 193.381 188.952 194.497 188.72 195.612Z" fill="white"/>
<mask id="mask5_25_14" style="mask-type:luminance" maskUnits="userSpaceOnUse" x="81" y="185" width="108" height="73">
<path d="M188.72 195.612L186.731 205.453L176.692 254.518C176.45 255.395 176.023 256.13 175.477 256.608C174.931 257.087 174.296 257.283 173.668 257.167L91.7972 250.743C91.1654 250.757 90.5478 250.461 90.038 249.9C89.5283 249.34 89.1542 248.544 88.9725 247.635L82.0433 194.576L81.0752 187.156C80.9227 186.01 81.6852 185.004 82.6467 185.084L187.301 193.301C188.263 193.381 188.952 194.497 188.72 195.612Z" fill="white"/>
</mask>
<g mask="url(#mask5_25_14)">
<path opacity="0.4" d="M186.704 205.453L176.665 254.518C176.423 255.395 175.997 256.13 175.451 256.608C174.904 257.087 174.269 257.283 173.641 257.167L91.7706 250.743C91.1388 250.757 90.5211 250.461 90.0114 249.9C89.5016 249.34 89.1275 248.544 88.9458 247.635L82.0166 194.576L186.704 205.453Z" fill="#92E3A9"/>
</g>
<path d="M188.72 195.612L186.731 205.453L176.692 254.518C176.45 255.395 176.023 256.13 175.477 256.608C174.931 257.087 174.296 257.283 173.668 257.167L91.7972 250.743C91.1654 250.757 90.5478 250.461 90.038 249.9C89.5283 249.34 89.1542 248.544 88.9725 247.635L82.0433 194.576L81.0752 187.156C80.9227 186.01 81.6852 185.004 82.6467 185.084L187.301 193.301C188.263 193.381 188.952 194.497 188.72 195.612Z" stroke="#263238" stroke-width="0.64" stroke-linecap="round" stroke-linejoin="round"/>
<path d="M115.516 199.536L114.747 197.405C114.474 196.771 114.097 196.254 113.652 195.904C113.207 195.555 112.709 195.386 112.207 195.413H96.1007C95.7191 195.351 95.3364 195.515 95.0342 195.87C94.732 196.225 94.5341 196.744 94.4827 197.315V199.487H81.672C80.6906 199.487 79.9546 200.542 80.1469 201.678L90.5971 262.805H177.355L187.805 201.678C187.997 200.542 187.261 199.487 186.28 199.487L115.516 199.536Z" fill="#BFBFBF" stroke="#263238" stroke-width="0.64" stroke-linecap="round" stroke-linejoin="round"/>
<path d="M175.75 268.492H92.2016C90.7561 268.492 89.5028 267.287 89.2177 265.624L79.0063 206.031C78.8073 204.895 79.5433 203.839 80.5313 203.839H187.42C188.408 203.839 189.144 204.895 188.945 206.031L178.76 265.624C178.475 267.287 177.222 268.492 175.75 268.492Z" fill="white" stroke="#263238" stroke-width="0.64" stroke-linecap="round" stroke-linejoin="round"/>
<path d="M115.158 214.049L114.342 211.927C114.056 211.299 113.667 210.79 113.214 210.45C112.76 210.11 112.256 209.95 111.749 209.985H95.3713C94.9853 209.917 94.5969 210.077 94.2885 210.432C93.9802 210.788 93.7763 211.31 93.7202 211.887V214.049H80.6641C79.6562 214.049 78.907 215.105 79.1059 216.24L89.7616 277.178H178.19L188.846 216.21C189.045 215.075 188.296 214.019 187.288 214.019L115.158 214.049Z" fill="#BFBFBF" stroke="#263238" stroke-width="0.64" stroke-linecap="round" stroke-linejoin="round"/>
<path d="M176.586 282.945H91.3664C89.8943 282.945 88.6212 281.74 88.3294 280.076L77.9389 220.672C77.7466 219.537 78.4959 218.481 79.4972 218.481H188.455C189.456 218.481 190.205 219.537 190.013 220.672L179.623 280.076C179.331 281.779 178.058 282.945 176.586 282.945Z" fill="white" stroke="#263238" stroke-width="0.64" stroke-linecap="round" stroke-linejoin="round"/>
<path d="M193.898 351.632H74.0528L47.8213 239.886H220.13L193.898 351.632Z" fill="#92E3A9"/>
<mask id="mask6_25_14" style="mask-type:luminance" maskUnits="userSpaceOnUse" x="47" y="239" width="174" height="113">
<path d="M193.898 351.642H74.0528L47.8213 239.896H220.13L193.898 351.642Z" fill="white"/>
</mask>
<g mask="url(#mask6_25_14)">
<path opacity="0.3" d="M193.898 351.632H74.0528L47.8213 239.886H220.13L193.898 351.632Z" fill="black" fill-opacity="0.7"/>
</g>
<path d="M193.898 351.632H74.0528L47.8213 239.886H220.13L193.898 351.632Z" stroke="#263238" stroke-width="0.64" stroke-linecap="round" stroke-linejoin="round"/>
<path d="M217.849 225.185H50.1023L47.8213 239.886H220.13L217.849 225.185Z" fill="#92E3A9" stroke="#263238" stroke-width="0.64" stroke-linecap="round" stroke-linejoin="round"/>
<path d="M92.3805 291.082L90.6963 314.938H177.248L175.571 291.082H171.752L172.839 308.115H95.1058L96.1999 291.082H92.3805Z" fill="#BFBFBF" stroke="#263238" stroke-width="0.64" stroke-linecap="round" stroke-linejoin="round"/>
<path d="M176.599 320.426H91.3527L90.6963 314.938H177.248L176.599 320.426Z" fill="#757575" stroke="#263238" stroke-width="0.64" stroke-linecap="round" stroke-linejoin="round"/>
<path d="M171.752 291.082L171.215 297.407L171.752 308.115H172.839L171.752 291.082Z" fill="#757575" stroke="#263238" stroke-width="0.64" stroke-linecap="round" stroke-linejoin="round"/>
<path d="M96.2 291.082L96.7305 297.407L96.2 308.115H95.106L96.2 291.082Z" fill="#757575" stroke="#263238" stroke-width="0.64" stroke-linecap="round" stroke-linejoin="round"/>
<path d="M161.859 279.12H106.087L103.428 258.87H164.524L161.859 279.12Z" fill="white" stroke="#263238" stroke-width="0.64" stroke-linecap="round" stroke-linejoin="round"/>
<path d="M137.709 83.2689L137.165 80.9282C136.989 80.2615 136.694 79.6803 136.313 79.2482C135.932 78.8161 135.479 78.5496 135.003 78.478L120.256 75.6193C119.89 75.514 119.511 75.6309 119.201 75.9444C118.892 76.258 118.678 76.7427 118.605 77.2927L118.413 79.5338L106.663 77.2628C106.468 77.2013 106.266 77.2068 106.072 77.2789C105.878 77.3511 105.698 77.488 105.544 77.6795C105.391 77.871 105.268 78.1122 105.185 78.3849C105.102 78.6577 105.061 78.9551 105.065 79.2549L109.249 144.137L188.819 159.546L203.818 98.3788C203.872 98.0911 203.882 97.7889 203.848 97.4944C203.814 97.2 203.736 96.9209 203.62 96.678C203.504 96.435 203.353 96.2343 203.178 96.0908C203.004 95.9472 202.81 95.8646 202.611 95.8489L137.709 83.2689Z" fill="white"/>
<mask id="mask7_25_14" style="mask-type:luminance" maskUnits="userSpaceOnUse" x="105" y="75" width="99" height="85">
<path d="M137.709 83.2689L137.165 80.9282C136.989 80.2615 136.694 79.6803 136.313 79.2482C135.932 78.8161 135.479 78.5496 135.003 78.478L120.256 75.6193C119.89 75.514 119.511 75.6309 119.201 75.9444C118.892 76.258 118.678 76.7427 118.605 77.2927L118.413 79.5338L106.663 77.2628C106.468 77.2013 106.266 77.2068 106.072 77.2789C105.878 77.3511 105.698 77.488 105.544 77.6795C105.391 77.871 105.268 78.1122 105.185 78.3849C105.102 78.6577 105.061 78.9551 105.065 79.2549L109.249 144.137L188.819 159.546L203.818 98.3788C203.872 98.0911 203.882 97.7889 203.848 97.4944C203.814 97.2 203.736 96.9209 203.62 96.678C203.504 96.435 203.353 96.2343 203.178 96.0908C203.004 95.9472 202.81 95.8646 202.611 95.8489L137.709 83.2689Z" fill="white"/>
</mask>
<g mask="url(#mask7_25_14)">
<path opacity="0.4" d="M137.709 83.2689L137.165 80.9282C136.989 80.2615 136.694 79.6803 136.313 79.2482C135.932 78.8161 135.479 78.5496 135.003 78.478L120.256 75.6193C119.89 75.514 119.511 75.6309 119.201 75.9444C118.892 76.258 118.678 76.7427 118.605 77.2927L118.413 79.5338L106.663 77.2628C106.468 77.2013 106.266 77.2068 106.072 77.2789C105.878 77.3511 105.698 77.488 105.544 77.6795C105.391 77.871 105.268 78.1122 105.185 78.3849C105.102 78.6577 105.061 78.9551 105.065 79.2549L109.249 144.137L188.819 159.546L203.818 98.3788C203.872 98.0911 203.882 97.7889 203.848 97.4944C203.814 97.2 203.736 96.9209 203.62 96.678C203.504 96.435 203.353 96.2343 203.178 96.0908C203.004 95.9472 202.81 95.8646 202.611 95.8489L137.709 83.2689Z" fill="#92E3A9"/>
</g>
<path d="M137.709 83.2689L137.165 80.9282C136.989 80.2615 136.694 79.6803 136.313 79.2482C135.932 78.8161 135.479 78.5496 135.003 78.478L120.256 75.6193C119.89 75.514 119.511 75.6309 119.201 75.9444C118.892 76.258 118.678 76.7427 118.605 77.2927L118.413 79.5338L106.663 77.2628C106.468 77.2013 106.266 77.2068 106.072 77.2789C105.878 77.3511 105.698 77.488 105.544 77.6795C105.391 77.871 105.268 78.1122 105.185 78.3849C105.102 78.6577 105.061 78.9551 105.065 79.2549L109.249 144.137L188.819 159.546L203.818 98.3788C203.872 98.0911 203.882 97.7889 203.848 97.4944C203.814 97.2 203.736 96.9209 203.62 96.678C203.504 96.435 203.353 96.2343 203.178 96.0908C203.004 95.9472 202.81 95.8646 202.611 95.8489L137.709 83.2689Z" stroke="#263238" stroke-width="0.64" stroke-linecap="round" stroke-linejoin="round"/>
<path d="M204.581 102.054L191.001 157.444L189.953 161.707C189.708 162.557 189.28 163.258 188.738 163.699C188.196 164.14 187.571 164.294 186.963 164.137L110.277 149.276C109.663 149.195 109.085 148.807 108.635 148.173C108.185 147.539 107.89 146.696 107.798 145.78L103.72 82.5318C103.715 82.232 103.756 81.9346 103.839 81.6618C103.922 81.3891 104.045 81.1479 104.198 80.9564C104.352 80.7649 104.533 80.628 104.726 80.5558C104.92 80.4837 105.122 80.4782 105.318 80.5397L170.578 93.1794L203.374 99.5242C203.573 99.5399 203.767 99.6226 203.941 99.7661C204.116 99.9096 204.267 100.11 204.383 100.353C204.499 100.596 204.577 100.875 204.611 101.17C204.645 101.464 204.635 101.766 204.581 102.054Z" fill="white"/>
<mask id="mask8_25_14" style="mask-type:luminance" maskUnits="userSpaceOnUse" x="103" y="80" width="102" height="85">
<path d="M204.581 102.054L191.001 157.444L189.953 161.707C189.708 162.557 189.28 163.258 188.738 163.699C188.196 164.14 187.571 164.294 186.963 164.137L110.277 149.276C109.663 149.195 109.085 148.807 108.635 148.173C108.185 147.539 107.89 146.696 107.798 145.78L103.72 82.5318C103.715 82.232 103.756 81.9346 103.839 81.6618C103.922 81.3891 104.045 81.1479 104.198 80.9564C104.352 80.7649 104.533 80.628 104.726 80.5558C104.92 80.4837 105.122 80.4782 105.318 80.5397L170.578 93.1794L203.374 99.5242C203.573 99.5399 203.767 99.6226 203.941 99.7661C204.116 99.9096 204.267 100.11 204.383 100.353C204.499 100.596 204.577 100.875 204.611 101.17C204.645 101.464 204.635 101.766 204.581 102.054Z" fill="white"/>
</mask>
<g mask="url(#mask8_25_14)">
<path opacity="0.3" d="M204.581 102.054L191.001 157.444C181.38 154.027 181.015 145.023 179.404 140.362C177.627 135.222 166.361 132.493 163.211 131.666C160.062 130.84 158.145 126.049 158.145 126.049C155.307 114.096 170.121 103.638 170.121 103.638C169.829 101.994 170.26 96.6058 170.572 93.1993L203.368 99.5441C203.566 99.5591 203.759 99.6404 203.933 99.7821C204.107 99.9239 204.258 100.122 204.374 100.363C204.491 100.604 204.57 100.881 204.605 101.173C204.641 101.466 204.633 101.767 204.581 102.054Z" fill="black" fill-opacity="0.7"/>
</g>
<path d="M204.581 102.054L191.001 157.444L189.953 161.707C189.708 162.557 189.28 163.258 188.738 163.699C188.196 164.14 187.571 164.294 186.963 164.137L110.277 149.276C109.663 149.195 109.085 148.807 108.635 148.173C108.185 147.539 107.89 146.696 107.798 145.78L103.72 82.5318C103.715 82.232 103.756 81.9346 103.839 81.6618C103.922 81.3891 104.045 81.1479 104.198 80.9564C104.352 80.7649 104.533 80.628 104.726 80.5558C104.92 80.4837 105.122 80.4782 105.318 80.5397L170.578 93.1794L203.374 99.5242C203.573 99.5399 203.767 99.6226 203.941 99.7661C204.116 99.9096 204.267 100.11 204.383 100.353C204.499 100.596 204.577 100.875 204.611 101.17C204.645 101.464 204.635 101.766 204.581 102.054Z" stroke="#263238" stroke-width="0.64" stroke-linecap="round" stroke-linejoin="round"/>
<path d="M118.142 99.5741L119.189 138.708L128.632 140.551L129.739 101.536L118.142 99.5741Z" fill="#92E3A9" stroke="#263238" stroke-width="0.64" stroke-linecap="round" stroke-linejoin="round"/>
<path d="M123.904 135.84C124.024 135.148 124.045 134.425 123.966 133.72C123.887 133.014 123.71 132.342 123.446 131.746C122.91 130.563 122.264 129.5 121.53 128.589C122.626 129.532 123.836 130.135 125.091 130.362C125.091 128.32 123.764 126.905 122.631 125.83C122.89 125.678 123.169 125.616 123.446 125.647C123.724 125.678 123.993 125.802 124.235 126.009C124.252 125.692 124.218 125.374 124.136 125.082C124.054 124.789 123.927 124.53 123.764 124.326C123.91 124.515 124.136 124.216 124.129 123.937C124.094 123.657 124.014 123.394 123.897 123.17C123.719 122.567 123.648 121.905 123.691 121.248C123.691 118.907 123.738 116.557 123.758 114.216C123.78 114.43 123.843 114.63 123.94 114.791C124.036 114.952 124.162 115.067 124.301 115.122C124.301 114.196 124.229 113.27 124.169 112.343C124.023 110.003 123.877 107.652 123.725 105.311" stroke="#263238" stroke-width="0.64" stroke-linecap="round" stroke-linejoin="round"/>
<path d="M273.886 226.848C273.886 226.848 220.375 154.934 216.967 150.402C213.559 145.87 211.066 146.069 209.229 143.31C207.392 140.551 206.471 138.589 198.998 138.778C191.525 138.967 181.552 132.872 179.324 130.7C177.096 128.529 173.946 130.113 171.844 128.887C169.742 127.662 164.371 128.738 161.089 128.887C157.807 129.037 157.548 124.007 158.861 118.29C160.174 112.572 170.134 109.036 171.46 110.212C172.786 111.387 178.018 108.05 178.018 108.05C177.229 103.907 177.494 93.8568 177.494 93.8568C177.494 93.8568 171.984 90.3109 169.888 89.1356C168.274 88.4042 166.582 88.1372 164.902 88.3487C164.902 88.3487 165.565 83.8267 166.606 82.1434C167.647 80.4601 172.64 78.8863 177.494 73.7667C182.348 68.6471 185.365 67.4618 186.114 67.8502C186.863 68.2387 192.281 70.6092 193.726 70.6092C195.172 70.6092 197.267 68.6172 199.362 69.2347C201.458 69.8523 205.264 74.7528 206.968 75.3404C208.672 75.9281 209.196 76.466 211.43 76.466C212.412 76.466 216.417 80.8585 216.417 80.8585C218.094 81.3395 219.724 82.1325 221.271 83.2191C223.757 84.9921 226.383 93.4683 227.563 96.2274C228.744 98.9864 228.889 105.68 228.889 105.68C228.889 105.68 232.039 108.24 233.219 111.785C234.4 115.331 277.865 150.402 277.865 150.402C277.865 150.402 284.714 190.732 273.886 226.848Z" fill="white"/>
<path opacity="0.4" d="M235.786 175.622C226.198 162.733 218.241 152.055 216.994 150.402C213.579 145.87 211.093 146.069 209.256 143.31C207.419 140.551 206.497 138.589 199.025 138.778C191.552 138.967 181.579 132.872 179.351 130.7C177.123 128.529 173.973 130.113 171.871 128.887C169.769 127.662 164.398 128.738 161.116 128.887C157.834 129.037 157.575 124.007 158.888 118.29C160.201 112.572 170.161 109.036 171.487 110.212C172.813 111.387 178.045 108.05 178.045 108.05C177.256 103.907 177.521 93.8568 177.521 93.8568C177.521 93.8568 172.011 90.3109 169.915 89.1356C168.301 88.4042 166.609 88.1372 164.929 88.3487C164.929 88.3487 165.592 83.8267 166.633 82.1434C167.674 80.4601 172.667 78.8863 177.521 73.7667C182.375 68.6471 185.392 67.4618 186.141 67.8502C186.89 68.2387 192.307 70.6092 193.753 70.6092C194.847 70.6092 196.326 69.4738 197.897 69.1849C196.624 70.2507 195.742 72.2826 195.981 73.3683C196.359 75.0815 197.426 79.4441 197.486 79.723C197.201 79.3047 190.325 69.1052 185.882 69.6331C182.043 70.0813 178.144 79.7927 178.801 86.9244C179.457 94.056 177.866 94.056 178.728 99.3748C179.59 104.694 180.372 112.184 179.059 115.142C177.746 118.1 175.127 112.841 175.127 112.841C174.144 113.652 173.319 114.837 172.737 116.278C172.155 117.719 171.836 119.364 171.812 121.049C171.812 126.766 175.79 127.154 178.137 127.752C180.485 128.35 189.145 135.471 195.059 135.85L200.974 136.218C200.974 136.218 197.559 129.246 198.985 128.887C200.41 128.529 204.754 129.166 207.605 135.86C210.456 142.553 212.644 144.037 217.929 147.324C221.052 149.207 229.288 162.564 235.786 175.622Z" fill="#92E3A9"/>
<path opacity="0.4" d="M261.991 137.423C261.188 136.856 235.467 118.648 234.174 115.929C232.881 113.21 231.29 112.542 229.844 109.803C228.399 107.064 223.552 105.291 222.895 101.546C222.239 97.8011 221.45 86.4363 220.243 85.0319C219.251 83.9385 218.2 82.9723 217.1 82.1433L219.049 89.4443C219.049 89.4443 214.607 79.9919 213.553 79.7329C212.498 79.474 214.693 86.6056 214.501 86.3865C214.308 86.1673 209.494 79.4142 205.463 74.2946C205.941 74.7282 206.457 75.0632 206.995 75.2906C208.705 75.8783 209.223 76.4161 211.457 76.4161C212.439 76.4161 216.444 80.8087 216.444 80.8087C218.12 81.2897 219.751 82.0827 221.297 83.1693C223.784 84.9422 226.41 93.4185 227.59 96.1775C228.77 98.9366 228.916 105.63 228.916 105.63C228.916 105.63 232.066 108.19 233.246 111.736C233.956 113.887 249.465 127.045 261.991 137.423Z" fill="#92E3A9"/>
<path d="M273.886 226.848C273.886 226.848 220.375 154.934 216.967 150.402C213.559 145.87 211.066 146.069 209.229 143.31C207.392 140.551 206.471 138.589 198.998 138.778C191.525 138.967 181.552 132.872 179.324 130.7C177.096 128.529 173.946 130.113 171.844 128.887C169.742 127.662 164.371 128.738 161.089 128.887C157.807 129.037 157.548 124.007 158.861 118.29C160.174 112.572 170.134 109.036 171.46 110.212C172.786 111.387 178.018 108.05 178.018 108.05C177.229 103.907 177.494 93.8568 177.494 93.8568C177.494 93.8568 171.984 90.3109 169.888 89.1356C168.274 88.4042 166.582 88.1372 164.902 88.3487C164.902 88.3487 165.565 83.8267 166.606 82.1434C167.647 80.4601 172.64 78.8863 177.494 73.7667C182.348 68.6471 185.365 67.4618 186.114 67.8502C186.863 68.2387 192.281 70.6092 193.726 70.6092C195.172 70.6092 197.267 68.6172 199.362 69.2347C201.458 69.8523 205.264 74.7528 206.968 75.3404C208.672 75.9281 209.196 76.466 211.43 76.466C212.412 76.466 216.417 80.8585 216.417 80.8585C218.094 81.3395 219.724 82.1325 221.271 83.2191C223.757 84.9921 226.383 93.4683 227.563 96.2274C228.744 98.9864 228.889 105.68 228.889 105.68C228.889 105.68 232.039 108.24 233.219 111.785C234.4 115.331 277.865 150.402 277.865 150.402" stroke="#263238" stroke-width="0.64" stroke-linecap="round" stroke-linejoin="round"/>
<path d="M177.514 93.8568C177.514 93.8568 178.124 86.1076 177.514 85.0319" stroke="#263238" stroke-width="0.64" stroke-linecap="round" stroke-linejoin="round"/>
<path d="M193.687 74.8822C193.687 74.8822 202.612 86.2271 203.308 86.9243" stroke="#263238" stroke-width="0.64" stroke-linecap="round" stroke-linejoin="round"/>
<path d="M202.068 71.0674C203.295 72.2128 213.188 85.3904 216.424 88.4084" stroke="#263238" stroke-width="0.64" stroke-linecap="round" stroke-linejoin="round"/>
<path d="M228.93 105.65C227.968 104.803 225.429 102.961 225.17 101.516" stroke="#263238" stroke-width="0.64" stroke-linecap="round" stroke-linejoin="round"/>
<path d="M178.038 108.05C178.038 108.05 178.561 111.267 178.038 112.841" stroke="#263238" stroke-width="0.64" stroke-linecap="round" stroke-linejoin="round"/>
<path d="M170.167 118.23C170.167 118.23 168.947 123.349 171.831 126.766" stroke="#263238" stroke-width="0.64" stroke-linecap="round" stroke-linejoin="round"/>
<path d="M182.063 69.6332C181.143 71.0807 180.533 72.9091 180.312 74.8823" stroke="#263238" stroke-width="0.64" stroke-linecap="round" stroke-linejoin="round"/>
<path d="M168.456 85.0319C168.746 86.2182 169.199 87.2992 169.787 88.2038C170.374 89.1084 171.082 89.8163 171.864 90.281" stroke="#263238" stroke-width="0.64" stroke-linecap="round" stroke-linejoin="round"/>
<path d="M207.678 141.119C205.973 137.405 204.098 133.874 202.068 130.551" stroke="#263238" stroke-width="0.64" stroke-linecap="round" stroke-linejoin="round"/>
<path d="M24.229 403.774C24.229 403.774 67.0642 361.482 69.6833 356.024C71.0277 353.08 72.614 350.403 74.4045 348.056C74.4045 348.056 75.6312 332.289 78.7808 324.151C81.9305 316.013 83.1506 309.957 84.5497 305.754C85.9488 301.551 92.5929 298.403 94.4959 296.79C96.3989 295.176 99.7475 292.059 101.67 292.059C103.139 292.235 104.567 292.862 105.868 293.901C105.868 293.901 112.339 288.921 115.31 292.059C115.31 292.059 122.657 292.586 124.401 292.318C126.145 292.049 128.777 293.901 128.777 293.901C128.777 293.901 133.147 289.18 136.118 291.013C139.088 292.845 140.507 293.632 140.587 296.262C140.666 298.891 139.851 307.816 139.851 307.816H138.392C138.392 307.816 133.498 317.388 132.975 319.3C132.451 321.213 129.659 331.721 129.659 331.721C129.659 331.721 133.326 327.518 135.627 324.37C137.928 321.223 141.926 315.177 146.124 313.603C150.321 312.029 153.291 315.545 153.291 319.3C153.291 319.3 148.398 325.157 147.324 327C146.25 328.842 144.38 333.563 142.271 336.96C140.162 340.356 135.302 354.66 131.072 361.482C126.841 368.305 108.527 383.017 104.31 385.118C104.31 385.118 78.7808 411.912 67.588 434.502C67.588 434.502 37.1658 434.771 24.229 403.774Z" fill="white"/>
<path opacity="0.4" d="M107.287 379.341C107.651 379.899 109.143 380.238 111.265 380.337C109.019 382.15 106.703 383.76 104.329 385.158C104.329 385.158 87.633 402.679 75.3262 421.334C79.5633 411.205 87.6993 398.565 90.723 395.935C94.9335 392.25 103.023 380.357 103.023 380.357C103.023 380.357 106.073 377.499 107.287 379.341Z" fill="#92E3A9"/>
<path opacity="0.4" d="M135.613 324.44C137.404 321.795 139.324 319.355 141.356 317.139C139.198 320.697 137.441 324.761 136.157 329.171C135.348 335.775 127.763 349.391 127.763 349.391C130.209 337.578 128.107 335.207 128.797 331.791C129.487 328.374 129.931 319.997 129.931 319.997C129.931 319.997 131.257 316.561 132.656 315.774C134.055 314.987 137.729 301.063 138.412 299.18C139.095 297.298 133.883 294.2 132.484 293.971C131.085 293.742 130.561 297.377 127.763 299.18C124.964 300.983 121.45 304.29 120.157 306.222C118.864 308.155 116.616 316.701 116.47 317.228C116.57 316.631 118.155 307.039 118.566 305.127C118.91 303.533 122.272 300.595 123.519 299.549C121.45 300.993 120.29 298.254 118.566 295.764C116.716 293.094 113.957 292.248 110.94 293.632C107.923 295.017 105.901 298.433 105.887 298.174C105.874 297.915 101.379 296.73 99.9197 297.377C98.4609 298.025 95.0925 300.316 95.0925 300.316C95.0925 300.316 92.029 297.666 86.9962 305.127C84.8943 308.244 77.8987 332.02 78.9464 329.171C79.9941 326.322 84.5627 317.816 84.8479 317.288C84.5428 318.404 75.2663 349.679 73.3699 351.671C71.4735 353.664 70.9231 360.716 64.0867 366.503C57.6018 371.991 32.5903 395.607 30.1104 397.947C41.9729 386.105 67.6674 360.217 69.6566 356.024C71.001 353.08 72.5873 350.403 74.3778 348.056C74.3778 348.056 75.6045 332.289 78.7541 324.151C81.9038 316.013 83.1238 309.957 84.5229 305.754C85.922 301.551 92.5661 298.403 94.4692 296.79C96.3722 295.176 99.7208 292.059 101.644 292.059C103.112 292.235 104.541 292.862 105.841 293.901C105.841 293.901 112.313 288.921 115.283 292.059C115.283 292.059 122.63 292.586 124.374 292.318C126.118 292.049 128.751 293.901 128.751 293.901C128.751 293.901 133.12 289.18 136.091 291.013C139.062 292.845 140.481 293.632 140.56 296.262C140.64 298.891 139.824 307.816 139.824 307.816H138.365C138.365 307.816 133.472 317.388 132.948 319.3C132.424 321.213 129.632 331.721 129.632 331.721C129.632 331.721 133.313 327.587 135.613 324.44Z" fill="#92E3A9"/>
<path opacity="0.4" d="M153.278 319.37C153.278 319.37 148.385 325.227 147.311 327.069C146.681 328.175 145.746 330.326 144.658 332.607C145.204 329.945 145.579 327.21 145.779 324.44C146.81 322.18 148.274 320.443 149.976 319.46C151.051 318.984 152.181 318.855 153.292 319.081C153.293 319.178 153.289 319.274 153.278 319.37Z" fill="#92E3A9"/>
<path d="M24.229 403.774C24.229 403.774 67.0642 361.482 69.6833 356.024C71.0277 353.08 72.614 350.403 74.4045 348.056C74.4045 348.056 75.6312 332.289 78.7808 324.151C81.9305 316.013 83.1506 309.957 84.5497 305.754C85.9488 301.551 92.5929 298.403 94.4959 296.79C96.3989 295.176 99.7475 292.059 101.67 292.059C103.139 292.235 104.567 292.862 105.868 293.901C105.868 293.901 112.339 288.921 115.31 292.059C115.31 292.059 122.657 292.586 124.401 292.318C126.145 292.049 128.777 293.901 128.777 293.901C128.777 293.901 133.147 289.18 136.118 291.013C139.088 292.845 140.507 293.632 140.587 296.262C140.666 298.891 139.851 307.816 139.851 307.816H138.392C138.392 307.816 133.498 317.388 132.975 319.3C132.451 321.213 129.659 331.721 129.659 331.721C129.659 331.721 133.326 327.518 135.627 324.37C137.928 321.223 141.926 315.177 146.124 313.603C150.321 312.029 153.291 315.545 153.291 319.3C153.291 319.3 148.398 325.157 147.324 327C146.25 328.842 144.38 333.564 142.271 336.96C140.162 340.356 135.302 354.66 131.072 361.482C126.841 368.305 108.527 383.017 104.31 385.118C104.31 385.118 78.7808 411.912 67.588 434.502" stroke="#263238" stroke-width="0.64" stroke-linecap="round" stroke-linejoin="round"/>
<path d="M129.672 331.751C129.672 331.751 130.72 339.639 128.618 346.691" stroke="#263238" stroke-width="0.64" stroke-linecap="round" stroke-linejoin="round"/>
<path d="M122.85 300.007C125.047 298.504 127.064 296.465 128.817 293.971" stroke="#263238" stroke-width="0.64" stroke-linecap="round" stroke-linejoin="round"/>
<path d="M138.412 307.846C138.977 306.108 139.361 304.25 139.553 302.338" stroke="#263238" stroke-width="0.64" stroke-linecap="round" stroke-linejoin="round"/>
<path d="M115.33 292.128C113.203 292.058 111.127 293.116 109.468 295.116" stroke="#263238" stroke-width="0.64" stroke-linecap="round" stroke-linejoin="round"/>
<path d="M105.888 293.971C105.888 293.971 100.643 297.646 98.8062 297.646C96.9694 297.646 93.9922 301.322 93.9922 302.378" stroke="#263238" stroke-width="0.64" stroke-linecap="round" stroke-linejoin="round"/>
<path d="M74.4043 348.086C75.9534 344.509 77.2175 340.671 78.1706 336.651" stroke="#263238" stroke-width="0.64" stroke-linecap="round" stroke-linejoin="round"/>
<path d="M123.983 302.377C123.983 302.377 120.668 303.682 119.527 307.886C118.387 312.089 113.142 326.671 113.142 326.671" stroke="#263238" stroke-width="0.64" stroke-linecap="round" stroke-linejoin="round"/>
<path d="M107.287 300.007C106.584 302.507 98.7134 324.44 98.7134 324.44" stroke="#263238" stroke-width="0.64" stroke-linecap="round" stroke-linejoin="round"/>
</g>
<defs>
<clipPath id="clip0_25_14">
<rect width="280" height="435" fill="white"/>
</clipPath>
</defs>
</svg>
