<svg width="193" height="212" viewBox="0 0 173 192" fill="none" xmlns="http://www.w3.org/2000/svg">
<path d="M52.6595 108.214C52.1822 108.737 56.0625 115.03 57.6262 118.998C59.1893 122.966 66.97 141.404 73.5839 141.525C80.1979 141.645 85.2487 138.638 89.5778 132.506C93.9069 126.373 101.122 93.9039 101.122 93.9039L89.3372 82.1189L75.7485 120.48C75.7485 120.48 64.772 106.864 62.5637 105.375C60.3555 103.885 52.6595 108.214 52.6595 108.214Z" fill="#C7C7C7"/>
<path d="M162.626 165.643L159.645 143.482L97.7309 145.226C97.7309 145.226 92.3435 177.402 92.6165 190.776H128.406L128.705 186.294L130.614 186.708C130.614 186.708 131.057 188.503 131.563 190.776L166.278 190.84L162.626 165.643Z" fill="#263238"/>
<path d="M98.6655 107.989L80.6279 101.841C80.6279 101.841 90.5224 62.7241 104.327 62.7241L98.6655 107.989Z" fill="#92E3A9"/>
<path d="M156.868 119.749L154.727 61.1821C151.348 59.64 136.889 57.7839 136.889 57.7839L118.076 60.4307L102.404 63.1174L98.2014 103.119L96.4316 158.446C116.568 165.876 141.136 163.373 162.744 157.878L156.868 119.749Z" fill="#92E3A9"/>
<g opacity="0.3">
<path d="M121.125 86.2258C121.125 86.2258 131.635 108.582 140.954 116.887C150.274 125.191 157.985 127.002 157.985 127.002L156.867 119.749L121.125 86.2258Z" fill="black"/>
</g>
<path d="M98.712 78.2466C98.7897 78.2498 98.6057 84.3632 98.3015 91.9001C97.9973 99.4391 97.6877 105.547 97.6106 105.543C97.5329 105.54 97.7168 99.4277 98.021 91.8887C98.3247 84.3519 98.6343 78.2433 98.712 78.2466Z" fill="#263238"/>
<path d="M151.044 60.1631C151.044 60.1631 167.708 61.6523 169.926 79.0281C170.951 87.0639 172.848 99.7519 172.848 99.7519L156.479 101.181L154.221 99.5081C152.964 95.755 150.786 88.0181 151.091 87.7424C151.506 87.3686 151.044 60.1631 151.044 60.1631Z" fill="#92E3A9"/>
<path d="M115.152 136.305C115.14 136.29 115.4 136.087 115.879 135.733C116.357 135.378 117.061 134.881 117.941 134.282C119.7 133.082 122.179 131.494 125 129.881C127.824 128.27 130.451 126.94 132.379 126.035C133.342 125.582 134.127 125.228 134.676 124.997C135.224 124.764 135.53 124.643 135.538 124.661C135.546 124.678 135.255 124.832 134.722 125.096C134.147 125.381 133.386 125.758 132.465 126.214C130.564 127.163 127.957 128.517 125.14 130.125C122.324 131.734 119.834 133.291 118.05 134.447C117.19 135.008 116.479 135.472 115.941 135.823C115.444 136.148 115.163 136.321 115.152 136.305Z" fill="#263238"/>
<path d="M124.503 133.149C124.485 133.119 124.955 132.789 125.762 132.333C126.568 131.877 127.72 131.31 129.044 130.805C130.368 130.303 131.607 129.962 132.513 129.768C133.419 129.572 133.989 129.507 133.996 129.542C134.004 129.583 133.448 129.717 132.56 129.96C131.672 130.203 130.456 130.57 129.144 131.067C127.833 131.566 126.679 132.1 125.855 132.508C125.029 132.916 124.525 133.185 124.503 133.149Z" fill="#263238"/>
<path d="M153.322 98.9137C153.244 98.9093 153.459 93.6471 153.802 87.1615C154.144 80.6732 154.484 75.4191 154.562 75.4229C154.64 75.4272 154.425 80.6883 154.082 87.1761C153.74 93.6622 153.399 98.9174 153.322 98.9137Z" fill="#263238"/>
<path d="M100.665 25.8549C98.6679 26.6694 96.1511 25.9099 94.938 24.1267C94.5734 23.59 94.315 22.952 94.3652 22.3047C94.4148 21.6574 94.8269 21.0145 95.4488 20.8279C94.4639 20.4627 93.6014 19.7221 93.1909 18.7555C92.7805 17.7884 92.8657 16.6018 93.4968 15.7619C94.1273 14.9221 95.3134 14.51 96.2994 14.8709C96.0017 13.7759 96.4014 12.5235 97.2784 11.8034L102.022 11.7063L100.665 25.8549Z" fill="#DFED8D"/>
<path d="M116.733 61.0651L115.907 57.853C115.907 57.853 106.143 58.6837 103.734 49.307C102.57 44.7783 100.933 35.2576 99.552 26.6237C98.0665 17.3408 103.959 8.47549 113.093 6.24891L114 6.02776C123.925 4.21381 131.009 11.6287 132.548 21.6004L137.635 58.1324L122.662 69.3905L116.733 61.0651Z" fill="#C7C7C7"/>
<path d="M116 57.5961C116 57.5961 122.05 56.649 127.629 52C127.629 52 126.207 58.5492 116.615 59.9905L116 57.5961Z" fill="#C7C7C7"/>
<path d="M104.442 35.8011C104.59 36.5164 105.318 36.9813 106.068 36.8405C106.816 36.6998 107.305 36.0072 107.157 35.292C107.009 34.5767 106.282 34.1113 105.533 34.2515C104.783 34.3923 104.295 35.0859 104.442 35.8011Z" fill="#263238"/>
<path d="M102.696 30.7327C102.905 30.867 103.738 29.8659 105.185 29.5175C106.625 29.1485 107.867 29.6335 107.98 29.4188C108.038 29.3217 107.791 29.0466 107.248 28.8233C106.711 28.5989 105.857 28.4624 104.957 28.6858C104.058 28.9101 103.381 29.4263 103.029 29.8719C102.668 30.3206 102.595 30.6739 102.696 30.7327Z" fill="#263238"/>
<path d="M116.752 33.0408C116.9 33.756 117.628 34.2209 118.377 34.0802C119.126 33.9399 119.615 33.2474 119.467 32.5316C119.319 31.8164 118.591 31.3509 117.842 31.4917C117.092 31.6314 116.604 32.3255 116.752 33.0408Z" fill="#263238"/>
<path d="M116.968 27.5384C117.177 27.6727 118.013 26.6716 119.458 26.3232C120.897 25.9543 122.139 26.4392 122.253 26.224C122.311 26.1269 122.066 25.8518 121.52 25.6285C120.984 25.4041 120.129 25.2676 119.23 25.4909C118.331 25.7153 117.654 26.2315 117.302 26.6765C116.941 27.1263 116.867 27.4796 116.968 27.5384Z" fill="#263238"/>
<path d="M114.336 39.536C114.323 39.4518 113.386 39.5155 111.885 39.6843C111.507 39.7366 111.14 39.7479 111.016 39.5112C110.864 39.2657 110.922 38.8305 110.996 38.3574C111.125 37.38 111.26 36.3552 111.402 35.2813C111.942 30.9106 112.237 27.3529 112.061 27.3324C111.885 27.3124 111.304 30.8384 110.764 35.2095C110.64 36.2851 110.52 37.311 110.407 38.2916C110.37 38.7447 110.246 39.2792 110.569 39.7868C110.736 40.0381 111.055 40.1724 111.307 40.1784C111.561 40.1929 111.77 40.1466 111.955 40.1126C113.44 39.8342 114.35 39.619 114.336 39.536Z" fill="#263238"/>
<path d="M115.687 25.3586C115.997 25.6569 117.246 24.8294 118.904 24.2485C120.552 23.6336 122.04 23.4713 122.088 23.0435C122.105 22.8418 121.717 22.6088 121.033 22.5085C120.354 22.4065 119.382 22.4702 118.391 22.8278C117.4 23.1876 116.613 23.7599 116.156 24.2728C115.695 24.7863 115.546 25.214 115.687 25.3586Z" fill="#263238"/>
<path d="M102.207 26.4198C102.542 26.6863 103.454 26.1027 104.648 25.7947C105.83 25.4451 106.912 25.4764 107.062 25.0757C107.123 24.8842 106.884 24.594 106.365 24.3912C105.853 24.1878 105.061 24.1129 104.245 24.3383C103.429 24.5649 102.788 25.0363 102.453 25.4743C102.112 25.9149 102.056 26.2871 102.207 26.4198Z" fill="#263238"/>
<path d="M99.4055 22.0896C99.4055 22.0896 100.45 15.5948 102.955 13.5279C105.988 11.0257 108.388 14.4389 111.442 12.7242C114.495 11.009 117.388 8.61248 121.355 10.3288C125.696 12.2075 124.453 14.5716 125.697 18.6893C130.74 35.3849 134.996 39.4163 133.932 31.2327C133.815 30.3363 136.069 29.0509 135.529 25.2747C134.828 20.3776 133.596 14.5252 131.701 11.3909C130.104 8.74895 127.99 7.17016 124.534 5.70357C119.077 3.38907 112.716 4.86159 108.514 6.34544C104.312 7.82876 97.2145 14.8106 99.4055 22.0896Z" fill="#263238"/>
<path d="M133.269 31.1231C132.975 29.657 133.946 28.2061 135.426 27.9908C137.221 27.7298 139.416 28.2503 140.184 31.903C141.546 38.3832 134.759 38.4145 134.709 38.2311C134.675 38.1059 133.816 33.8399 133.269 31.1231Z" fill="#C7C7C7"/>
<path d="M135.605 35.4965C135.629 35.4695 135.735 35.552 135.944 35.5989C136.148 35.6448 136.48 35.6367 136.791 35.4387C137.423 35.0439 137.771 33.8357 137.556 32.6609C137.449 32.0676 137.207 31.532 136.901 31.1112C136.603 30.6787 136.227 30.4122 135.869 30.4235C135.509 30.4165 135.309 30.6738 135.268 30.8728C135.219 31.0724 135.288 31.1927 135.256 31.211C135.241 31.231 135.094 31.1312 135.09 30.8529C135.09 30.7186 135.134 30.5497 135.26 30.3933C135.389 30.2337 135.604 30.1215 135.849 30.0967C136.356 30.026 136.903 30.3917 137.24 30.8534C137.605 31.3119 137.89 31.9112 138.011 32.5773C138.244 33.8918 137.833 35.2548 136.952 35.7219C136.521 35.9371 136.113 35.8794 135.884 35.7678C135.65 35.6502 135.585 35.5126 135.605 35.4965Z" fill="#C7C7C7"/>
<path d="M107.918 18.7578C107.902 18.7616 107.889 18.7702 107.874 18.7745C107.836 18.7864 107.797 18.7961 107.76 18.8096L107.918 18.7578Z" fill="#FF5034"/>
<path d="M93.4141 10.407C93.5943 8.63724 94.8715 7.10646 96.4439 6.27473C98.0162 5.44299 99.8474 5.2267 101.626 5.27147C100.953 2.9602 103.144 0.612253 105.513 0.186138C107.883 -0.239977 110.266 0.672123 112.501 1.56643C114.98 -0.805794 119.525 -0.427684 121.578 2.32157C123.081 1.01356 125.297 0.582584 127.18 1.23147C129.064 1.88035 130.544 3.58535 130.922 5.5417C132.516 5.50772 134.096 6.41173 134.873 7.80334C135.652 9.19496 135.595 11.0138 134.732 12.3541C135.963 12.8094 136.825 14.1115 136.765 15.4222C136.704 16.7329 135.725 17.9497 134.458 18.2895L128.884 15.1347C126.417 16.1401 123.244 14.5683 122.55 11.9965C120.751 13.1783 118.233 13.1416 116.47 11.9086C116.299 13.2075 115.447 14.3968 114.272 14.9761C113.097 15.5554 111.635 15.5074 110.5 14.852C110.71 16.6261 109.808 18.4837 108.284 19.4169C106.76 20.35 104.696 20.3085 103.211 19.3155C101.878 21.0124 99.1812 21.4288 97.3975 20.2135C95.6143 18.9983 95.0161 16.3359 96.1078 14.4745C94.3715 14.0894 93.2345 12.1772 93.4141 10.407Z" fill="#DFED8D"/>
<path d="M123.108 13.0074C123.086 13.0182 123.141 13.2118 123.345 13.516C123.548 13.8154 123.916 14.227 124.515 14.5425C125.102 14.8559 125.954 15.0641 126.86 14.8321C127.75 14.6132 128.674 13.9826 129.168 12.981L128.791 13.0489C129.211 13.4492 129.736 13.7669 130.316 13.9583C131.554 14.3634 132.89 14.1822 133.844 13.5716C134.816 12.9653 135.332 12.0176 135.55 11.2215C135.772 10.4092 135.703 9.71607 135.595 9.27108C135.477 8.82285 135.336 8.60655 135.313 8.6168C135.214 8.62651 135.703 9.61628 135.225 11.1233C134.983 11.8472 134.479 12.6827 133.612 13.1935C132.763 13.7124 131.568 13.8618 130.467 13.5009C129.952 13.3305 129.49 13.0527 129.119 12.708L128.881 12.4864L128.742 12.7765C128.331 13.6369 127.532 14.2151 126.754 14.4319C125.967 14.6612 125.208 14.5161 124.651 14.2653C123.511 13.7345 123.172 12.9497 123.108 13.0074Z" fill="#DFED8D"/>
<path d="M119.495 42.2567C119.499 42.3403 118.7 42.3446 117.92 42.8635C117.128 43.3651 116.799 44.0922 116.724 44.055C116.692 44.0426 116.727 43.8398 116.886 43.5518C117.043 43.2648 117.343 42.9045 117.767 42.6283C118.192 42.3538 118.643 42.2265 118.97 42.2006C119.298 42.172 119.498 42.2222 119.495 42.2567Z" fill="#263238"/>
<path d="M113.909 82.2871L112.676 83.9015C111.802 84.3983 111.045 84.0169 110.628 82.916L100.467 64.0483L103.481 62.4819L114.932 80.725C114.932 80.725 115.035 81.6474 113.909 82.2871Z" fill="#455A64"/>
<path d="M88.3351 62.6782C86.1533 61.1825 84.4035 59.0169 83.437 56.3453C82.2465 53.055 82.4084 49.4983 83.8927 46.33C85.3777 43.1616 88.0072 40.7608 91.2974 39.5704C98.0894 37.1124 105.615 40.6389 108.073 47.4314C109.263 50.7216 109.101 54.2789 107.617 57.4467C106.132 60.6151 103.502 63.0153 100.212 64.2063C96.091 65.6971 91.6998 64.9852 88.3351 62.6782ZM102.678 41.8212C99.5382 39.668 95.4415 39.004 91.5963 40.3951C88.5266 41.5057 86.0729 43.7458 84.6878 46.7021C83.3021 49.6585 83.1511 52.9773 84.2622 56.047C85.3728 59.1172 87.6129 61.5708 90.5693 62.956C93.5251 64.3411 96.8439 64.4927 99.9141 63.3816C102.984 62.271 105.437 60.0309 106.823 57.0745C108.208 54.1181 108.359 50.7998 107.248 47.7297C106.346 45.2377 104.713 43.2166 102.678 41.8212Z" fill="#263238"/>
<path d="M88.9386 62.1794C86.7573 60.6837 85.007 58.5181 84.0404 55.8465C82.85 52.5568 83.0118 48.9995 84.4968 45.8312C85.9817 42.6628 88.6112 40.262 91.9014 39.0716C98.6934 36.6136 106.219 40.1401 108.677 46.9326C109.867 50.2229 109.705 53.7796 108.221 56.9479C106.736 60.1163 104.106 62.5165 100.816 63.7075C96.695 65.1984 92.3033 64.4869 88.9386 62.1794ZM103.281 41.3225C100.142 39.1692 96.045 38.5052 92.1997 39.8969C89.1301 41.0074 86.6764 43.2475 85.2907 46.2039C83.905 49.1603 83.754 52.4786 84.8652 55.5488C85.9757 58.6189 88.2158 61.0726 91.1722 62.4578C94.128 63.8429 97.4469 63.9945 100.517 62.8833C103.587 61.7727 106.04 59.5327 107.426 56.5768C108.811 53.6205 108.962 50.3021 107.851 47.232C106.95 44.7389 105.317 42.7178 103.281 41.3225Z" fill="#455A64"/>
<path d="M92.6495 61.9534C92.6619 61.9221 93.238 62.1956 94.231 62.421C94.3561 62.4475 94.4861 62.4744 94.6215 62.503C94.7574 62.5305 94.902 62.5435 95.0492 62.5656C95.3443 62.6158 95.6636 62.6276 95.9985 62.6508C96.6695 62.6692 97.4096 62.6325 98.1739 62.5014C98.9371 62.3606 99.6442 62.1406 100.268 61.8914C100.575 61.7544 100.871 61.633 101.13 61.4841C101.261 61.4124 101.392 61.3509 101.511 61.2781C101.628 61.2047 101.74 61.1341 101.849 61.0666C102.703 60.5127 103.15 60.0575 103.172 60.0823C103.178 60.0893 103.067 60.2009 102.857 60.3978C102.754 60.4981 102.625 60.6163 102.461 60.7382C102.299 60.8622 102.122 61.0143 101.903 61.1492C101.795 61.2204 101.682 61.2943 101.566 61.3709C101.447 61.4469 101.316 61.5116 101.185 61.5866C100.924 61.7414 100.626 61.8687 100.317 62.0106C99.6879 62.2695 98.9716 62.4966 98.1982 62.639C97.4231 62.7716 96.6722 62.8051 95.9926 62.7792C95.6533 62.7528 95.3302 62.736 95.032 62.6805C94.8825 62.6557 94.7375 62.64 94.6004 62.6093C94.4645 62.5775 94.3334 62.5467 94.2072 62.5176C93.9548 62.4669 93.7363 62.3844 93.5416 62.324C93.3458 62.2662 93.1829 62.1999 93.0519 62.1411C92.7892 62.0289 92.6457 61.9626 92.6495 61.9534Z" fill="white"/>
<path d="M132.42 83.6859C129.291 80.6891 114.477 65.8241 114.115 65.6148C113.66 65.3516 106.626 62.1374 105.163 62.8446C103.7 63.5517 99.5615 67.9056 99.5615 67.9056C99.5615 67.9056 99.6608 70.8474 103.096 69.0486C105.716 67.6764 106.122 67.4633 106.168 67.4396C106.166 67.4412 106.163 67.4423 106.163 67.4423L109.55 68.5523C109.55 68.5523 105.179 69.9445 104.206 70.7924C103.233 71.6403 101.512 75.0627 102.321 75.9559C103.13 76.8492 104.145 77.0083 104.145 77.0083C104.145 77.0083 102.188 79.3282 105.145 81.0909C105.145 81.0909 105.414 83.2085 106.866 84.1562C108.318 85.1039 111.181 85.064 111.181 85.064C111.181 85.064 112.565 84.4006 111.7 83.0251C110.836 81.6492 109.048 81.3131 109.048 81.3131L111.397 80.2047C111.397 80.2047 112.528 80.6626 114.135 82.1438C114.135 82.1438 118.844 87.2108 121.011 85.9125L124.076 89.5576C126.411 88.1358 132.42 83.6859 132.42 83.6859Z" fill="#C7C7C7"/>
<path d="M110.871 76.0002C110.871 75.9899 110.753 75.9818 110.538 75.9905C110.323 75.9991 110.013 76.0331 109.637 76.1183C108.889 76.2828 107.868 76.7019 106.991 77.5029C106.114 78.3039 105.604 79.2823 105.373 80.0127C105.254 80.3794 105.192 80.6853 105.164 80.8983C105.135 81.1114 105.133 81.2301 105.143 81.2311C105.174 81.2365 105.222 80.7619 105.483 80.051C105.739 79.3438 106.251 78.4031 107.103 77.6248C107.955 76.8475 108.938 76.422 109.666 76.2316C110.397 76.0363 110.874 76.0314 110.871 76.0002Z" fill="#C7C7C7"/>
<path d="M111.35 72.2509C111.349 72.2395 111.222 72.2379 110.993 72.2449C110.878 72.2465 110.737 72.2536 110.576 72.2762C110.414 72.2972 110.227 72.3118 110.026 72.3571C109.62 72.4272 109.146 72.5583 108.634 72.7471C108.127 72.945 107.584 73.2056 107.051 73.5421C106.522 73.8847 106.058 74.2682 105.665 74.6463C105.279 75.0319 104.961 75.4079 104.728 75.7466C104.602 75.9101 104.511 76.073 104.424 76.2116C104.335 76.3491 104.27 76.4737 104.22 76.5773C104.117 76.7828 104.066 76.8982 104.076 76.9036C104.106 76.9192 104.332 76.464 104.822 75.8162C105.065 75.4904 105.387 75.129 105.772 74.7563C106.163 74.3906 106.622 74.0184 107.141 73.6819C107.664 73.3517 108.265 72.9812 108.761 72.7789C109.26 72.5864 109.653 72.5556 110.05 72.472C110.844 72.2983 111.352 72.2838 111.35 72.2509Z" fill="#C7C7C7"/>
<path d="M112.359 67.9853C112.365 67.9675 112.196 67.885 111.898 67.8386C111.602 67.7911 111.175 67.8009 110.735 67.9432C110.139 68.1385 109.915 68.3602 109.732 68.5436C109.518 68.7561 109.43 68.9222 109.446 68.933C109.482 68.9708 109.939 68.3672 110.786 68.1013C111.628 67.8176 112.352 68.0366 112.359 67.9853Z" fill="#C7C7C7"/>
<g opacity="0.1">
<path d="M105.437 46.3673C105.168 45.8543 104.795 45.3182 104.228 45.2006C103.636 45.0781 103.036 45.4805 102.734 46.0048C102.432 46.5285 102.362 47.1494 102.296 47.7502C102.129 49.281 101.947 50.8312 101.383 52.2638C100.82 53.697 99.8234 55.0228 98.4204 55.6582C97.285 56.1728 95.9986 56.1954 94.7537 56.2515C93.5088 56.3076 92.2088 56.4236 91.1533 57.0859C91.1425 57.0924 91.1322 57.0994 91.1214 57.1059C89.6333 58.0536 89.8442 60.3028 91.4553 61.0213C95.1679 62.6761 99.8584 62.1141 102.956 59.4409C106.58 56.313 107.663 50.6058 105.437 46.3673Z" fill="black"/>
</g>
<path d="M171.742 99.5265L156.418 100.813C152.886 98.4796 128.253 79.3761 127.536 78.8772L121.125 86.2252C134.566 102.519 143.982 114.421 155.3 122.779C160.893 126.911 170.002 124.68 172.36 117.141C173.513 113.454 171.742 99.5265 171.742 99.5265Z" fill="#C7C7C7"/>
<g opacity="0.3">
<path d="M94.3193 191.039C94.3193 191.039 99.8275 191.807 100.22 191.927C100.351 191.967 115.151 191.967 115.151 191.967L114.762 185.11L97.9338 185.483L94.3193 191.039Z" fill="black"/>
</g>
<g opacity="0.3">
<path d="M94.709 184.716C94.709 184.716 100.299 185.872 100.609 185.605C100.92 185.338 114.762 185.11 114.762 185.11L114.373 179.606L97.5246 179.051L94.709 184.716Z" fill="black"/>
</g>
<g opacity="0.3">
<path d="M94.709 178.708C94.709 178.708 99.8385 179.382 100.149 179.115C100.459 178.848 114.373 179.606 114.373 179.606L113.62 167.418L97.4259 171.798L94.709 178.708Z" fill="black"/>
</g>
<path d="M42.4443 82.1188C42.4443 82.1188 79.4667 139.451 76.8701 178.453L98.9552 191.966H115.151C114.267 181.835 114.389 165.261 109.446 142.011C96.7292 82.1862 74.1327 82.019 74.1327 82.019L42.4443 82.1188Z" fill="#E0E0E0"/>
<path d="M113.603 173.307L76.6179 179.63C76.927 180.812 76.3369 182.293 75.5224 183.105C74.7079 183.918 73.566 184.298 72.4533 184.591C70.2731 185.164 68.0298 185.498 65.7773 185.585C64.5917 185.632 63.3878 185.612 62.2422 185.921C61.0971 186.231 59.9881 186.936 59.5248 188.028C59.0609 189.12 59.4595 191.927 62.2772 191.927H99.8347C97.0169 191.927 96.6183 189.12 97.0822 188.028C97.5461 186.936 98.6545 186.232 99.8002 185.921C100.946 185.611 102.15 185.631 103.335 185.585C105.587 185.498 107.831 185.164 110.011 184.591C111.123 184.298 112.265 183.918 113.08 183.105C113.894 182.293 113.776 174.672 113.603 173.307Z" fill="#E0E0E0"/>
<path d="M113.571 167.838L77.2077 173.233C77.5168 174.415 76.9267 175.895 76.1122 176.708C75.2978 177.52 74.1559 177.901 73.0431 178.193C70.8629 178.766 68.6196 179.1 66.3672 179.188C65.1816 179.234 63.9777 179.214 62.832 179.524C61.6869 179.834 60.5779 180.539 60.1146 181.63C59.6507 182.722 60.0493 185.529 62.8671 185.529H100.425C97.6068 185.529 97.2082 182.722 97.672 181.63C98.1359 180.538 99.2443 179.834 100.39 179.524C101.535 179.215 102.74 179.234 103.925 179.188C106.178 179.1 108.421 178.766 110.601 178.193C111.714 177.901 112.856 177.52 113.67 176.708C114.484 175.895 113.745 169.203 113.571 167.838Z" fill="#E0E0E0"/>
<path d="M113.421 166.514L76.6179 167.729C76.927 168.843 76.3369 170.238 75.5224 171.003C74.7079 171.769 73.566 172.128 72.4533 172.403C70.2731 172.942 68.0298 173.257 65.7773 173.34C64.5917 173.384 63.3878 173.365 62.2422 173.656C61.0971 173.948 59.9881 174.612 59.5248 175.641C59.0609 176.67 59.4595 179.315 62.2772 179.315L99.7198 178.896C96.902 178.896 96.6189 176.671 97.0822 175.641C97.5461 174.612 98.6545 173.949 99.8002 173.657C100.946 173.365 102.15 173.384 103.335 173.34C105.587 173.258 107.831 172.943 110.011 172.403C111.123 172.128 112.265 171.769 113.08 171.004C113.894 170.238 113.594 167.8 113.421 166.514Z" fill="#E0E0E0"/>
<path d="M56.0813 110.18C56.0813 110.18 51.7511 100.806 50.9092 98.2158C50.0672 95.6251 52.2323 94.1817 54.2771 92.618C56.3219 91.0543 63.78 90.4529 64.1403 91.776C64.5011 93.0991 64.3809 95.0237 63.2983 95.1439C62.2158 95.2642 58.1261 95.0323 55.7205 98.2158C55.7205 98.2158 65.7045 95.9951 68.1102 98.2158C70.5158 100.436 66.0654 101.278 66.0654 101.278C66.0654 101.278 67.3885 103.443 66.1856 104.045C64.9828 104.646 58.3672 105.969 58.3672 105.969L58.247 106.932C58.247 106.932 61.4946 106.691 63.6597 107.293C65.8248 107.894 66.7871 110.179 66.7871 110.179C66.3059 111.984 65.4639 111.984 64.2611 111.142C63.0583 110.3 62.2163 110.179 62.2163 110.179C62.2163 110.179 60.2918 112.585 58.9687 112.705C57.645 112.826 56.0813 110.18 56.0813 110.18Z" fill="#C7C7C7"/>
<g opacity="0.3">
<path d="M72.3224 82.0146C72.3224 82.0146 64.683 90.4361 66.011 103.588C67.339 116.741 67.3158 131.345 67.3158 131.345L62.8799 120.624L59.7725 89.7543L66.0471 82.8712L72.3224 82.0146Z" fill="#C7C7C7"/>
</g>
<path d="M72.3215 82.0146L40.8181 82.0195C40.8181 82.0195 27.8097 82.287 27.8097 107.932C27.8097 141.147 35.4367 152.489 15.1816 171.45L47.8711 175.555C47.8711 175.555 63.3375 174.068 63.3213 146.397C63.3137 133.769 62.7366 111.356 62.0456 100.556C61.5424 92.6875 67.3473 82.5519 72.3215 82.0146Z" fill="white"/>
<path d="M72.322 82.0147C72.2508 82.0287 72.1165 82.0557 71.8187 82.1156C71.4918 82.2046 71.0053 82.3551 70.4228 82.6765C69.2545 83.3098 67.748 84.648 66.3035 86.7462C64.8714 88.8417 63.4383 91.6854 62.6071 95.241C61.6351 98.809 62.401 103.019 62.5057 107.652C62.9124 116.936 63.25 128.09 63.4059 140.657C63.4237 143.798 63.5111 147.03 63.3272 150.344C63.1362 153.652 62.7004 157.044 61.7522 160.394C60.8249 163.735 59.3718 167.065 57.0913 169.901C55.9419 171.302 54.6047 172.587 53.0508 173.597C51.499 174.599 49.7767 175.403 47.8851 175.691L47.8732 175.693L47.8549 175.691C38.4167 174.507 28.4871 173.262 18.2906 171.982C17.2199 171.848 16.1525 171.714 15.1654 171.589L14.873 171.553L15.0872 171.348C16.7221 169.781 18.3273 168.2 19.7906 166.512C21.2545 164.826 22.6181 163.071 23.8112 161.223C26.2007 157.527 27.7773 153.407 28.4656 149.208C29.1738 145.007 29.1522 140.795 28.9845 136.704C28.8151 132.606 28.5001 128.601 28.2649 124.69C28.0217 120.779 27.8415 116.962 27.7563 113.253C27.7131 111.398 27.6937 109.57 27.6975 107.77C27.7272 106.87 27.7568 105.977 27.7859 105.091C27.8172 104.206 27.8232 103.326 27.9407 102.461C28.0319 101.594 28.122 100.735 28.2115 99.883C28.2417 99.4552 28.3356 99.0383 28.4116 98.6202C28.4898 98.2028 28.5675 97.7874 28.6452 97.3743C28.7229 96.9611 28.8 96.5496 28.8766 96.1402C28.9634 95.7329 29.0956 95.3381 29.2018 94.9395C29.314 94.5419 29.4257 94.1466 29.5373 93.7534C29.6474 93.3596 29.7498 92.9653 29.9138 92.5937C30.9667 89.5391 32.5924 86.7651 34.8195 84.778C35.9042 83.7602 37.1702 82.9888 38.4917 82.4824C39.1519 82.2251 39.8326 82.0438 40.5214 81.957C41.221 81.902 41.8876 81.943 42.5576 81.9316C45.2259 81.937 47.7421 81.9419 50.0939 81.9468C54.7887 81.964 58.8308 81.9791 62.1351 81.9915C68.6374 82.0061 71.9455 82.0142 72.322 82.0147C71.9422 82.0158 68.6029 82.0244 62.0396 82.0422C58.7462 82.0557 54.7169 82.0719 50.0367 82.0908C47.6995 82.0962 45.2 82.1021 42.5489 82.108C39.8919 81.8033 37.0925 82.9322 34.9501 84.9242C32.7596 86.8864 31.1544 89.6319 30.115 92.666C29.9527 93.0344 29.8518 93.4265 29.7434 93.8181C29.6333 94.2092 29.5233 94.6018 29.4122 94.9967C29.307 95.3931 29.177 95.7852 29.0907 96.1903C29.0152 96.5975 28.9392 97.0069 28.8626 97.4185C28.786 97.83 28.7094 98.2432 28.6322 98.658C28.5578 99.0733 28.4645 99.4881 28.4354 99.9142C28.3474 100.762 28.259 101.618 28.1694 102.481C28.0535 103.343 28.0486 104.22 28.019 105.102C27.9909 105.984 27.9629 106.874 27.9343 107.771C27.9332 109.568 27.9542 111.394 27.9995 113.247C28.0891 116.953 28.2735 120.765 28.52 124.674C28.7585 128.584 29.0767 132.588 29.2493 136.693C29.4197 140.791 29.4456 145.02 28.7342 149.254C28.0438 153.485 26.4515 157.65 24.0448 161.373C22.8436 163.236 21.4714 165.001 20.0004 166.696C18.5301 168.394 16.9189 169.982 15.2781 171.553L15.1994 171.312C16.1865 171.436 17.2544 171.569 18.3246 171.704C28.5211 172.986 38.4501 174.234 47.8883 175.42L47.8581 175.42C49.6645 175.145 51.3841 174.354 52.9014 173.371C54.4295 172.379 55.7477 171.114 56.8826 169.733C59.1345 166.936 60.5785 163.641 61.5019 160.324C62.4464 157 62.8838 153.624 63.0774 150.33C63.2641 147.032 63.181 143.8 63.1675 140.659C63.0283 128.096 62.7117 116.943 62.3288 107.66C62.2247 105.34 62.1249 103.137 61.9965 101.058C61.8298 98.973 62.0596 96.9935 62.4717 95.2103C63.3212 91.6374 64.7733 88.7894 66.2242 86.6923C67.6876 84.593 69.2135 83.2575 70.3985 82.6339C70.9891 82.3168 71.4821 82.1727 71.8122 82.0913C71.9762 82.0568 72.1008 82.0487 72.1877 82.0341C72.2567 82.0244 72.2923 82.019 72.322 82.0147Z" fill="#263238"/>
<g opacity="0.3">
<path d="M38.5508 168.42H43.8416C43.8416 168.42 44.1302 175.446 49.7905 174.97C49.7905 174.97 48.5915 175.758 46.976 175.555C45.3595 175.353 40.3157 176.592 38.5508 168.42Z" fill="black"/>
</g>
<path d="M0.0281166 164.875C0.0281166 164.875 -0.806313 174.945 11.7312 175.547C24.2687 176.15 47.0065 175.547 47.0065 175.547C47.0065 175.547 39.1104 174.123 39.1104 165.536L0.0281166 164.875Z" fill="#E0E0E0"/>
<path d="M0.0289793 164.875C0.0262824 164.872 0.0883121 164.87 0.211832 164.869C0.347757 164.869 0.530607 164.87 0.766858 164.87C1.27172 164.874 1.99774 164.88 2.93303 164.889C4.84354 164.912 7.60519 164.946 11.0654 164.988C18.038 165.09 27.8203 165.234 39.1129 165.4L39.2461 165.402V165.536C39.2445 167.681 39.8141 169.953 41.21 171.771C42.5887 173.591 44.7333 174.872 47.0316 175.409L48.1039 175.66L47.0106 175.688C46.989 175.689 46.9653 175.689 46.9415 175.69C39.621 175.866 32.6462 175.952 26.3019 175.943C23.1298 175.936 20.1152 175.911 17.2947 175.845C14.4743 175.755 11.8464 175.742 9.45097 175.412C7.06958 175.03 4.99079 174.149 3.50101 172.929C1.99342 171.719 1.13742 170.228 0.665994 168.975C0.189177 167.71 0.064579 166.657 0.0192706 165.953C-0.00176549 165.6 -0.00446221 165.33 0.00578612 165.149C0.0106406 164.968 0.0273612 164.869 0.0289793 164.875C0.0322156 164.882 0.0316764 164.967 0.0343733 165.149C0.0338339 165.329 0.0457002 165.598 0.0759058 165.948C0.139014 166.646 0.280873 167.69 0.767938 168.935C1.25015 170.169 2.10777 171.628 3.59971 172.806C5.0744 173.993 7.12514 174.848 9.48226 175.215C11.8453 175.527 14.4845 175.532 17.2996 175.611C20.1184 175.668 23.1314 175.683 26.3019 175.683C32.6435 175.677 39.6167 175.584 46.934 175.408C46.9577 175.407 46.9814 175.407 47.003 175.406L46.982 175.685C45.7765 175.413 44.6529 174.939 43.6302 174.307C42.6124 173.675 41.6933 172.886 40.9899 171.94C39.5498 170.064 38.9694 167.721 38.9753 165.535L39.1086 165.671C27.8527 165.455 18.1022 165.269 11.1522 165.136C7.68017 165.061 4.9088 165.001 2.99183 164.96C2.0452 164.937 1.31002 164.918 0.798683 164.905C0.555959 164.898 0.367713 164.891 0.228012 164.887C0.0990992 164.882 0.0316763 164.878 0.0289793 164.875Z" fill="#263238"/>
<path d="M55.5683 126.962C55.5683 127.108 52.7268 127.226 49.2224 127.226C45.7169 127.226 42.876 127.108 42.876 126.962C42.876 126.817 45.7169 126.698 49.2224 126.698C52.7262 126.698 55.5683 126.817 55.5683 126.962Z" fill="#263238"/>
<path d="M33.6221 127.003C33.6221 126.857 34.415 126.739 35.3929 126.739C36.3708 126.739 37.1637 126.857 37.1637 127.003C37.1637 127.148 36.3708 127.267 35.3929 127.267C34.415 127.267 33.6221 127.148 33.6221 127.003Z" fill="#263238"/>
<path d="M56.3524 122.331C56.3524 122.476 53.511 122.594 50.0066 122.594C46.5011 122.594 43.6602 122.476 43.6602 122.331C43.6602 122.185 46.5011 122.067 50.0066 122.067C53.511 122.067 56.3524 122.185 56.3524 122.331Z" fill="#263238"/>
<path d="M33.6221 122.594C33.6221 122.449 34.415 122.331 35.3929 122.331C36.3708 122.331 37.1637 122.449 37.1637 122.594C37.1637 122.74 36.3708 122.858 35.3929 122.858C34.415 122.858 33.6221 122.74 33.6221 122.594Z" fill="#263238"/>
<path d="M56.2089 118.41C56.2089 118.556 53.3674 118.674 49.863 118.674C46.3575 118.674 43.5166 118.556 43.5166 118.41C43.5166 118.265 46.3575 118.146 49.863 118.146C53.3674 118.146 56.2089 118.265 56.2089 118.41Z" fill="#263238"/>
<path d="M33.6221 118.451C33.6221 118.305 34.415 118.187 35.3929 118.187C36.3708 118.187 37.1637 118.305 37.1637 118.451C37.1637 118.596 36.3708 118.715 35.3929 118.715C34.415 118.715 33.6221 118.596 33.6221 118.451Z" fill="#263238"/>
<path d="M55.7118 113.808C55.7118 113.953 52.8703 114.071 49.3659 114.071C45.8605 114.071 43.0195 113.953 43.0195 113.808C43.0195 113.662 45.8605 113.544 49.3659 113.544C52.8703 113.544 55.7118 113.662 55.7118 113.808Z" fill="#263238"/>
<path d="M32.9814 114.072C32.9814 113.926 33.7743 113.808 34.7522 113.808C35.7302 113.808 36.5231 113.926 36.5231 114.072C36.5231 114.217 35.7302 114.335 34.7522 114.335C33.7743 114.335 32.9814 114.217 32.9814 114.072Z" fill="#263238"/>
<path d="M55.5683 109.888C55.5683 110.033 52.7268 110.151 49.2224 110.151C45.7169 110.151 42.876 110.033 42.876 109.888C42.876 109.742 45.7169 109.624 49.2224 109.624C52.7268 109.624 55.5683 109.742 55.5683 109.888Z" fill="#263238"/>
<path d="M32.9814 109.928C32.9814 109.782 33.7743 109.664 34.7522 109.664C35.7302 109.664 36.5231 109.782 36.5231 109.928C36.5231 110.074 35.7302 110.192 34.7522 110.192C33.7743 110.191 32.9814 110.073 32.9814 109.928Z" fill="#263238"/>
<path d="M55.1181 105.285C55.1181 105.431 52.2766 105.549 48.7722 105.549C45.2667 105.549 42.4258 105.431 42.4258 105.285C42.4258 105.139 45.2667 105.021 48.7722 105.021C52.2766 105.021 55.1181 105.139 55.1181 105.285Z" fill="#263238"/>
<path d="M32.3877 105.549C32.3877 105.403 33.1806 105.285 34.1585 105.285C35.1364 105.285 35.9293 105.403 35.9293 105.549C35.9293 105.694 35.1364 105.812 34.1585 105.812C33.1806 105.812 32.3877 105.694 32.3877 105.549Z" fill="#263238"/>
<path d="M54.9735 101.364C54.9735 101.51 52.1321 101.628 48.6277 101.628C45.1222 101.628 42.2812 101.51 42.2812 101.364C42.2812 101.218 45.1222 101.1 48.6277 101.1C52.1321 101.101 54.9735 101.219 54.9735 101.364Z" fill="#263238"/>
<path d="M55.7567 97.3477C55.7567 97.4934 52.9153 97.6115 49.4109 97.6115C45.9054 97.6115 43.0645 97.4934 43.0645 97.3477C43.0645 97.2021 45.9054 97.084 49.4109 97.084C52.9153 97.084 55.7567 97.2021 55.7567 97.3477Z" fill="#263238"/>
<path d="M32.3877 101.405C32.3877 101.259 33.1806 101.141 34.1585 101.141C35.1364 101.141 35.9293 101.259 35.9293 101.405C35.9293 101.551 35.1364 101.669 34.1585 101.669C33.1806 101.668 32.3877 101.55 32.3877 101.405Z" fill="#263238"/>
<path d="M32.9814 97.0904C32.9814 96.9448 33.7743 96.8267 34.7522 96.8267C35.7302 96.8267 36.5231 96.9448 36.5231 97.0904C36.5231 97.2361 35.7302 97.3542 34.7522 97.3542C33.7743 97.3537 32.9814 97.2355 32.9814 97.0904Z" fill="#263238"/>
<path d="M56.5766 93.4195C56.5766 93.5652 53.7351 93.6833 50.2307 93.6833C46.7247 93.6833 43.8838 93.5652 43.8838 93.4195C43.8838 93.2739 46.7247 93.1558 50.2307 93.1558C53.7351 93.1558 56.5766 93.2739 56.5766 93.4195Z" fill="#263238"/>
<path d="M33.8018 93.1622C33.8018 93.0166 34.5947 92.8984 35.5726 92.8984C36.5505 92.8984 37.3434 93.0166 37.3434 93.1622C37.3434 93.3078 36.5505 93.426 35.5726 93.426C34.5947 93.4254 33.8018 93.3073 33.8018 93.1622Z" fill="#263238"/>
<path d="M57.3969 89.4911C57.3969 89.6367 54.5554 89.7548 51.0511 89.7548C47.5456 89.7548 44.7041 89.6367 44.7041 89.4911C44.7041 89.3454 47.545 89.2273 51.0511 89.2273C54.5554 89.2273 57.3969 89.3454 57.3969 89.4911Z" fill="#263238"/>
<path d="M34.6221 89.2337C34.6221 89.0881 35.415 88.97 36.3929 88.97C37.3708 88.97 38.1637 89.0881 38.1637 89.2337C38.1637 89.3794 37.3708 89.4975 36.3929 89.4975C35.415 89.4975 34.6221 89.3788 34.6221 89.2337Z" fill="#263238"/>
<path d="M60.3651 85.9549C60.3651 86.1006 57.5237 86.2187 54.0193 86.2187C50.5138 86.2187 47.6729 86.1006 47.6729 85.9549C47.6729 85.8093 50.5138 85.6912 54.0193 85.6912C57.5231 85.6917 60.3651 85.8098 60.3651 85.9549Z" fill="#263238"/>
<path d="M37.5889 85.6976C37.5889 85.552 38.3818 85.4338 39.3597 85.4338C40.3376 85.4338 41.1305 85.552 41.1305 85.6976C41.1305 85.8432 40.3381 85.9614 39.3597 85.9614C38.3818 85.9614 37.5889 85.8432 37.5889 85.6976Z" fill="#263238"/>
<path d="M55.5683 132.021C55.5683 132.166 52.7268 132.284 49.2224 132.284C45.7169 132.284 42.876 132.166 42.876 132.021C42.876 131.875 45.7169 131.757 49.2224 131.757C52.7262 131.757 55.5683 131.875 55.5683 132.021Z" fill="#263238"/>
<path d="M33.6221 132.061C33.6221 131.915 34.415 131.797 35.3929 131.797C36.3708 131.797 37.1637 131.915 37.1637 132.061C37.1637 132.207 36.3708 132.325 35.3929 132.325C34.415 132.325 33.6221 132.207 33.6221 132.061Z" fill="#263238"/>
<path d="M56.2089 136.981C56.2089 137.126 53.3674 137.245 49.863 137.245C46.3575 137.245 43.5166 137.126 43.5166 136.981C43.5166 136.835 46.3575 136.717 49.863 136.717C53.3674 136.718 56.2089 136.835 56.2089 136.981Z" fill="#263238"/>
<path d="M34.2627 137.021C34.2627 136.876 35.0556 136.758 36.0335 136.758C37.0114 136.758 37.8043 136.876 37.8043 137.021C37.8043 137.167 37.0114 137.285 36.0335 137.285C35.0556 137.285 34.2627 137.167 34.2627 137.021Z" fill="#263238"/>
<path d="M56.4101 141.264C56.4101 141.41 53.5686 141.528 50.0642 141.528C46.5587 141.528 43.7178 141.41 43.7178 141.264C43.7178 141.119 46.5587 141.001 50.0642 141.001C53.568 141.001 56.4101 141.119 56.4101 141.264Z" fill="#263238"/>
<path d="M34.4639 141.305C34.4639 141.159 35.2568 141.041 36.2347 141.041C37.2126 141.041 38.0055 141.159 38.0055 141.305C38.0055 141.451 37.2126 141.569 36.2347 141.569C35.2568 141.569 34.4639 141.451 34.4639 141.305Z" fill="#263238"/>
<path d="M56.6122 145.548C56.6122 145.694 53.7707 145.812 50.2663 145.812C46.7609 145.812 43.9199 145.694 43.9199 145.548C43.9199 145.403 46.7609 145.285 50.2663 145.285C53.7707 145.285 56.6122 145.403 56.6122 145.548Z" fill="#263238"/>
<path d="M34.666 145.589C34.666 145.443 35.4589 145.325 36.4368 145.325C37.4147 145.325 38.2076 145.443 38.2076 145.589C38.2076 145.735 37.4153 145.853 36.4368 145.853C35.4589 145.852 34.666 145.735 34.666 145.589Z" fill="#263238"/>
<path d="M56.8134 149.832C56.8134 149.978 53.9719 150.096 50.4675 150.096C46.962 150.096 44.1211 149.978 44.1211 149.832C44.1211 149.686 46.962 149.568 50.4675 149.568C53.9719 149.568 56.8134 149.686 56.8134 149.832Z" fill="#263238"/>
<path d="M34.8672 149.873C34.8672 149.727 35.6601 149.609 36.638 149.609C37.6159 149.609 38.4088 149.727 38.4088 149.873C38.4088 150.018 37.6159 150.136 36.638 150.136C35.6601 150.136 34.8672 150.018 34.8672 149.873Z" fill="#263238"/>
<path d="M56.8866 153.997C56.8866 154.143 54.0451 154.261 50.5408 154.261C47.0353 154.261 44.1943 154.143 44.1943 153.997C44.1943 153.852 47.0353 153.734 50.5408 153.734C54.0446 153.734 56.8866 153.852 56.8866 153.997Z" fill="#263238"/>
<path d="M34.9404 154.038C34.9404 153.892 35.7333 153.774 36.7112 153.774C37.6891 153.774 38.482 153.892 38.482 154.038C38.482 154.183 37.6891 154.301 36.7112 154.301C35.7328 154.301 34.9404 154.183 34.9404 154.038Z" fill="#263238"/>
<path d="M56.2089 158.143C56.2089 158.288 53.3674 158.406 49.863 158.406C46.3575 158.406 43.5166 158.288 43.5166 158.143C43.5166 157.997 46.3575 157.879 49.863 157.879C53.3674 157.879 56.2089 157.997 56.2089 158.143Z" fill="#263238"/>
<path d="M34.2627 158.183C34.2627 158.037 35.0556 157.919 36.0335 157.919C37.0114 157.919 37.8043 158.037 37.8043 158.183C37.8043 158.329 37.0114 158.447 36.0335 158.447C35.0556 158.446 34.2627 158.329 34.2627 158.183Z" fill="#263238"/>
<path d="M54.5805 162.543C54.5805 162.689 51.739 162.807 48.2346 162.807C44.7292 162.807 41.8877 162.689 41.8877 162.543C41.8877 162.398 44.7286 162.28 48.2346 162.28C51.739 162.28 54.5805 162.398 54.5805 162.543Z" fill="#263238"/>
<path d="M32.6348 162.584C32.6348 162.438 33.4277 162.32 34.4056 162.32C35.3835 162.32 36.1764 162.438 36.1764 162.584C36.1764 162.729 35.3835 162.848 34.4056 162.848C33.4277 162.848 32.6348 162.729 32.6348 162.584Z" fill="#263238"/>
<path d="M53.3534 166.552C53.3534 166.698 50.5119 166.816 47.0075 166.816C43.5021 166.816 40.6611 166.698 40.6611 166.552C40.6611 166.406 43.5021 166.288 47.0075 166.288C50.5119 166.288 53.3534 166.406 53.3534 166.552Z" fill="#263238"/>
<path d="M114.373 179.606C114.373 179.611 114.328 179.613 114.241 179.612C114.137 179.61 114.01 179.606 113.855 179.603C113.492 179.587 112.997 179.565 112.371 179.538C111.083 179.473 109.218 179.392 106.915 179.306C102.307 179.131 95.937 179.008 88.9007 179.042C81.8622 179.074 75.491 179.2 70.8787 179.264C68.5907 179.29 66.7309 179.312 65.4164 179.327C64.7896 179.328 64.2939 179.329 63.9309 179.329C63.775 179.326 63.6483 179.324 63.5447 179.323C63.4579 179.319 63.4131 179.316 63.4131 179.311C63.4131 179.306 63.4573 179.301 63.5442 179.294C63.6477 179.288 63.7745 179.281 63.9298 179.272C64.2923 179.259 64.788 179.241 65.4142 179.217C66.7282 179.181 68.5874 179.129 70.8744 179.065C75.4856 178.95 81.8574 178.793 88.8996 178.76C95.9391 178.727 102.314 178.881 106.923 179.107C109.227 179.218 111.091 179.33 112.377 179.429C113.003 179.478 113.497 179.517 113.859 179.546C114.014 179.561 114.14 179.573 114.243 179.583C114.329 179.593 114.374 179.601 114.373 179.606Z" fill="#263238"/>
<path d="M112.765 185.381C112.765 185.458 102.381 185.554 89.5758 185.595C76.7654 185.636 66.3843 185.607 66.3838 185.529C66.3838 185.451 76.7648 185.355 89.5747 185.314C102.38 185.274 112.764 185.303 112.765 185.381Z" fill="#263238"/>
<path d="M108.341 168.42C108.344 168.411 108.478 168.445 108.73 168.52C109.007 168.605 109.372 168.718 109.828 168.858C110.068 168.934 110.332 169.018 110.618 169.109C110.889 169.21 111.276 169.259 111.492 169.634C111.589 169.825 111.521 170.088 111.355 170.225C111.197 170.368 111.002 170.447 110.802 170.506C110.409 170.598 109.993 170.694 109.558 170.796C107.811 171.17 105.706 171.502 103.353 171.714C101.002 171.93 98.4073 172.039 95.6872 172.092C90.2593 172.164 85.3471 172.23 81.7548 172.278C79.9953 172.287 78.5606 172.295 77.5325 172.3C77.0557 172.297 76.6743 172.294 76.3842 172.292C76.1215 172.287 75.9839 172.28 75.9834 172.27C75.9834 172.26 76.1209 172.248 76.3831 172.236C76.6727 172.224 77.0541 172.21 77.5304 172.191C78.5579 172.163 79.9921 172.125 81.7516 172.079C85.3434 172.01 90.2545 171.915 95.6812 171.81C98.3992 171.758 100.987 171.657 103.331 171.456C105.676 171.259 107.773 170.95 109.518 170.601C109.95 170.508 110.363 170.418 110.754 170.334C110.939 170.283 111.116 170.211 111.241 170.101C111.369 169.994 111.408 169.833 111.348 169.698C111.209 169.426 110.851 169.335 110.576 169.235C110.292 169.136 110.031 169.045 109.793 168.961C109.344 168.8 108.985 168.671 108.712 168.573C108.466 168.482 108.338 168.429 108.341 168.42Z" fill="#263238"/>
</svg>
