<svg width="327" height="191" viewBox="0 0 327 191" fill="none" xmlns="http://www.w3.org/2000/svg">
<ellipse cx="163.5" cy="142.568" rx="163.5" ry="48.4322" fill="#F2F1F9"/>
<path d="M167.315 86.4369C167.205 84.986 167.4 80.8802 167.146 80.773C166.893 80.6657 166.788 82.0548 166.596 81.9288C166.404 81.8001 166.42 79.6493 166.139 79.6091C165.757 79.5554 165.859 81.7572 165.859 81.7572C165.859 81.7572 165.629 79.3489 165.281 79.3972C165.038 79.4321 165.129 81.2771 165.076 81.9878C165.036 81.2101 164.808 79.7646 164.555 79.8075C164.303 79.8477 164.352 81.3013 164.33 82.2667C164.287 81.6633 164.167 80.3439 163.932 80.3707C163.697 80.3975 163.625 83.8275 163.622 86.7185" fill="#C7C7C7"/>
<path d="M166.951 100.961C166.951 100.961 165.399 97.7002 164.429 93.9001C163.459 90.0973 163.63 85.1548 163.63 85.1548L167.274 85.7716C167.274 85.7716 167.44 92.6718 171.59 99.5211" fill="#C7C7C7"/>
<path d="M68.1164 111.353C55.2685 114.211 41.6538 105.485 41.4947 100.315C41.3355 95.1462 53.8217 105.878 55.6302 100.616C57.4388 95.3549 42.0445 93.2436 41.8274 87.6812C41.6104 82.1189 55.4373 95.253 56.508 91.7001C57.5738 88.1472 44.2388 79.7358 46.221 75.649C48.2032 71.5622 56.262 85.9485 58.5576 84.007C60.8533 82.0704 51.5502 68.6645 57.1542 67.6356C62.7583 66.6066 61.7841 78.9349 63.7373 81.4394C65.6905 83.9439 65.5748 69.5819 68.9121 70.6837C72.2495 71.7854 66.5345 85.6184 68.7916 87.4822C71.0486 89.346 74.4101 77.0614 78.2008 79.8959C81.9915 82.7305 72.2206 90.5692 73.1514 94.2288C74.0822 97.8837 80.4241 86.958 83.8242 89.8508C87.2242 92.7388 78.8808 108.96 68.1164 111.353Z" fill="#52D5BA"/>
<path d="M58.5293 71.625C58.5293 71.625 64.3504 95.1313 71.4688 116.648" stroke="#4CA5A2" stroke-width="1.6286" stroke-miterlimit="10" stroke-linecap="round"/>
<path d="M46.959 90.2197C46.959 90.2197 62.9031 98.1457 68.131 105.358C68.131 105.358 67.938 92.5009 76.0789 83.7061" stroke="#4CA5A2" stroke-width="1.6286" stroke-miterlimit="10" stroke-linecap="round"/>
<path d="M50.7207 79.9735C50.7207 79.9735 62.6137 91.3942 66.3417 99.9318C66.3417 99.9318 65.3723 84.4972 67.8512 76.3381" stroke="#4CA5A2" stroke-width="1.6286" stroke-miterlimit="10" stroke-linecap="round"/>
<path d="M44.6924 101.839C44.6924 101.839 66.255 105.436 68.9654 109.028C68.9654 109.028 74.936 95.5587 82.3486 91.9622" stroke="#4CA5A2" stroke-width="1.6286" stroke-miterlimit="10" stroke-linecap="round"/>
<path d="M67.046 105.281C63.728 97.6799 53.441 81.4832 44.5912 83.7305C34.3862 86.3175 57.4969 102.354 57.4969 102.354C57.4969 102.354 41.6107 93.2097 37.3185 100.398C33.0214 107.586 56.3925 108.557 56.3925 108.557C56.3925 108.557 44.0462 107.712 45.8982 112.353C47.7453 116.993 67.5669 112.833 69.5973 117.269C71.6228 121.701 69.3224 110.489 67.046 105.281Z" fill="#52D5BA"/>
<path d="M69.2891 115.338C66.1784 107.222 61.4907 99.5825 55.3369 93.4523C53.075 91.2002 50.6105 89.1568 47.958 87.3853" stroke="#4CA5A2" stroke-width="1.6286" stroke-miterlimit="10" stroke-linecap="round"/>
<path d="M69.1782 115.502C62.5035 107.202 52.3563 101.868 41.915 101.606" stroke="#4CA5A2" stroke-width="1.6286" stroke-miterlimit="10" stroke-linecap="round"/>
<path d="M69.0718 115.589C63.6076 112.255 57.0872 111.046 50.7598 111.469" stroke="#4CA5A2" stroke-width="1.6286" stroke-miterlimit="10" stroke-linecap="round"/>
<path d="M71.8738 114.687C70.7308 111.309 66.7858 108.853 63.7233 107.586C56.2239 104.485 44.0802 101.883 38.3941 109.717C36.5856 112.212 36.0213 115.58 36.928 118.531C38.5822 123.924 44.5624 126.375 49.6553 127.118C56.465 128.108 66.0865 126.671 70.6102 120.832C71.3915 119.822 71.9944 118.643 72.1535 117.376C72.2693 116.425 72.1535 115.527 71.8738 114.687Z" fill="#52D5BA"/>
<path d="M70.8512 116.692C70.8512 116.692 49.9493 111.018 38.5 114.901" stroke="#4CA5A2" stroke-width="1.6286" stroke-miterlimit="10" stroke-linecap="round"/>
<path d="M43.1543 120.57C43.1543 120.57 48.5606 113.998 51.6231 113.707C51.6231 113.707 47.2681 109.407 43.9549 108.441" stroke="#4CA5A2" stroke-width="1.6286" stroke-miterlimit="10" stroke-linecap="round"/>
<path d="M51.7529 105.969C51.7529 105.969 57.8971 110.328 58.037 114.182C58.037 114.182 52.5535 119.633 50.4941 123.952" stroke="#4CA5A2" stroke-width="1.6286" stroke-miterlimit="10" stroke-linecap="round"/>
<path d="M62.4982 108.329C62.4982 108.329 64.871 113.037 64.5044 115.381C64.5044 115.381 61.061 120.133 59.2139 124.394" stroke="#4CA5A2" stroke-width="1.6286" stroke-miterlimit="10" stroke-linecap="round"/>
<path d="M189.547 74.7271C187.361 83.6227 178.415 89.0539 169.565 86.8556C168.355 86.5552 167.211 86.1283 166.141 85.5913C164.795 84.9174 163.568 84.0694 162.481 83.0842C161.51 82.2049 160.651 81.2149 159.918 80.1409C159.694 79.8128 159.481 79.4766 159.282 79.1326C158.402 77.6239 157.758 75.9762 157.387 74.2492C157.314 73.9118 157.251 73.572 157.2 73.2295C156.884 71.1375 156.964 68.9492 157.5 66.7678C157.549 66.5685 157.602 66.37 157.66 66.1728C160.089 57.6312 168.832 52.4908 177.482 54.6389C179.611 55.1676 181.54 56.0897 183.212 57.3082C183.535 57.5438 183.848 57.7899 184.151 58.0475C185.477 59.1702 186.611 60.491 187.519 61.9526C187.72 62.2747 187.909 62.6031 188.087 62.9384C188.72 64.1304 189.209 65.4008 189.539 66.7225C189.879 68.085 190.049 69.5018 190.031 70.9427C190.017 71.9948 189.903 73.0596 189.682 74.1255C189.641 74.3276 189.596 74.5281 189.547 74.7271Z" fill="#92E3A9"/>
<path d="M186.331 73.9291C186.282 74.1266 186.229 74.3229 186.173 74.5168C184.187 81.2664 177.226 85.3279 170.36 83.6228C163.495 81.9178 159.216 75.0646 160.585 68.1614C160.625 67.9639 160.669 67.7648 160.717 67.5673C162.462 60.468 169.626 56.1196 176.688 57.8735C183.75 59.6272 188.076 66.8295 186.331 73.9291Z" fill="#497255"/>
<path d="M186.173 74.5168C184.186 81.2664 177.225 85.3279 170.36 83.6228C170.206 83.5847 170.055 83.5433 169.904 83.5C168.386 83.0657 167.003 82.3771 165.787 81.4903C164.572 80.6033 163.526 79.5202 162.685 78.2973C162.471 77.9869 162.271 77.6684 162.083 77.3394C161.232 75.8454 160.665 74.1875 160.442 72.451C160.386 72.0352 160.352 71.6129 160.338 71.1902C160.303 70.1921 160.383 69.1772 160.584 68.1617C162.571 61.4121 169.532 57.3488 176.397 59.0539C177.266 59.2697 178.093 59.5684 178.874 59.9397C179.271 60.1279 179.658 60.3365 180.031 60.5626C181.555 61.4841 182.856 62.6978 183.88 64.1089C184.101 64.4136 184.31 64.7285 184.505 65.0533C185.264 66.3092 185.817 67.6913 186.13 69.143C186.434 70.5583 186.511 72.0373 186.33 73.5307C186.291 73.8582 186.238 74.1881 186.173 74.5168Z" fill="#497255"/>
<path d="M173.51 78.4935L172.984 80.6326L170.281 79.9614L170.783 77.9187C168.895 77.327 167.163 76.3448 166.188 75.3461L168.46 72.3933C169.54 73.4589 171.109 74.3597 172.585 74.7263C173.869 75.0454 174.396 74.8899 174.509 74.4273C174.926 72.7316 167.171 72.2573 168.407 67.2274C168.942 65.0499 170.964 63.6096 174.217 63.947L174.733 61.8467L177.436 62.5179L176.929 64.5798C178.315 65.067 179.605 65.7761 180.546 66.664L178.375 69.6211C177.218 68.6182 176.053 67.9812 174.883 67.6906C173.561 67.3622 173.044 67.6429 172.931 68.1052C172.533 69.724 180.283 70.2175 179.061 75.1891C178.549 77.2712 176.609 78.7112 173.51 78.4935Z" fill="#497255"/>
<path d="M173.606 77.7628L173.08 79.9019L170.377 79.2307L170.879 77.1879C168.99 76.5963 167.259 75.6141 166.284 74.6154L168.556 71.6625C169.636 72.7284 171.205 73.629 172.681 73.9955C173.965 74.3146 174.491 74.1588 174.605 73.6965C175.022 72.0008 167.267 71.5265 168.503 66.497C169.038 64.3194 171.06 62.8792 174.313 63.2166L174.829 61.1162L177.532 61.7874L177.025 63.8494C178.411 64.3366 179.701 65.0456 180.642 65.9335L178.471 68.8909C177.314 67.888 176.148 67.251 174.979 66.9604C173.656 66.632 173.14 66.9127 173.026 67.375C172.629 68.9939 180.378 69.4874 179.157 74.4593C178.645 76.5404 176.705 77.9804 173.606 77.7628Z" fill="#92E3A9"/>
<path d="M142.358 85.6498L141.349 85.541V133.551L140.417 133.381L139.076 139.002C139.076 139.002 144.601 138.851 144.601 134.137V89.6808C144.595 86.653 143.17 85.8311 142.358 85.6498Z" fill="#0890FE"/>
<path d="M139.359 85.7587L84.7563 73.7382V73.7442C83.7343 73.4481 82.6523 73.2849 81.5281 73.2849C75.1199 73.2849 69.9199 75.9259 69.9199 82.3683C69.9199 88.8107 75.1139 94.0383 81.5281 94.0383C82.6463 94.0383 83.7283 93.8751 84.7563 93.579V123.198C84.7563 125.277 86.2051 127.078 88.231 127.507L137.543 138.911C140.272 139.491 142.839 137.4 142.839 134.602V90.0677C142.833 87.9887 141.385 86.1878 139.359 85.7587Z" fill="#72B2BC"/>
<path d="M124.923 88.2769C123.852 97.3766 115.642 103.881 106.585 102.803C105.347 102.656 104.158 102.374 103.03 101.975C101.611 101.474 100.288 100.785 99.0869 99.9432C98.0147 99.1918 97.0395 98.3165 96.1788 97.342C95.9157 97.0444 95.6632 96.7371 95.4225 96.4211C94.3633 95.0336 93.5208 93.4788 92.9386 91.8117C92.8245 91.4862 92.7202 91.1566 92.6273 90.823C92.0551 88.7864 91.8643 86.6051 92.127 84.3737C92.1509 84.1699 92.1791 83.9662 92.2122 83.7634C93.5685 74.9847 101.613 68.7938 110.466 69.8477C112.644 70.1068 114.673 70.7812 116.483 71.7821C116.833 71.9759 117.175 72.1811 117.507 72.3985C118.962 73.3472 120.251 74.5164 121.333 75.8537C121.571 76.1484 121.8 76.4506 122.018 76.761C122.794 77.865 123.437 79.0644 123.927 80.3348C124.433 81.6444 124.776 83.0294 124.936 84.4616C125.053 85.5074 125.071 86.578 124.983 87.6634C124.968 87.8685 124.947 88.0732 124.923 88.2769Z" fill="#92E3A9"/>
<path opacity="0.3" d="M124.934 84.4625L103.028 101.975C101.609 101.474 100.287 100.786 99.0854 99.9437L123.925 80.3358C124.431 81.6457 124.774 83.0306 124.934 84.4625Z" fill="white"/>
<path opacity="0.3" d="M117.509 72.3987L92.9407 91.8113C92.8265 91.4857 92.7222 91.1562 92.6294 90.8226L116.485 71.7819C116.835 71.976 117.176 72.1812 117.509 72.3987Z" fill="white"/>
<path opacity="0.3" d="M122.018 76.7616L96.1796 97.342C95.9165 97.0445 95.664 96.7371 95.4233 96.4211L121.333 75.8543C121.572 76.1491 121.8 76.4512 122.018 76.7616Z" fill="white"/>
<path d="M121.632 87.8867C121.608 88.0887 121.579 88.2902 121.548 88.4898C120.409 95.4349 114 100.333 106.974 99.4969C99.9481 98.6606 94.8541 92.3937 95.3604 85.373C95.3766 85.1719 95.3951 84.9689 95.4186 84.7669C96.2741 77.5046 102.849 72.2967 110.076 73.1567C117.303 74.017 122.487 80.6246 121.632 87.8867Z" fill="#497255"/>
<path d="M121.547 88.4896C120.409 95.4346 114 100.333 106.974 99.4965C106.816 99.4777 106.661 99.4555 106.507 99.4315C104.946 99.19 103.487 98.6791 102.171 97.9503C100.855 97.2216 99.6831 96.2773 98.6976 95.1685C98.447 94.8873 98.2086 94.5961 97.9809 94.2931C96.9526 92.9167 96.1848 91.3421 95.7486 89.6469C95.6424 89.241 95.556 88.8263 95.4902 88.4088C95.3318 87.4229 95.2866 86.4057 95.3601 85.373C96.499 78.428 102.908 73.528 109.934 74.3643C110.822 74.4699 111.68 74.6635 112.502 74.9344C112.919 75.0717 113.329 75.2304 113.727 75.408C115.353 76.1327 116.796 77.1744 117.987 78.4471C118.244 78.7217 118.49 79.0083 118.724 79.3064C119.632 80.4579 120.352 81.7605 120.841 83.1622C121.318 84.5288 121.577 85.987 121.581 87.4911C121.583 87.821 121.572 88.1552 121.547 88.4896Z" fill="#497255"/>
<path opacity="0.2" d="M121.58 87.4905L106.505 99.4308C104.945 99.1893 103.486 98.6784 102.17 97.9497L120.84 83.1613C121.317 84.5282 121.575 85.986 121.58 87.4905Z" fill="#FBE6A1"/>
<path opacity="0.2" d="M113.729 75.4077L95.7508 89.6467C95.6446 89.2408 95.5582 88.8262 95.4924 88.4087L112.504 74.9338C112.921 75.0711 113.331 75.2298 113.729 75.4077Z" fill="#FBE6A1"/>
<path opacity="0.2" d="M118.724 79.306L98.698 95.1684C98.4475 94.8871 98.209 94.596 97.9814 94.293L117.987 78.4468C118.244 78.7216 118.49 79.008 118.724 79.306Z" fill="#FBE6A1"/>
<path d="M109.472 94.0142L109.215 96.2018L106.447 95.8714L106.692 93.7826C104.743 93.4299 102.901 92.6705 101.809 91.8007L103.699 88.5892C104.904 89.5126 106.574 90.2114 108.086 90.3919C109.401 90.5488 109.905 90.3293 109.96 89.8563C110.164 88.1221 102.402 88.6144 103.006 83.4705C103.267 81.2436 105.097 79.5636 108.37 79.4947L108.622 77.3465L111.391 77.6769L111.143 79.7858C112.579 80.0971 113.949 80.6405 114.994 81.4046L113.204 84.6082C111.931 83.7569 110.694 83.2693 109.497 83.1264C108.142 82.9647 107.664 83.3071 107.608 83.7802C107.414 85.4356 115.173 84.963 114.576 90.0475C114.326 92.1757 112.577 93.8453 109.472 94.0142Z" fill="#497255"/>
<path d="M109.476 93.2766L109.219 95.4644L106.452 95.1343L106.697 93.0453C104.748 92.6929 102.907 91.9337 101.815 91.064L103.705 87.8519C104.91 88.7753 106.58 89.4739 108.091 89.6542C109.406 89.811 109.91 89.5914 109.965 89.1183C110.169 87.3839 102.408 87.8773 103.013 82.733C103.275 80.5058 105.104 78.8255 108.377 78.7562L108.629 76.6078L111.397 76.9378L111.149 79.0466C112.585 79.3578 113.955 79.901 114.999 80.665L113.21 83.8691C111.936 83.0179 110.7 82.5304 109.502 82.3877C108.148 82.2261 107.67 82.5689 107.614 83.0418C107.42 84.6973 115.178 84.2237 114.581 89.3086C114.33 91.4373 112.581 93.1073 109.476 93.2766Z" fill="#92E3A9"/>
<path d="M128.52 93.5726L128.243 93.488V140.827L127.311 140.664L125.971 146.205C125.971 146.205 131.495 146.054 131.495 141.407V97.5734C131.495 95.7241 130.287 94.0984 128.52 93.5726Z" fill="#0890FE"/>
<path d="M126.326 93.9897L73.605 82.2351L71.9518 75.968C69.968 79.0865 69.9199 81.4495 69.9199 81.4495V129.785C69.9199 131.864 71.3687 133.665 73.3946 134.094L124.498 146.103C127.228 146.683 129.794 144.592 129.794 141.794V98.2987C129.8 96.2198 128.352 94.4188 126.326 93.9897Z" fill="#37474F"/>
<path d="M131.56 97.1863L130.039 99.0931C130.039 96.0423 127.25 95.0253 125.856 94.8982L77.9468 84.6016C69.4296 82.7711 70.5957 77.7371 72.2433 75.449C73.4601 71.788 80.6085 72.1439 84.0305 72.7795L95.8178 75.449L94.6771 77.3558L81.7492 74.6863C76.578 73.7711 74.0178 76.0846 73.3841 77.3558C72.1673 80.4067 77.1864 82.1863 79.848 82.6948L127.377 93.3728C130.723 93.9829 131.56 96.1694 131.56 97.1863Z" fill="#0890FE"/>
<path d="M123.955 83.1377V81.1694L142.075 85.4997C144.263 85.8146 144.582 90.8797 144.468 93.3728H143.1C143.1 88.9639 141.277 87.5992 140.365 87.468L123.955 83.1377Z" fill="#0890FE"/>
<path d="M134.718 114.066L115.908 109.467C114.453 109.146 113.029 109.322 111.778 109.853L111.766 109.847L111.616 109.926C111.454 109.999 111.291 110.083 111.135 110.168L108.598 111.449L109.019 111.975C108.123 113.135 107.576 114.592 107.576 116.199V116.616C107.576 119.855 109.818 122.66 112.962 123.355L131.821 127.972L132.927 129.35C132.915 129.356 134.574 128.528 135.157 128.232C135.205 128.208 135.247 128.189 135.289 128.165C135.331 128.147 135.361 128.129 135.361 128.129V128.117C136.017 127.73 136.473 127.023 136.473 126.177V116.266C136.485 115.208 135.752 114.289 134.718 114.066Z" fill="#0890FE"/>
<path d="M131.129 129.737L110.341 124.702C107.197 124.007 104.955 121.203 104.955 117.964V117.547C104.955 113.141 109.007 109.866 113.287 110.808L132.097 115.407C133.131 115.637 133.864 116.556 133.864 117.613V127.525C133.858 128.969 132.53 130.045 131.129 129.737Z" fill="#37474F"/>
<path d="M115.223 118.019C115.223 119.826 113.768 121.288 111.971 121.288C110.174 121.288 108.719 119.826 108.719 118.019C108.719 116.212 110.174 114.749 111.971 114.749C113.768 114.749 115.223 116.212 115.223 118.019Z" fill="#D6D5DF" fill-opacity="0.97"/>
<path d="M253.559 78.6379C266.407 81.4834 280.022 72.7973 280.181 67.6523C280.34 62.5074 267.854 73.1886 266.045 67.9518C264.237 62.7151 279.631 60.6136 279.848 55.0774C280.065 49.5411 266.238 62.6136 265.168 59.0774C264.102 55.5411 277.437 47.1691 275.455 43.1014C273.472 39.0337 265.414 53.3527 263.118 51.4203C260.822 49.4928 270.125 36.1497 264.521 35.1255C258.917 34.1013 259.891 46.372 257.938 48.8647C255.985 51.3575 256.101 37.0627 252.763 38.1593C249.426 39.256 255.141 53.0242 252.884 54.8793C250.627 56.7344 247.265 44.5072 243.475 47.3285C239.684 50.1498 249.455 57.9518 248.524 61.5943C247.593 65.232 241.251 54.3575 237.851 57.2368C234.451 60.1112 242.795 76.2563 253.559 78.6379Z" fill="#52D5BA"/>
<path d="M263.147 39.0962C263.147 39.0962 257.325 62.4925 250.207 83.9081" stroke="#4CA5A2" stroke-width="1.6286" stroke-miterlimit="10" stroke-linecap="round"/>
<path d="M274.717 57.6038C274.717 57.6038 258.772 65.4927 253.545 72.6715C253.545 72.6715 253.738 59.8743 245.597 51.1206" stroke="#4CA5A2" stroke-width="1.6286" stroke-miterlimit="10" stroke-linecap="round"/>
<path d="M270.955 47.4055C270.955 47.4055 259.062 58.7727 255.334 67.2704C255.334 67.2704 256.303 51.9079 253.824 43.7871" stroke="#4CA5A2" stroke-width="1.6286" stroke-miterlimit="10" stroke-linecap="round"/>
<path d="M276.983 69.1694C276.983 69.1694 255.421 72.7491 252.71 76.324C252.71 76.324 246.74 62.9181 239.327 59.3384" stroke="#4CA5A2" stroke-width="1.6286" stroke-miterlimit="10" stroke-linecap="round"/>
<path d="M254.629 72.5942C257.947 65.0289 268.234 48.908 277.084 51.1448C287.289 53.7245 264.178 69.686 264.178 69.686C264.178 69.686 280.065 60.5845 284.357 67.7391C288.654 74.8938 265.283 75.8599 265.283 75.8599C265.283 75.8599 277.629 75.0194 275.777 79.6377C273.93 84.2561 254.108 80.1208 252.078 84.5315C250.053 88.9373 252.353 77.7778 254.629 72.5942Z" fill="#52D5BA"/>
<path d="M252.387 82.6039C255.497 74.5266 260.185 66.9227 266.339 60.8212C268.601 58.5796 271.065 56.5458 273.718 54.7825" stroke="#4CA5A2" stroke-width="1.6286" stroke-miterlimit="10" stroke-linecap="round"/>
<path d="M252.498 82.7683C259.173 74.5073 269.32 69.1981 279.761 68.9373" stroke="#4CA5A2" stroke-width="1.6286" stroke-miterlimit="10" stroke-linecap="round"/>
<path d="M252.604 82.8554C258.069 79.5365 264.589 78.3336 270.917 78.7539" stroke="#4CA5A2" stroke-width="1.6286" stroke-miterlimit="10" stroke-linecap="round"/>
<path d="M249.802 81.9565C250.945 78.5941 254.89 76.1496 257.952 74.8888C265.452 71.8018 277.595 69.2124 283.281 77.0095C285.09 79.4927 285.654 82.8453 284.748 85.7826C283.093 91.1498 277.113 93.5894 272.02 94.3285C265.211 95.314 255.589 93.8841 251.065 88.0724C250.284 87.0676 249.681 85.8937 249.522 84.6328C249.406 83.6859 249.522 82.7922 249.802 81.9565Z" fill="#52D5BA"/>
<path d="M250.824 83.9521C250.824 83.9521 271.726 78.3047 283.175 82.1695" stroke="#4CA5A2" stroke-width="1.6286" stroke-miterlimit="10" stroke-linecap="round"/>
<path d="M278.522 87.812C278.522 87.812 273.115 81.2709 270.053 80.9811C270.053 80.9811 274.408 76.7009 277.721 75.7395" stroke="#4CA5A2" stroke-width="1.6286" stroke-miterlimit="10" stroke-linecap="round"/>
<path d="M269.923 73.2847C269.923 73.2847 263.779 77.6229 263.639 81.4586C263.639 81.4586 269.122 86.8838 271.181 91.1834" stroke="#4CA5A2" stroke-width="1.6286" stroke-miterlimit="10" stroke-linecap="round"/>
<path d="M259.178 75.6282C259.178 75.6282 256.805 80.3142 257.171 82.6476C257.171 82.6476 260.615 87.3771 262.462 91.6186" stroke="#4CA5A2" stroke-width="1.6286" stroke-miterlimit="10" stroke-linecap="round"/>
<path d="M77.7979 168.598L77.8159 172.69L92.1774 181.084L121.045 164.332L121.027 160.24L106.665 151.846" fill="#52D5BA"/>
<path d="M103.353 155.526C105.163 156.584 108.108 156.584 109.93 155.526L114.715 158.325C112.893 159.382 112.881 161.092 114.691 162.15L95.4661 173.312C93.6566 172.255 90.717 172.255 88.8955 173.312L84.1104 170.514C85.9318 169.457 85.9378 167.746 84.1284 166.689L103.353 155.526ZM103.696 166.924C106.076 165.54 106.088 163.298 103.726 161.92C101.357 160.536 97.51 160.536 95.1294 161.92C92.7489 163.304 92.7369 165.546 95.0994 166.924C97.4619 168.308 101.315 168.308 103.696 166.924Z" fill="#A8CAFC"/>
<path d="M121.027 160.24L92.1595 176.993L77.792 168.598L106.659 151.846L121.027 160.24ZM88.8952 173.312C90.7167 172.255 93.6624 172.255 95.4658 173.312L114.691 162.15C112.881 161.092 112.893 159.376 114.715 158.324L109.929 155.526C108.108 156.584 105.162 156.584 103.353 155.526L84.1281 166.689C85.9376 167.746 85.9256 169.456 84.1101 170.514L88.8952 173.312Z" fill="#52D5BA"/>
<path d="M90.248 161.364L104.616 169.758L109.01 167.208L94.6485 158.814L90.248 161.364Z" fill="#EDF0FA"/>
<path d="M104.627 169.765L104.645 173.85L109.045 171.3L109.021 167.208L104.627 169.765Z" fill="#D4D7DE"/>
<path d="M92.1598 176.993V181.085L77.8164 172.69V168.599L92.1598 176.993Z" fill="#0890FE"/>
<path d="M75.3027 163.014L75.3208 167.106L89.6883 175.5L118.555 158.748L118.537 154.656L104.164 146.262" fill="#52D5BA"/>
<path d="M100.858 149.942C102.668 151 105.613 151 107.435 149.942L112.22 152.74C110.398 153.798 110.386 155.508 112.196 156.566L92.971 167.728C91.1615 166.67 88.2219 166.67 86.4004 167.728L81.6152 164.93C83.4367 163.872 83.4427 162.162 81.6333 161.104L100.858 149.942ZM101.201 161.34C103.581 159.956 103.593 157.714 101.231 156.336C98.8622 154.952 95.0149 154.952 92.6343 156.336C90.2538 157.72 90.2417 159.962 92.6043 161.34C94.9668 162.718 98.8201 162.724 101.201 161.34Z" fill="#A8CAFC"/>
<path d="M118.532 154.656L89.6644 171.409L75.2969 163.014L104.164 146.262L118.532 154.656ZM86.4001 167.728C88.2216 166.671 91.1672 166.671 92.9707 167.728L112.195 156.566C110.386 155.508 110.398 153.792 112.22 152.74L107.434 149.942C105.613 151 102.667 151 100.858 149.942L81.633 161.105C83.4425 162.162 83.4304 163.872 81.615 164.93L86.4001 167.728Z" fill="#52D5BA"/>
<path d="M87.7529 155.78L102.12 164.174L106.515 161.618L92.1533 153.229L87.7529 155.78Z" fill="#EDF0FA"/>
<path d="M102.133 164.175L102.151 168.266L106.551 165.716L106.527 161.624L102.133 164.175Z" fill="#D4D7DE"/>
<path d="M89.6647 171.409V175.5L75.3213 167.106V163.014L89.6647 171.409Z" fill="#0890FE"/>
<path d="M147.113 153.318C147.113 153.329 147.113 153.34 147.113 153.351C147.113 153.763 146.891 154.158 146.481 154.527C146.381 154.618 146.27 154.706 146.148 154.793C145.807 155.036 145.382 155.265 144.886 155.478C144.778 155.524 144.667 155.569 144.552 155.613C144.167 155.763 143.745 155.903 143.29 156.033C143.181 156.064 143.07 156.095 142.957 156.124C142.559 156.23 142.137 156.327 141.694 156.416C141.585 156.438 141.474 156.459 141.361 156.48C140.956 156.556 140.535 156.625 140.099 156.685C139.989 156.701 139.878 156.716 139.766 156.731C139.356 156.783 138.935 156.829 138.504 156.868C138.393 156.878 138.282 156.888 138.171 156.897C137.758 156.93 137.337 156.957 136.908 156.976C136.798 156.982 136.687 156.986 136.575 156.99C136.16 157.006 135.739 157.015 135.313 157.017C135.239 157.018 135.164 157.018 135.09 157.018C135.053 157.018 135.016 157.018 134.98 157.017C134.553 157.016 134.132 157.009 133.717 156.994C133.606 156.991 133.495 156.986 133.384 156.981C133.068 156.968 132.757 156.95 132.449 156.929C132.339 156.922 132.23 156.914 132.122 156.905C132.01 156.897 131.899 156.887 131.789 156.878C131.357 156.84 130.936 156.796 130.527 156.744C130.415 156.73 130.304 156.716 130.193 156.701C129.932 156.665 129.676 156.627 129.425 156.586C129.259 156.559 129.094 156.53 128.931 156.5C128.819 156.48 128.708 156.459 128.598 156.437C128.157 156.351 127.735 156.256 127.336 156.153C127.257 156.133 127.179 156.112 127.101 156.091C127.068 156.082 127.035 156.073 127.003 156.064C126.822 156.014 126.646 155.962 126.476 155.909C126.219 155.828 125.973 155.744 125.74 155.656C125.626 155.613 125.515 155.569 125.407 155.525C124.981 155.348 124.606 155.16 124.288 154.962C124.239 154.931 124.191 154.901 124.145 154.87C124.087 154.831 124.031 154.792 123.979 154.753C123.92 154.71 123.865 154.667 123.812 154.623C123.33 154.227 123.067 153.798 123.067 153.351C123.067 153.319 123.069 153.288 123.072 153.257L123.073 150.722L123.812 150.721L124.145 150.721L125.407 150.719L125.741 150.718L126.726 150.717L127.003 150.716L127.336 150.716L128.599 150.714L128.932 150.714L130.194 150.712L130.527 150.711L131.789 150.709L132.122 150.709L133.384 150.707L133.718 150.707L134.98 150.705L135.313 150.704L136.576 150.703L136.909 150.702L138.171 150.7L138.504 150.7L139.766 150.698L140.1 150.697L141.362 150.695L141.695 150.695L142.957 150.693L143.291 150.693H143.373L144.553 150.691L144.886 150.69L146.148 150.688L146.481 150.688L147.109 150.687L147.113 153.317H147.113V153.318Z" fill="#92E3A9"/>
<path d="M124.146 150.721V154.87C124.088 154.831 124.032 154.792 123.979 154.753C123.921 154.711 123.866 154.667 123.812 154.623V150.721L124.146 150.721Z" fill="#497255"/>
<path d="M125.74 150.718V155.656C125.626 155.613 125.515 155.569 125.407 155.525V150.719L125.74 150.718Z" fill="#497255"/>
<path d="M127.336 150.716V156.153C127.257 156.133 127.179 156.112 127.102 156.091C127.069 156.082 127.036 156.073 127.003 156.064V150.717L127.336 150.716Z" fill="#497255"/>
<path d="M128.932 150.714V156.501C128.82 156.48 128.709 156.459 128.599 156.437V150.714L128.932 150.714Z" fill="#497255"/>
<path d="M130.528 150.712V156.745C130.415 156.731 130.305 156.716 130.194 156.701V150.712L130.528 150.712Z" fill="#497255"/>
<path d="M132.122 150.709V156.905C132.011 156.897 131.9 156.888 131.789 156.878V150.71L132.122 150.709Z" fill="#497255"/>
<path d="M133.718 150.707V156.995C133.606 156.991 133.495 156.987 133.385 156.982V150.708L133.718 150.707Z" fill="#497255"/>
<path d="M135.314 150.704V157.017C135.24 157.017 135.165 157.018 135.091 157.018C135.054 157.018 135.017 157.018 134.98 157.017V150.705L135.314 150.704Z" fill="#497255"/>
<path d="M136.909 150.702V156.977C136.799 156.982 136.688 156.986 136.576 156.99V150.703L136.909 150.702Z" fill="#497255"/>
<path d="M138.504 150.7V156.868C138.394 156.878 138.283 156.888 138.171 156.897V150.7L138.504 150.7Z" fill="#497255"/>
<path d="M140.1 150.698V156.685C139.99 156.701 139.879 156.716 139.767 156.731V150.698L140.1 150.698Z" fill="#497255"/>
<path d="M141.696 150.695V156.416C141.586 156.438 141.475 156.459 141.362 156.48V150.696L141.696 150.695Z" fill="#497255"/>
<path d="M143.291 150.693V156.032C143.182 156.063 143.071 156.094 142.958 156.124V150.693L143.291 150.693Z" fill="#497255"/>
<path d="M144.886 150.691V155.478C144.778 155.524 144.667 155.569 144.553 155.613V150.691L144.886 150.691Z" fill="#497255"/>
<path d="M146.482 150.688V154.527C146.381 154.617 146.27 154.706 146.148 154.793V150.688L146.482 150.688Z" fill="#497255"/>
<path d="M147.11 150.719C147.11 152.581 141.73 154.09 135.091 154.09C134.184 154.09 133.3 154.062 132.45 154.008C131.382 153.941 130.367 153.834 129.428 153.693C128.589 153.567 127.809 153.414 127.104 153.238C126.889 153.184 126.68 153.128 126.479 153.07C125.595 152.816 124.854 152.522 124.291 152.2C124.181 152.137 124.078 152.073 123.982 152.008C123.395 151.611 123.071 151.176 123.071 150.719C123.071 150.677 123.074 150.636 123.081 150.594C123.314 148.79 128.602 147.348 135.091 147.348C136.687 147.348 138.211 147.436 139.605 147.594C139.874 147.625 140.138 147.658 140.398 147.694C141.53 147.851 142.561 148.055 143.457 148.299C143.654 148.353 143.845 148.409 144.029 148.466C144.684 148.67 145.251 148.897 145.713 149.141C146.19 149.393 146.557 149.664 146.794 149.949C146.967 150.158 147.072 150.373 147.1 150.594C147.107 150.636 147.11 150.678 147.11 150.719Z" fill="#92E3A9"/>
<path opacity="0.3" d="M146.794 149.949L132.451 154.008C131.382 153.941 130.368 153.834 129.428 153.693L145.713 149.141C146.191 149.393 146.557 149.664 146.794 149.949Z" fill="white"/>
<path opacity="0.3" d="M140.398 147.694L124.292 152.2C124.182 152.137 124.078 152.073 123.982 152.008L139.605 147.594C139.874 147.625 140.139 147.658 140.398 147.694Z" fill="white"/>
<path opacity="0.3" d="M144.03 148.466L127.105 153.239C126.889 153.185 126.68 153.129 126.479 153.071L143.457 148.3C143.655 148.354 143.846 148.409 144.03 148.466Z" fill="white"/>
<path d="M144.697 150.72C144.697 150.761 144.693 150.802 144.688 150.843C144.456 152.272 140.24 153.413 135.091 153.413C129.941 153.413 125.726 152.271 125.494 150.843C125.488 150.802 125.484 150.761 125.484 150.72C125.484 149.234 129.794 148.025 135.091 148.025C140.388 148.025 144.697 149.234 144.697 150.72Z" fill="#497255"/>
<path d="M144.688 150.843C144.457 152.272 140.241 153.414 135.091 153.414C134.976 153.414 134.862 153.413 134.748 153.412C133.6 153.4 132.502 153.332 131.488 153.217C130.475 153.102 129.548 152.939 128.741 152.739C128.536 152.688 128.339 152.635 128.148 152.58C127.288 152.327 126.599 152.028 126.139 151.696C126.028 151.617 125.93 151.535 125.847 151.453C125.648 151.258 125.529 151.053 125.494 150.843C125.726 149.415 129.941 148.272 135.091 148.272C135.743 148.272 136.379 148.291 136.996 148.326C137.31 148.343 137.619 148.366 137.922 148.392C139.159 148.499 140.291 148.675 141.26 148.903C141.469 148.952 141.671 149.004 141.866 149.058C142.62 149.269 143.252 149.514 143.725 149.785C144.186 150.05 144.497 150.338 144.628 150.641C144.658 150.707 144.678 150.775 144.688 150.843Z" fill="#497255"/>
<path opacity="0.2" d="M144.628 150.641L134.748 153.412C133.6 153.4 132.502 153.332 131.488 153.217L143.725 149.785C144.186 150.05 144.497 150.338 144.628 150.641Z" fill="#FBE6A1"/>
<path opacity="0.2" d="M137.922 148.392L126.139 151.696C126.028 151.617 125.93 151.535 125.847 151.452L136.996 148.325C137.31 148.343 137.62 148.365 137.922 148.392Z" fill="#FBE6A1"/>
<path opacity="0.2" d="M141.865 149.058L128.74 152.739C128.535 152.688 128.338 152.635 128.147 152.58L141.259 148.903C141.468 148.952 141.671 149.004 141.865 149.058Z" fill="#FBE6A1"/>
<path d="M136.428 152.248V152.695H134.4V152.268C132.963 152.244 131.568 152.135 130.705 151.985L131.798 151.292C132.747 151.449 134.012 151.55 135.119 151.55C136.083 151.55 136.428 151.493 136.428 151.397C136.428 151.042 130.863 151.328 130.863 150.276C130.863 149.82 132.042 149.437 134.401 149.344V148.905H136.428V149.336C137.492 149.364 138.527 149.441 139.347 149.57L138.326 150.259C137.334 150.118 136.399 150.05 135.522 150.05C134.53 150.05 134.214 150.13 134.214 150.227C134.214 150.566 139.778 150.284 139.778 151.324C139.778 151.76 138.656 152.139 136.428 152.248Z" fill="#92E3A9"/>
<path d="M136.368 152.099V152.547H134.341V152.119C132.903 152.095 131.508 151.986 130.646 151.837L131.738 151.143C132.687 151.3 133.953 151.401 135.06 151.401C136.023 151.401 136.368 151.345 136.368 151.248C136.368 150.893 130.804 151.179 130.804 150.127C130.804 149.671 131.983 149.288 134.341 149.195V148.756H136.368V149.187C137.432 149.216 138.468 149.292 139.287 149.421L138.266 150.111C137.274 149.97 136.34 149.901 135.463 149.901C134.471 149.901 134.154 149.982 134.154 150.078C134.154 150.417 139.719 150.135 139.719 151.175C139.718 151.611 138.597 151.99 136.368 152.099Z" fill="#92E3A9"/>
<g filter="url(#filter0_d_70_1824)">
<path d="M206.689 104.511C204.425 104.485 202.608 102.375 202.632 99.7974L203.402 15.6664C203.425 13.0891 205.28 11.021 207.544 11.047L249.316 11.5256C251.581 11.5516 253.397 13.6617 253.373 16.239L252.604 100.37C252.58 102.947 250.725 105.015 248.461 104.989L206.689 104.511Z" fill="white"/>
<path d="M248.946 13.348C250.63 13.348 251.992 14.9133 251.992 16.8502V101.156C251.992 103.093 250.63 104.658 248.946 104.658H207.503C205.818 104.658 204.456 103.093 204.456 101.156V16.8502C204.456 14.9133 205.818 13.348 207.503 13.348H248.946ZM248.946 11.0002H207.503C204.695 11.0002 202.414 13.622 202.414 16.8502V101.156C202.414 104.384 204.695 107.006 207.503 107.006H248.946C251.754 107.006 254.034 104.384 254.034 101.156V16.8502C254.034 13.622 251.754 11.0002 248.946 11.0002Z" fill="black"/>
</g>
<path d="M212.738 14.087V12.6003H242.916V14.3658C242.493 15.3321 240.887 15.6976 240.137 15.7595C232.68 15.7905 217.291 15.8338 215.385 15.7595C213.479 15.6852 212.827 14.6135 212.738 14.087Z" fill="black"/>
<path fill-rule="evenodd" clip-rule="evenodd" d="M179.222 38.0057C172.915 33.817 165.317 32.4728 157.827 34.2211C156.742 34.4741 155.661 34.793 154.615 35.1685C151.834 36.1663 149.22 37.5828 146.845 39.3784C144.644 41.0434 142.671 43.0174 140.973 45.2525L137.328 41.318L136.303 40.2122L136.365 41.723L136.864 53.7372L136.897 54.5314L137.627 54.2403L148.674 49.8366L150.126 49.2579L148.635 48.776L144.283 47.37C147.347 43.4445 151.361 40.515 155.934 38.8741C156.842 38.5484 157.778 38.272 158.718 38.0525C165.167 36.5475 171.697 37.699 177.107 41.2948L177.573 41.6049L177.878 41.1346L179.392 38.795L179.523 38.5966L179.471 38.3604L179.418 38.1248L179.222 38.0057Z" fill="#F2F1F9"/>
<path d="M175.711 147.703L176.175 155.357L175.927 157.765L166.834 157.717C166.604 157.717 166.42 157.529 166.42 157.298C166.42 157.127 166.527 156.971 166.687 156.909L170.743 155.037L169.827 147.073" fill="#FFCBBD"/>
<path d="M166.008 157.615C166.104 157.312 166.281 156.974 166.46 156.896L170.762 155.037C173.132 156.003 176.202 155.265 176.202 155.265L176.437 158.516C176.437 158.623 176.349 158.709 176.242 158.709L166.083 158.655C165.869 158.652 166.005 157.623 166.008 157.615Z" fill="#37474F"/>
<path d="M169.829 155.222C170.07 155.538 170.273 155.882 170.436 156.244" stroke="#E6D8D6" stroke-width="0.75" stroke-miterlimit="10"/>
<path d="M169.286 155.547C169.535 155.893 169.636 156.094 169.786 156.416" stroke="#E5D8D6" stroke-width="0.75" stroke-miterlimit="10"/>
<path d="M168.565 118.289C168.565 118.289 167.259 129.062 167.758 136.885C168.258 144.707 168.98 153.785 168.98 153.785H176.883C176.883 153.785 175.86 140.352 175.972 134.066C176.098 127.099 178.219 118.292 178.219 118.292" fill="black"/>
<path d="M175.28 153.783C175.28 153.783 174.257 140.349 174.369 134.063C174.495 127.096 176.616 118.289 176.616 118.289" stroke="#121649" stroke-width="0.75" stroke-miterlimit="10"/>
<path d="M186.094 137.449L193.423 139.815L195.636 140.78L192.841 149.464C192.771 149.684 192.536 149.804 192.317 149.732C192.154 149.678 192.039 149.531 192.029 149.357L191.478 144.91L183.868 142.427" fill="#FFCBBD"/>
<path d="M192.493 150.226C192.234 150.043 191.967 149.77 191.948 149.577L191.483 144.9C193.116 142.923 193.343 139.764 193.343 139.764L196.501 140.523C196.603 140.555 196.659 140.665 196.627 140.767L193.503 150.47C193.437 150.671 192.501 150.231 192.493 150.226Z" fill="#37474F"/>
<path d="M191.376 145.845C191.747 145.711 192.138 145.62 192.53 145.575" stroke="#E5D8D6" stroke-width="0.75" stroke-miterlimit="10"/>
<path d="M191.521 146.463C191.927 146.329 192.146 146.294 192.496 146.249" stroke="#E5D8D6" stroke-width="0.75" stroke-miterlimit="10"/>
<path d="M181.434 118.635C181.434 118.635 182.144 121.697 182.144 123.011C182.144 123.977 181.762 124.634 181.559 125.339C181.471 125.642 181.423 125.95 181.41 126.264C181.348 127.672 181.268 131.625 182.147 133.505C183.227 135.814 192.215 138.879 192.215 138.879L189.936 145.769C189.936 145.769 176.175 142.299 174.46 138.072C172.066 132.175 172.75 118.637 172.75 118.637" fill="black"/>
<path d="M176.117 140.043C175.323 139.413 174.733 138.751 174.458 138.069C172.064 132.172 172.748 118.635 172.748 118.635" stroke="#121649" stroke-width="0.75" stroke-miterlimit="10"/>
<path d="M180.266 118.379C180.266 118.379 181.073 122.233 181.073 123.547C181.073 124.531 180.675 125.223 180.475 125.915C180.395 126.194 180.347 126.481 180.328 126.773C180.242 128.165 180.09 132.196 181.073 134.044C182.433 136.602 191.85 139.97 191.85 139.97" stroke="#121649" stroke-width="0.75" stroke-miterlimit="10"/>
<path d="M171.625 119.388C171.625 119.388 171.505 122.169 171.892 122.501C172.28 122.834 172.656 123.057 172.656 123.057" stroke="#121649" stroke-width="0.75" stroke-miterlimit="10"/>
<path d="M168.872 152.417H176.784" stroke="#121649" stroke-width="0.75" stroke-miterlimit="10"/>
<path d="M178.099 118.846C178.099 118.846 178.59 120.622 180.787 121.145" stroke="#121649" stroke-width="0.75" stroke-miterlimit="10"/>
<path d="M168.312 120.836C168.312 120.836 170.294 120.254 170.903 118.849" stroke="#121649" stroke-width="0.75" stroke-miterlimit="10"/>
<path d="M173.095 97.3657L172.739 99.8625C172.739 99.8625 172.707 100.554 174.049 101.034C175.671 101.619 176.656 100.364 176.656 100.364L176.55 97.8377" fill="#C7C7C7"/>
<path d="M172.897 94.0552C172.897 94.0552 171.173 96.9462 172.37 98.102C173.455 99.1506 175.841 98.4936 176.06 98.1262C176.277 97.7588 177.637 94.5299 176.894 94.0847C175.569 93.2936 173.634 92.8109 172.897 94.0552Z" fill="#C7C7C7"/>
<path d="M172.912 98.6419C172.912 98.6419 174.08 99.0172 175.159 98.5454" stroke="#C7C7C7" stroke-miterlimit="10"/>
<path d="M172.608 92.1763C172.835 90.468 174.898 91.7472 175.737 92.525C175.988 92.7583 177.461 93.1927 177.701 93.4394C177.942 93.6862 178.134 93.9892 178.198 94.3298C178.254 94.6275 178.206 94.9332 178.134 95.2255C178.006 95.7538 177.797 96.258 177.592 96.7595C177.367 97.3066 176.964 98.3954 176.186 98.2827C176.036 98.2613 175.871 98.2318 175.772 98.1165C175.673 98.0012 175.67 97.8349 175.686 97.6847C175.713 97.4407 175.788 97.202 175.9 96.9848C175.74 97.0277 175.574 97.1269 175.419 97.0652C175.368 97.0438 175.344 96.9955 175.315 96.9472C175.213 96.7809 175.336 95.6761 175.849 95.2416C175.109 94.8903 174.529 94.8581 173.776 94.539C173.169 94.2815 172.908 93.9704 172.691 93.6781C172.376 93.2598 172.539 92.6939 172.608 92.1763Z" fill="#131313"/>
<path d="M175.715 96.885C175.905 96.6195 176.193 96.3138 176.471 96.5927C176.57 96.6919 176.597 96.8555 176.608 97.0137C176.642 97.534 176.116 98.1991 175.659 98.0167C175.435 97.9282 175.373 97.6225 175.333 97.3704" fill="#C7C7C7"/>
<path d="M173.276 95.3323C173.276 95.3323 172.53 96.0671 172.53 96.3165C172.53 96.5659 173.089 96.7214 173.089 96.7214" stroke="#4C4545" stroke-opacity="0.34" stroke-width="0.5" stroke-miterlimit="10"/>
<path d="M172.25 96.8098L173.586 97.3113C173.586 97.3113 173.276 98.1051 172.474 97.7404C171.903 97.4803 172.25 96.8098 172.25 96.8098Z" fill="white"/>
<path d="M172.709 94.9223C172.669 94.9813 172.632 95.0403 172.597 95.1046C172.53 95.2253 172.717 95.3326 172.779 95.2119C172.816 95.1422 172.848 95.0698 172.878 94.9947C172.918 94.8874 172.766 94.8418 172.709 94.9223Z" fill="#212237"/>
<path d="M173.285 94.6674C173.285 94.6674 173.119 94.2948 172.721 94.469" stroke="#212237" stroke-width="0.5" stroke-miterlimit="10" stroke-linecap="round" stroke-linejoin="round"/>
<path d="M174.377 95.7267C174.34 95.7884 174.308 95.8501 174.276 95.9144C174.217 96.0378 174.404 96.1451 174.458 96.0217C174.49 95.9493 174.519 95.8742 174.546 95.7991C174.578 95.6945 174.431 95.6382 174.377 95.7267Z" fill="#212237"/>
<path d="M174.433 95.1094C174.433 95.1094 174.839 95.0638 175.133 95.6001" stroke="#212237" stroke-width="0.5" stroke-miterlimit="10" stroke-linecap="round" stroke-linejoin="round"/>
<path d="M172.79 99.5073C171.705 99.5073 170.014 96.0264 170.014 96.0264L165.658 99.2767C165.658 99.2767 167.05 103.624 169.41 106.378" fill="#64E3AB"/>
<path d="M184.055 84.6613C183.823 83.0656 183.216 79.3057 182.949 79.244C182.682 79.1824 182.57 80.0781 182.679 80.4428C182.508 79.7589 182.038 78.2652 181.755 78.2759C181.37 78.2893 181.854 80.4401 181.854 80.4401C181.854 80.4401 181.207 78.1096 180.876 78.2196C180.64 78.2974 181.055 80.0968 181.124 80.8075C180.95 80.0513 180.475 78.6675 180.232 78.7533C179.991 78.8391 180.293 80.2604 180.44 81.2152C180.293 80.6278 179.946 79.3513 179.719 79.4184C179.491 79.4854 180.082 82.4354 180.435 85.3773" fill="#C7C7C7"/>
<path d="M183.301 99.6663C183.301 99.6663 184.266 96.1854 184.565 92.2726C184.864 88.3599 183.843 83.522 183.843 83.522L180.359 84.7636C180.359 84.7636 181.388 91.5861 178.483 99.0576" fill="#C7C7C7"/>
<path d="M172.789 99.5081C172.789 99.5081 173.001 100.12 174.203 100.181C175.75 100.262 176.61 99.5081 176.61 99.5081C176.61 99.5081 181.222 100.122 181.596 105.18C182.027 111.005 182.144 119.187 182.144 119.187H167.761C167.761 119.187 167.857 109.844 168.159 105.384C168.447 101.112 172.789 99.5081 172.789 99.5081Z" fill="#64E3AB"/>
<path d="M181.586 105.818C183.32 101.291 183.937 97.8367 183.937 97.8367L179.32 95.592C179.32 95.592 178.222 98.6681 176.613 99.5048" fill="#64E3AB"/>
<path d="M172.242 99.2773C172.242 99.2773 172.488 100.962 174.358 100.962C176.656 100.962 177.111 99.2773 177.111 99.2773" stroke="#64E3AB" stroke-width="0.75" stroke-miterlimit="10"/>
<path d="M182.679 80.4433C182.676 80.4272 182.7 80.4701 182.708 80.4862L182.743 80.5506L182.802 80.682C182.842 80.7705 182.871 80.859 182.9 80.9502C182.957 81.1325 182.999 81.3149 183.018 81.5107C182.959 81.4302 182.916 81.3444 182.874 81.2586C182.831 81.1728 182.802 81.0816 182.772 80.9904C182.745 80.8992 182.719 80.808 182.703 80.7115L182.679 80.5694L182.673 80.497L182.671 80.4594C182.668 80.4541 182.673 80.4138 182.679 80.4433Z" fill="#C7C7C7"/>
<path d="M242.859 66.586C242.542 74.3155 236.052 80.3245 228.361 80.0057C227.311 79.9621 226.292 79.8027 225.317 79.5396C224.091 79.2101 222.934 78.7164 221.869 78.0856C220.918 77.5228 220.042 76.8494 219.255 76.085C219.014 75.8516 218.782 75.6093 218.559 75.3589C217.579 74.2598 216.77 73.0058 216.173 71.6403C216.056 71.3736 215.947 71.103 215.848 70.8282C215.235 69.151 214.934 67.3273 215.012 65.4318C215.019 65.2587 215.03 65.0854 215.045 64.9125C215.622 57.4346 221.993 51.7004 229.51 52.0121C231.359 52.0887 233.11 52.5246 234.697 53.2494C235.004 53.3898 235.304 53.5403 235.598 53.7018C236.883 54.4058 238.043 55.3063 239.039 56.3616C239.259 56.5943 239.471 56.8338 239.674 57.0809C240.398 57.9598 241.016 58.9276 241.51 59.9652C242.02 61.0347 242.398 62.1782 242.624 63.3734C242.79 64.2463 242.874 65.1462 242.869 66.0657C242.87 66.2393 242.866 66.4129 242.859 66.586Z" fill="#92E3A9"/>
<path opacity="0.3" d="M242.625 63.3745L225.317 79.5405C224.091 79.211 222.934 78.7173 221.869 78.0865L241.51 59.9663C242.02 61.0361 242.398 62.1796 242.625 63.3745Z" fill="white"/>
<path opacity="0.3" d="M235.599 53.7014L216.173 71.6396C216.056 71.373 215.947 71.1024 215.848 70.8276L234.697 53.2488C235.004 53.3894 235.305 53.54 235.599 53.7014Z" fill="white"/>
<path opacity="0.3" d="M239.674 57.0816L219.255 76.0855C219.015 75.8521 218.782 75.6098 218.56 75.3594L239.04 56.3623C239.259 56.595 239.471 56.8345 239.674 57.0816Z" fill="white"/>
<path d="M240.064 66.4698C240.057 66.6414 240.045 66.813 240.032 66.983C239.52 72.9033 234.442 77.4431 228.477 77.1958C222.511 76.9484 217.822 72.0041 217.797 66.0613C217.798 65.891 217.8 65.7189 217.807 65.5473C218.06 59.3784 223.258 54.5672 229.394 54.8214C235.531 55.0758 240.317 60.3012 240.064 66.4698Z" fill="#92E3A9"/>
<path d="M240.032 66.9833C239.52 72.9035 234.442 77.4434 228.477 77.196C228.343 77.1904 228.211 77.1818 228.079 77.1717C226.751 77.0698 225.49 76.7345 224.336 76.2066C223.182 75.6787 222.135 74.9599 221.235 74.0906C221.006 73.8702 220.786 73.6405 220.575 73.4003C219.622 72.3085 218.874 71.0329 218.398 69.6342C218.283 69.2994 218.184 68.956 218.101 68.6088C217.905 67.7892 217.801 66.9359 217.797 66.0618C218.309 60.1415 223.387 55.6002 229.352 55.8475C230.107 55.8787 230.841 55.9859 231.55 56.1605C231.91 56.249 232.265 56.3559 232.611 56.4796C234.026 56.9839 235.307 57.7671 236.391 58.761C236.625 58.9754 236.85 59.2008 237.066 59.4364C237.904 60.3468 238.594 61.3965 239.096 62.5446C239.585 63.664 239.896 64.8747 239.997 66.1406C240.019 66.4181 240.031 66.7002 240.032 66.9833Z" fill="#497255"/>
<path opacity="0.2" d="M239.997 66.1404L228.08 77.1715C226.751 77.0696 225.491 76.7343 224.337 76.2064L239.096 62.5442C239.585 63.6639 239.897 64.8743 239.997 66.1404Z" fill="#FBE6A1"/>
<path opacity="0.2" d="M232.611 56.4797L218.399 69.6346C218.283 69.2998 218.184 68.9564 218.102 68.6092L231.55 56.1604C231.91 56.2488 232.265 56.3558 232.611 56.4797Z" fill="#FBE6A1"/>
<path opacity="0.2" d="M237.066 59.4362L221.234 74.0906C221.006 73.8701 220.786 73.6405 220.575 73.4002L236.39 58.7607C236.624 58.9754 236.85 59.2005 237.066 59.4362Z" fill="#FBE6A1"/>
<path d="M230.223 72.4204L230.147 74.2791L227.798 74.1818L227.871 72.407C226.21 72.2374 224.613 71.7184 223.639 71.0574L225.023 68.2299C226.095 68.9286 227.544 69.4078 228.827 69.461C229.943 69.5072 230.352 69.2895 230.368 68.8875C230.429 67.414 223.934 68.3358 224.113 63.9653C224.191 62.0731 225.622 60.5391 228.369 60.2671L228.444 58.4419L230.793 58.5392L230.719 60.331C231.947 60.4993 233.134 60.8673 234.061 61.4423L232.761 64.2567C231.636 63.6231 230.565 63.2934 229.549 63.2514C228.399 63.2037 228.019 63.5233 228.003 63.9252C227.945 65.3318 234.439 64.4268 234.262 68.7469C234.187 70.5551 232.824 72.0752 230.223 72.4204Z" fill="#497255"/>
<path d="M230.18 71.7986L230.104 73.6573L227.755 73.56L227.828 71.7852C226.167 71.6156 224.57 71.0966 223.596 70.4356L224.98 67.608C226.052 68.3068 227.501 68.786 228.784 68.8392C229.9 68.8854 230.309 68.6677 230.325 68.2657C230.386 66.7922 223.891 67.714 224.07 63.3435C224.148 61.4513 225.579 59.9173 228.327 59.6453L228.401 57.8201L230.75 57.9174L230.676 59.7089C231.904 59.8772 233.091 60.2452 234.018 60.8203L232.718 63.6347C231.593 63.0011 230.522 62.6714 229.506 62.6293C228.356 62.5816 227.976 62.9015 227.96 63.3032C227.902 64.7097 234.396 63.8047 234.219 68.1248C234.145 69.9333 232.781 71.4534 230.18 71.7986Z" fill="#92E3A9"/>
<path d="M266.859 111.586C266.542 119.316 260.052 125.325 252.361 125.006C251.311 124.962 250.292 124.803 249.317 124.54C248.091 124.21 246.934 123.716 245.869 123.086C244.918 122.523 244.042 121.849 243.255 121.085C243.014 120.852 242.782 120.609 242.559 120.359C241.579 119.26 240.77 118.006 240.173 116.64C240.056 116.374 239.947 116.103 239.848 115.828C239.235 114.151 238.934 112.327 239.012 110.432C239.019 110.259 239.03 110.085 239.045 109.913C239.622 102.435 245.993 96.7004 253.51 97.0121C255.359 97.0887 257.11 97.5246 258.697 98.2494C259.004 98.3898 259.304 98.5403 259.598 98.7018C260.883 99.4058 262.043 100.306 263.039 101.362C263.259 101.594 263.471 101.834 263.674 102.081C264.398 102.96 265.016 103.928 265.51 104.965C266.02 106.035 266.398 107.178 266.624 108.373C266.79 109.246 266.874 110.146 266.869 111.066C266.87 111.239 266.866 111.413 266.859 111.586Z" fill="#92E3A9"/>
<path opacity="0.3" d="M266.625 108.375L249.317 124.54C248.091 124.211 246.934 123.717 245.869 123.086L265.51 104.966C266.02 106.036 266.398 107.18 266.625 108.375Z" fill="white"/>
<path opacity="0.3" d="M259.599 98.7014L240.173 116.64C240.056 116.373 239.947 116.102 239.848 115.828L258.697 98.2488C259.004 98.3894 259.305 98.54 259.599 98.7014Z" fill="white"/>
<path opacity="0.3" d="M263.674 102.082L243.255 121.085C243.015 120.852 242.782 120.61 242.56 120.359L263.04 101.362C263.259 101.595 263.471 101.834 263.674 102.082Z" fill="white"/>
<path d="M264.064 111.47C264.057 111.641 264.045 111.813 264.032 111.983C263.52 117.903 258.442 122.443 252.477 122.196C246.511 121.948 241.822 117.004 241.797 111.061C241.798 110.891 241.8 110.719 241.807 110.547C242.06 104.378 247.258 99.5672 253.394 99.8214C259.531 100.076 264.317 105.301 264.064 111.47Z" fill="#92E3A9"/>
<path d="M264.032 111.983C263.52 117.904 258.442 122.443 252.477 122.196C252.343 122.19 252.211 122.182 252.079 122.172C250.751 122.07 249.49 121.734 248.336 121.207C247.182 120.679 246.135 119.96 245.235 119.091C245.006 118.87 244.786 118.641 244.575 118.4C243.622 117.308 242.874 116.033 242.398 114.634C242.283 114.299 242.184 113.956 242.101 113.609C241.905 112.789 241.801 111.936 241.797 111.062C242.309 105.142 247.387 100.6 253.352 100.848C254.107 100.879 254.841 100.986 255.55 101.161C255.91 101.249 256.265 101.356 256.611 101.48C258.026 101.984 259.307 102.767 260.391 103.761C260.625 103.975 260.85 104.201 261.066 104.436C261.904 105.347 262.594 106.397 263.096 107.545C263.585 108.664 263.896 109.875 263.997 111.141C264.019 111.418 264.031 111.7 264.032 111.983Z" fill="#497255"/>
<path opacity="0.2" d="M263.997 111.14L252.08 122.172C250.751 122.07 249.491 121.734 248.337 121.206L263.096 107.544C263.585 108.664 263.897 109.874 263.997 111.14Z" fill="#FBE6A1"/>
<path opacity="0.2" d="M256.611 101.48L242.399 114.635C242.283 114.3 242.184 113.956 242.102 113.609L255.55 101.16C255.91 101.249 256.265 101.356 256.611 101.48Z" fill="#FBE6A1"/>
<path opacity="0.2" d="M261.066 104.436L245.234 119.091C245.006 118.87 244.786 118.64 244.575 118.4L260.39 103.761C260.624 103.975 260.85 104.2 261.066 104.436Z" fill="#FBE6A1"/>
<path d="M254.223 117.42L254.147 119.279L251.798 119.182L251.871 117.407C250.21 117.237 248.613 116.718 247.639 116.057L249.023 113.23C250.095 113.929 251.544 114.408 252.827 114.461C253.943 114.507 254.352 114.289 254.368 113.888C254.429 112.414 247.934 113.336 248.113 108.965C248.191 107.073 249.622 105.539 252.369 105.267L252.444 103.442L254.793 103.539L254.719 105.331C255.947 105.499 257.134 105.867 258.061 106.442L256.761 109.257C255.636 108.623 254.565 108.293 253.549 108.251C252.399 108.204 252.019 108.523 252.003 108.925C251.945 110.332 258.439 109.427 258.262 113.747C258.187 115.555 256.824 117.075 254.223 117.42Z" fill="#497255"/>
<path d="M254.18 116.799L254.104 118.657L251.755 118.56L251.828 116.785C250.167 116.616 248.57 116.097 247.596 115.436L248.98 112.608C250.052 113.307 251.501 113.786 252.784 113.839C253.9 113.885 254.309 113.668 254.325 113.266C254.386 111.792 247.891 112.714 248.07 108.343C248.148 106.451 249.579 104.917 252.327 104.645L252.401 102.82L254.75 102.917L254.676 104.709C255.904 104.877 257.091 105.245 258.018 105.82L256.718 108.635C255.593 108.001 254.522 107.671 253.506 107.629C252.356 107.582 251.976 107.901 251.96 108.303C251.902 109.71 258.396 108.805 258.219 113.125C258.145 114.933 256.781 116.453 254.18 116.799Z" fill="#92E3A9"/>
<defs>
<filter id="filter0_d_70_1824" x="187.414" y="0.000244141" width="81.6201" height="126.006" filterUnits="userSpaceOnUse" color-interpolation-filters="sRGB">
<feFlood flood-opacity="0" result="BackgroundImageFix"/>
<feColorMatrix in="SourceAlpha" type="matrix" values="0 0 0 0 0 0 0 0 0 0 0 0 0 0 0 0 0 0 127 0" result="hardAlpha"/>
<feOffset dy="4"/>
<feGaussianBlur stdDeviation="7.5"/>
<feColorMatrix type="matrix" values="0 0 0 0 0 0 0 0 0 0 0 0 0 0 0 0 0 0 0.1 0"/>
<feBlend mode="normal" in2="BackgroundImageFix" result="effect1_dropShadow_70_1824"/>
<feBlend mode="normal" in="SourceGraphic" in2="effect1_dropShadow_70_1824" result="shape"/>
</filter>
</defs>
</svg>
