<svg width="200" height="200" viewBox="0 0 407 407" fill="none" xmlns="http://www.w3.org/2000/svg">
<path d="M19.4905 337.127L149.949 206.668L200.535 257.254L70.0765 387.713C61.5443 396.245 47.7108 396.245 39.1786 387.713L19.4905 368.025C10.9583 359.492 10.9583 345.659 19.4905 337.127ZM203.846 253.943L153.26 203.357L203.846 152.771L254.432 203.357L203.846 253.943ZM149.949 200.047L19.4904 69.5877C10.9582 61.0555 10.9582 47.222 19.4904 38.6898L39.1785 19.0017C47.7107 10.4695 61.5442 10.4695 70.0764 19.0017L200.535 149.461L149.949 200.047ZM257.742 200.047L207.156 149.461L337.616 19.0017C346.148 10.4695 359.981 10.4695 368.513 19.0017L388.202 38.6898C396.734 47.222 396.734 61.0555 388.202 69.5877L257.742 200.047ZM207.156 257.254L257.742 206.668L388.201 337.127C396.734 345.659 396.734 359.492 388.201 368.025L368.513 387.713C359.981 396.245 346.148 396.245 337.615 387.713L207.156 257.254Z" fill="#FF0000" stroke="#FF0000" stroke-width="4.68175"/>
</svg>
