<svg width="280" height="183" viewBox="0 0 280 183" fill="none" xmlns="http://www.w3.org/2000/svg">
<g clip-path="url(#clip0_74_785)">
<path d="M272.419 182.596L272.835 182.588C272.674 177.981 272.181 173.391 271.361 168.855C269.565 159.143 266.579 152.764 262.486 149.896L262.248 150.235C271.809 156.934 272.414 182.34 272.419 182.596Z" fill="#0B0A0A"/>
<path d="M267.229 182.497L267.644 182.489C267.635 182.03 267.376 171.216 263.11 168.227L262.871 168.566C266.965 171.434 267.227 182.387 267.229 182.497Z" fill="#0B0A0A"/>
<path d="M259.886 150.273C261.032 150.273 261.962 149.345 261.962 148.201C261.962 147.057 261.032 146.129 259.886 146.129C258.739 146.129 257.81 147.057 257.81 148.201C257.81 149.345 258.739 150.273 259.886 150.273Z" fill="#6576C6"/>
<path d="M260.914 168.09C262.061 168.09 262.99 167.162 262.99 166.018C262.99 164.874 262.061 163.946 260.914 163.946C259.767 163.946 258.838 164.874 258.838 166.018C258.838 167.162 259.767 168.09 260.914 168.09Z" fill="#6576C6"/>
<path d="M268.197 151.515C267.989 153.113 268.205 154.738 268.824 156.226C269.904 155.021 270.613 153.529 270.863 151.931C271.114 150.334 270.897 148.697 270.237 147.22C269.192 148.449 268.488 149.93 268.197 151.515Z" fill="#10FA5E"/>
<path d="M261.411 157.555C262.952 158.038 264.592 158.108 266.169 157.76C265.168 156.488 263.82 155.532 262.287 155.007C260.753 154.482 259.101 154.411 257.528 154.802C258.559 156.043 259.897 156.992 261.411 157.555Z" fill="#10FA5E"/>
<path d="M261.334 173.333C262.414 173.672 263.564 173.721 264.669 173.477C263.967 172.585 263.022 171.915 261.947 171.547C260.873 171.18 259.715 171.13 258.612 171.404C259.334 172.274 260.273 172.939 261.334 173.333Z" fill="#10FA5E"/>
<path d="M95.6017 182.596L94.999 182.584C95.2321 175.897 95.9471 169.236 97.1385 162.651C99.7446 148.554 104.078 139.296 110.019 135.133L110.365 135.625C96.4875 145.348 95.6088 182.224 95.6017 182.596Z" fill="black"/>
<path d="M103.136 182.452L102.533 182.44C102.546 181.774 102.923 166.078 109.115 161.739L109.461 162.231C103.519 166.395 103.139 182.292 103.136 182.452Z" fill="black"/>
<path d="M113.794 135.68C115.458 135.68 116.807 134.334 116.807 132.673C116.807 131.012 115.458 129.666 113.794 129.666C112.129 129.666 110.78 131.012 110.78 132.673C110.78 134.334 112.129 135.68 113.794 135.68Z" fill="#6576C6"/>
<path d="M112.302 161.541C113.966 161.541 115.315 160.194 115.315 158.534C115.315 156.873 113.966 155.527 112.302 155.527C110.637 155.527 109.288 156.873 109.288 158.534C109.288 160.194 110.637 161.541 112.302 161.541Z" fill="#6576C6"/>
<path d="M101.731 137.483C102.033 139.802 101.719 142.16 100.821 144.321C99.2527 142.571 98.2246 140.407 97.8607 138.087C97.4968 135.768 97.8127 133.393 98.7704 131.249C100.287 133.033 101.308 135.182 101.731 137.483Z" fill="#F1F1F1"/>
<path d="M111.581 146.25C109.345 146.95 106.963 147.053 104.675 146.547C106.128 144.701 108.085 143.313 110.31 142.552C112.535 141.79 114.934 141.687 117.217 142.254C115.721 144.055 113.778 145.433 111.581 146.25Z" fill="#10FA5E"/>
<path d="M111.692 169.151C110.125 169.643 108.456 169.714 106.852 169.36C107.87 168.066 109.242 167.093 110.802 166.559C112.361 166.026 114.042 165.953 115.642 166.351C114.594 167.613 113.232 168.579 111.692 169.151Z" fill="#10FA5E"/>
<path d="M49.044 54.5394L47.594 45.6877L43.5 44.6664C43.5 44.6664 40.2507 43.6676 39.4912 50.1987C38.7317 56.7297 39.3205 68.9236 39.3205 68.9236L30.3318 97.3277C29.6416 97.655 29.0605 98.1739 28.6582 98.8222C28.2558 99.4705 28.0492 100.221 28.0632 100.983C28.0771 101.746 28.3109 102.488 28.7366 103.121C29.1623 103.754 29.7619 104.252 30.4636 104.554C31.1653 104.856 31.9394 104.95 32.6931 104.824C33.4469 104.699 34.1484 104.359 34.7137 103.846C35.279 103.333 35.6841 102.668 35.8805 101.931C36.0769 101.194 36.0563 100.416 35.8212 99.6904L47.5088 73.009L49.044 54.5394Z" fill="#C7C7C7"/>
<path d="M73.9394 47.5735L71.79 38.8645L75.1534 36.3211C75.1534 36.3211 77.7489 34.1295 81.0171 39.8385C84.2854 45.5475 88.5419 56.9928 88.5419 56.9928L107.985 79.594C108.749 79.6246 109.487 79.8742 110.112 80.3128C110.737 80.7514 111.223 81.3605 111.51 82.0671C111.797 82.7738 111.874 83.5481 111.732 84.2973C111.589 85.0465 111.234 85.7389 110.707 86.2916C110.181 86.8443 109.506 87.2339 108.763 87.4137C108.02 87.5935 107.241 87.5559 106.52 87.3054C105.798 87.055 105.164 86.6023 104.693 86.0015C104.222 85.4007 103.935 84.6772 103.866 83.9178L82.6187 63.9583L73.9394 47.5735Z" fill="#C7C7C7"/>
<path d="M90.7422 177.958L95.6178 177.957L97.9375 159.191L90.7412 159.191L90.7422 177.958Z" fill="#C7C7C7"/>
<path d="M89.498 176.369L99.1 176.369H99.1004C100.723 176.369 102.28 177.012 103.427 178.157C104.575 179.302 105.219 180.855 105.22 182.475V182.673L89.4983 182.674L89.498 176.369Z" fill="#2F2E41"/>
<path d="M29.4971 177.958L34.3727 177.957L36.6924 159.191L29.4961 159.191L29.4971 177.958Z" fill="#C7C7C7"/>
<path d="M28.2529 176.369L37.8549 176.369H37.8553C39.4781 176.369 41.0345 177.012 42.182 178.157C43.3296 179.302 43.9743 180.855 43.9744 182.475V182.673L28.2532 182.674L28.2529 176.369Z" fill="#2F2E41"/>
<path d="M59.3999 30.8944C66.6829 30.8944 72.587 25.0029 72.587 17.7354C72.587 10.4679 66.6829 4.57642 59.3999 4.57642C52.1169 4.57642 46.2129 10.4679 46.2129 17.7354C46.2129 25.0029 52.1169 30.8944 59.3999 30.8944Z" fill="#2F2E41"/>
<path d="M49.1071 10.6405C51.2381 8.51402 51.67 5.49733 50.0717 3.90249C48.4735 2.30766 45.4504 2.73861 43.3194 4.86506C41.1884 6.9915 40.7566 10.0082 42.3548 11.603C43.953 13.1979 46.9761 12.7669 49.1071 10.6405Z" fill="#2F2E41"/>
<path d="M73.1447 6.46162C74.0326 4.38749 72.5057 1.74842 69.7343 0.567099C66.9629 -0.614226 63.9965 0.109536 63.1086 2.18366C62.2207 4.25779 63.7476 6.89686 66.519 8.07819C69.2904 9.25951 72.2569 8.53575 73.1447 6.46162Z" fill="#2F2E41"/>
<path d="M69.6385 26.2336C72.6033 20.8216 70.61 14.0359 65.1865 11.0775C59.7629 8.11899 52.9629 10.108 49.9981 15.52C47.0333 20.932 49.0265 27.7177 54.4501 30.6761C59.8736 33.6346 66.6737 31.6456 69.6385 26.2336Z" fill="#C7C7C7"/>
<path d="M48.0586 13.8522C50.6161 15.6111 53.6516 16.5473 56.7576 16.5349C55.6497 17.3015 54.3883 17.8193 53.0605 18.0527C57.1902 18.9366 61.4584 18.9605 65.5978 18.1229C66.5179 17.9757 67.4057 17.6714 68.2223 17.2234C68.6292 16.9967 68.9838 16.687 69.2629 16.3145C69.542 15.942 69.7394 15.5151 69.8423 15.0615C70.1174 13.4934 68.8929 12.0688 67.6205 11.1087C65.6722 9.66117 63.4259 8.66384 61.044 8.18889C58.6621 7.71393 56.2042 7.77323 53.8481 8.36248C52.3097 8.75931 50.7685 9.42978 49.7692 10.6627C48.7699 11.8955 48.4739 13.7962 49.426 15.0658L48.0586 13.8522Z" fill="#2F2E41"/>
<path d="M54.2098 35.3995L43.1325 44.4267L52.8112 67.4553L52.9958 71.1399C52.9958 71.1399 42.9484 80.3839 36.7317 106.207C30.515 132.03 17.959 166.343 17.959 166.343L43.0779 172.475L60.5425 114.06L82.8058 159.888L85.9729 173.443L105.39 168.064L97.8961 131.688L79.5164 75.2247L81.0257 59.626C81.0257 59.626 84.3891 51.8401 78.5462 43.597L76.7135 35.8515L67.2265 34.2378L54.2098 35.3995Z" fill="black"/>
<path d="M240.48 117.353H163.574C162.96 117.353 162.371 117.109 161.937 116.675C161.503 116.242 161.259 115.655 161.258 115.042V89.1528C161.259 88.54 161.503 87.9525 161.937 87.5191C162.371 87.0858 162.96 86.842 163.574 86.8413H240.48C241.094 86.842 241.683 87.0858 242.117 87.5191C242.551 87.9525 242.796 88.54 242.796 89.1528V115.042C242.796 115.655 242.551 116.242 242.117 116.675C241.683 117.109 241.094 117.353 240.48 117.353Z" fill="#E5E5E5"/>
<path d="M193.687 93.7756H173.303V96.0871H193.687V93.7756Z" fill="white"/>
<path d="M220.558 96.5494C221.325 96.5494 221.948 95.9285 221.948 95.1625C221.948 94.3966 221.325 93.7756 220.558 93.7756C219.79 93.7756 219.168 94.3966 219.168 95.1625C219.168 95.9285 219.79 96.5494 220.558 96.5494Z" fill="#64E3AB"/>
<path d="M225.191 96.5494C225.958 96.5494 226.581 95.9285 226.581 95.1625C226.581 94.3966 225.958 93.7756 225.191 93.7756C224.423 93.7756 223.801 94.3966 223.801 95.1625C223.801 95.9285 224.423 96.5494 225.191 96.5494Z" fill="#64E3AB"/>
<path d="M229.823 96.5494C230.591 96.5494 231.213 95.9285 231.213 95.1625C231.213 94.3966 230.591 93.7756 229.823 93.7756C229.056 93.7756 228.434 94.3966 228.434 95.1625C228.434 95.9285 229.056 96.5494 229.823 96.5494Z" fill="#64E3AB"/>
<path d="M240.48 150.176H163.574C162.96 150.176 162.371 149.932 161.937 149.499C161.503 149.065 161.259 148.478 161.258 147.865V121.976C161.259 121.363 161.503 120.776 161.937 120.342C162.371 119.909 162.96 119.665 163.574 119.665H240.48C241.094 119.665 241.683 119.909 242.117 120.342C242.551 120.776 242.796 121.363 242.796 121.976V147.865C242.796 148.478 242.551 149.065 242.117 149.499C241.683 149.932 241.094 150.176 240.48 150.176Z" fill="#E5E5E5"/>
<path d="M193.687 126.599H173.303V128.911H193.687V126.599Z" fill="white"/>
<path d="M220.558 129.373C221.325 129.373 221.948 128.752 221.948 127.986C221.948 127.22 221.325 126.599 220.558 126.599C219.79 126.599 219.168 127.22 219.168 127.986C219.168 128.752 219.79 129.373 220.558 129.373Z" fill="#64E3AB"/>
<path d="M225.191 129.373C225.958 129.373 226.581 128.752 226.581 127.986C226.581 127.22 225.958 126.599 225.191 126.599C224.423 126.599 223.801 127.22 223.801 127.986C223.801 128.752 224.423 129.373 225.191 129.373Z" fill="#64E3AB"/>
<path d="M229.823 129.373C230.591 129.373 231.213 128.752 231.213 127.986C231.213 127.22 230.591 126.599 229.823 126.599C229.056 126.599 228.434 127.22 228.434 127.986C228.434 128.752 229.056 129.373 229.823 129.373Z" fill="#64E3AB"/>
<path d="M240.48 183H163.574C162.96 182.999 162.371 182.756 161.937 182.322C161.503 181.889 161.259 181.301 161.258 180.688V154.8C161.259 154.187 161.503 153.599 161.937 153.166C162.371 152.733 162.96 152.489 163.574 152.488H240.48C241.094 152.489 241.683 152.733 242.117 153.166C242.551 153.599 242.796 154.187 242.796 154.8V180.688C242.796 181.301 242.551 181.889 242.117 182.322C241.683 182.756 241.094 182.999 240.48 183Z" fill="#E5E5E5"/>
<path d="M193.687 159.423H173.303V161.734H193.687V159.423Z" fill="white"/>
<path d="M220.558 162.196C221.325 162.196 221.948 161.575 221.948 160.81C221.948 160.044 221.325 159.423 220.558 159.423C219.79 159.423 219.168 160.044 219.168 160.81C219.168 161.575 219.79 162.196 220.558 162.196Z" fill="#64E3AB"/>
<path d="M225.191 162.196C225.958 162.196 226.581 161.575 226.581 160.81C226.581 160.044 225.958 159.423 225.191 159.423C224.423 159.423 223.801 160.044 223.801 160.81C223.801 161.575 224.423 162.196 225.191 162.196Z" fill="#64E3AB"/>
<path d="M229.823 162.196C230.591 162.196 231.213 161.575 231.213 160.81C231.213 160.044 230.591 159.423 229.823 159.423C229.056 159.423 228.434 160.044 228.434 160.81C228.434 161.575 229.056 162.196 229.823 162.196Z" fill="#64E3AB"/>
<path d="M148.193 127.178C146.728 127.173 145.27 126.985 143.852 126.618L143.572 126.541L143.313 126.411C133.941 121.722 126.034 115.529 119.813 108.003C114.662 101.736 110.647 94.6213 107.947 86.9779C104.718 77.8267 103.165 68.1708 103.361 58.4711C103.365 58.2675 103.369 58.1103 103.369 58.002C103.369 53.2868 105.991 49.1497 110.05 47.462C113.157 46.1703 141.364 34.6092 143.402 33.7739C147.24 31.8549 151.335 33.4566 151.99 33.7367C153.46 34.3364 179.535 44.9789 185.17 47.6564C190.977 50.4159 192.527 55.3732 192.527 57.8674C192.527 69.1591 190.567 79.7121 186.702 89.2333C183.581 96.94 179.156 104.055 173.622 110.268C162.945 122.258 152.265 126.508 152.162 126.546C150.885 126.984 149.542 127.198 148.193 127.178ZM145.681 120.97C146.607 121.177 148.739 121.488 150.128 120.982C151.893 120.34 160.833 115.714 169.186 106.334C180.727 93.3733 186.583 77.0809 186.592 57.909C186.571 57.5206 186.295 54.7503 182.619 53.0035C177.093 50.3778 149.99 39.3188 149.717 39.2074L149.642 39.1757C149.074 38.9382 147.266 38.4379 146.02 39.0895L145.77 39.2055C145.468 39.3293 115.526 51.601 112.333 52.9287C110.099 53.8574 109.303 56.1584 109.303 58.002C109.303 58.1367 109.3 58.3327 109.295 58.586C109.04 71.7041 112.082 103.984 145.681 120.97Z" fill="#3F3D56"/>
<path d="M144.643 36.4664C144.643 36.4664 114.429 48.8493 111.192 50.1953C107.955 51.5413 106.336 54.7716 106.336 58.002C106.336 61.2323 103.908 103.384 144.643 123.764C144.643 123.764 148.34 124.785 151.145 123.764C153.95 122.743 189.56 105.515 189.56 57.8673C189.56 57.8673 189.56 53.0218 183.894 50.3299C178.229 47.638 150.839 36.4664 150.839 36.4664C150.839 36.4664 147.476 34.9858 144.643 36.4664Z" fill="#64E3AB"/>
<path opacity="0.2" d="M147.881 46.1575V112.216C147.881 112.216 178.365 97.5737 178.095 59.0788L147.881 46.1575Z" fill="black"/>
<path d="M279.661 183H0.338983C0.249079 183 0.162857 182.964 0.0992856 182.901C0.0357139 182.837 0 182.751 0 182.662C0 182.572 0.0357139 182.486 0.0992856 182.423C0.162857 182.359 0.249079 182.323 0.338983 182.323H279.661C279.751 182.323 279.837 182.359 279.901 182.423C279.964 182.486 280 182.572 280 182.662C280 182.751 279.964 182.837 279.901 182.901C279.837 182.964 279.751 183 279.661 183Z" fill="#CBCBCB"/>
</g>
<defs>
<clipPath id="clip0_74_785">
<rect width="280" height="183" fill="white"/>
</clipPath>
</defs>
</svg>
