<svg width="348" height="323" viewBox="0 0 348 323" fill="none" xmlns="http://www.w3.org/2000/svg">
<g clip-path="url(#clip0_43_865)">
<path d="M164.074 0.87282C257.775 -7.40267 257.964 45.2069 300.197 94.258C342.43 143.309 351.46 165.54 335.516 222.084C319.572 278.628 265.996 322.947 199.605 297.835C133.213 272.723 95.2192 296.835 53.3637 274.513C11.5081 252.192 -4.06583 209.129 26.5985 158.348C57.2628 107.566 48.5048 11.1194 164.074 0.87282Z" fill="#92E3A9"/>
<path opacity="0.7" d="M164.074 0.87282C257.775 -7.40267 257.964 45.2069 300.197 94.258C342.43 143.309 351.46 165.54 335.516 222.084C319.572 278.628 265.996 322.947 199.605 297.835C133.213 272.723 95.2192 296.835 53.3637 274.513C11.5081 252.192 -4.06583 209.129 26.5985 158.348C57.2628 107.566 48.5048 11.1194 164.074 0.87282Z" fill="white"/>
<path d="M226.464 23.3863L79.1826 39.7041L101.967 243.543L249.249 227.225L226.464 23.3863Z" fill="white" stroke="#263238" stroke-linecap="round" stroke-linejoin="round"/>
<path d="M226.471 23.3872L79.1895 39.7051L82.342 67.9084L229.624 51.5906L226.471 23.3872Z" fill="#BFBFBF" stroke="#263238" stroke-linecap="round" stroke-linejoin="round"/>
<path d="M185.55 36.382L121.969 43.4236C121.674 43.4383 121.385 43.5128 121.119 43.6425C120.853 43.7723 120.617 43.9545 120.425 44.1782C120.232 44.4019 120.088 44.6623 120 44.9435C119.912 45.2247 119.882 45.5208 119.913 45.8137C119.944 46.1066 120.035 46.3901 120.179 46.647C120.324 46.9039 120.52 47.1288 120.754 47.3078C120.989 47.4869 121.258 47.6164 121.545 47.6885C121.832 47.7605 122.131 47.7736 122.423 47.7269L186.003 40.6852C186.559 40.6015 187.062 40.3065 187.404 39.8621C187.747 39.4178 187.903 38.8586 187.841 38.302C187.778 37.7453 187.501 37.2344 187.069 36.8764C186.636 36.5185 186.081 36.3412 185.52 36.382H185.55Z" fill="white"/>
<path d="M170.641 46.9748L138.859 50.4956C138.717 50.5097 138.579 50.5517 138.454 50.6193C138.328 50.6869 138.218 50.7788 138.128 50.8894C138.039 51.0001 137.973 51.1274 137.933 51.2639C137.894 51.4004 137.882 51.5433 137.899 51.6843C137.93 51.9694 138.072 52.2309 138.296 52.4114C138.52 52.592 138.806 52.6768 139.093 52.6473L170.883 49.1264C171.161 49.0845 171.412 48.937 171.584 48.7149C171.755 48.4927 171.833 48.2131 171.802 47.9348C171.771 47.6565 171.632 47.401 171.416 47.222C171.2 47.043 170.922 46.9544 170.641 46.9748Z" fill="white"/>
<path opacity="0.3" d="M194.399 71.3649L111.088 80.5883C110.875 80.6123 110.68 80.7197 110.546 80.8869C110.412 81.054 110.35 81.2674 110.374 81.4799C110.398 81.6923 110.506 81.8866 110.674 82.0199C110.842 82.1533 111.056 82.2147 111.27 82.1908L194.558 72.9674C194.771 72.9434 194.966 72.8361 195.1 72.6689C195.234 72.5017 195.296 72.2884 195.272 72.0759C195.248 71.8634 195.14 71.6691 194.972 71.5358C194.804 71.4024 194.59 71.341 194.376 71.3649H194.399Z" fill="black"/>
<path opacity="0.3" d="M195.041 77.1201L99.2543 87.7277C99.0409 87.7517 98.8458 87.859 98.7118 88.0262C98.5779 88.1934 98.5162 88.4067 98.5403 88.6192C98.5643 88.8317 98.6721 89.026 98.8401 89.1593C99.008 89.2927 99.2223 89.3541 99.4357 89.3302L195.222 78.7225C195.331 78.716 195.438 78.6875 195.535 78.6389C195.633 78.5902 195.72 78.5223 195.79 78.4394C195.861 78.3564 195.914 78.2601 195.946 78.1562C195.978 78.0522 195.989 77.9429 195.978 77.8348C195.966 77.7256 195.932 77.6199 195.878 77.5242C195.823 77.4285 195.75 77.3447 195.663 77.2779C195.575 77.2111 195.475 77.1626 195.368 77.1355C195.261 77.1084 195.15 77.1031 195.041 77.1201Z" fill="black"/>
<path opacity="0.3" d="M170.686 85.6438L99.8969 93.483C99.6835 93.5069 99.4883 93.6143 99.3544 93.7815C99.2205 93.9487 99.1588 94.162 99.1828 94.3745C99.2069 94.587 99.3147 94.7813 99.4827 94.9146C99.6506 95.0479 99.8648 95.1094 100.078 95.0854L170.86 87.2463C170.969 87.2398 171.076 87.2113 171.173 87.1627C171.271 87.114 171.358 87.0461 171.429 86.9632C171.499 86.8802 171.552 86.7839 171.584 86.6799C171.616 86.576 171.627 86.4667 171.616 86.3585C171.604 86.2501 171.57 86.1451 171.516 86.05C171.463 85.9548 171.39 85.8714 171.303 85.8047C171.217 85.738 171.117 85.6894 171.011 85.6618C170.905 85.6341 170.795 85.628 170.686 85.6438Z" fill="black"/>
<path opacity="0.3" d="M215.521 68.3005L207.072 69.2366C205.936 69.3625 205.117 70.3818 205.244 71.5133L206.184 79.9249C206.31 81.0564 207.334 81.8716 208.471 81.7457L216.92 80.8096C218.056 80.6837 218.875 79.6643 218.748 78.5329L217.808 70.1212C217.682 68.9898 216.658 68.1746 215.521 68.3005Z" stroke="#263238" stroke-linecap="round" stroke-linejoin="round"/>
<path d="M208.575 74.7727L211.348 77.3833L215.013 71.8086" stroke="#92E3A9" stroke-width="3" stroke-linecap="round" stroke-linejoin="round"/>
<path opacity="0.3" d="M197.445 98.6289L114.157 107.852C113.943 107.876 113.748 107.984 113.614 108.151C113.48 108.318 113.419 108.531 113.443 108.744C113.467 108.956 113.574 109.151 113.742 109.284C113.91 109.417 114.125 109.479 114.338 109.455L197.626 100.231C197.732 100.219 197.834 100.187 197.927 100.136C198.02 100.085 198.102 100.016 198.168 99.9328C198.235 99.85 198.284 99.755 198.313 99.6533C198.343 99.5515 198.352 99.445 198.34 99.3398C198.328 99.2346 198.295 99.1327 198.244 99.04C198.193 98.9474 198.123 98.8657 198.04 98.7997C197.957 98.7337 197.862 98.6846 197.759 98.6553C197.657 98.626 197.55 98.617 197.445 98.6289Z" fill="black"/>
<path opacity="0.3" d="M198.087 104.384L102.3 114.992C102.195 115.004 102.092 115.036 101.999 115.087C101.906 115.138 101.824 115.207 101.758 115.29C101.691 115.373 101.642 115.468 101.613 115.57C101.583 115.671 101.574 115.778 101.586 115.883C101.598 115.988 101.631 116.09 101.682 116.183C101.734 116.276 101.803 116.357 101.886 116.423C101.969 116.489 102.065 116.538 102.167 116.568C102.269 116.597 102.376 116.606 102.482 116.594L198.268 105.986C198.481 105.962 198.677 105.855 198.81 105.688C198.944 105.521 199.006 105.307 198.982 105.095C198.958 104.882 198.85 104.688 198.682 104.555C198.514 104.421 198.3 104.36 198.087 104.384Z" fill="black"/>
<path opacity="0.3" d="M173.732 112.908L102.943 120.747C102.729 120.771 102.534 120.878 102.4 121.045C102.266 121.213 102.205 121.426 102.229 121.638C102.253 121.851 102.361 122.045 102.529 122.178C102.696 122.312 102.911 122.373 103.124 122.349L173.906 114.51C174.015 114.504 174.122 114.475 174.219 114.427C174.317 114.378 174.404 114.31 174.474 114.227C174.545 114.144 174.598 114.048 174.63 113.944C174.662 113.84 174.673 113.731 174.662 113.622C174.65 113.514 174.616 113.409 174.562 113.314C174.508 113.219 174.436 113.135 174.349 113.069C174.263 113.002 174.163 112.953 174.057 112.926C173.951 112.898 173.841 112.892 173.732 112.908Z" fill="black"/>
<path opacity="0.3" d="M218.569 95.5659L210.12 96.502C208.984 96.6279 208.165 97.6472 208.291 98.7787L209.232 107.19C209.358 108.322 210.382 109.137 211.519 109.011L219.967 108.075C221.104 107.949 221.923 106.93 221.796 105.798L220.856 97.3866C220.729 96.2552 219.706 95.44 218.569 95.5659Z" stroke="#263238" stroke-linecap="round" stroke-linejoin="round"/>
<path d="M211.62 102.037L214.393 104.64L218.058 99.0652" stroke="#92E3A9" stroke-width="3" stroke-linecap="round" stroke-linejoin="round"/>
<path opacity="0.3" d="M200.489 125.893L117.201 135.116C117.002 135.155 116.824 135.267 116.703 135.43C116.582 135.593 116.528 135.796 116.551 135.997C116.574 136.199 116.672 136.384 116.826 136.516C116.981 136.649 117.179 136.718 117.383 136.711L200.671 127.473C200.776 127.461 200.879 127.428 200.972 127.377C201.065 127.326 201.147 127.257 201.213 127.174C201.279 127.091 201.329 126.996 201.358 126.895C201.388 126.793 201.397 126.686 201.385 126.581C201.373 126.476 201.34 126.374 201.289 126.282C201.237 126.189 201.168 126.107 201.085 126.041C201.002 125.975 200.906 125.926 200.804 125.897C200.702 125.867 200.595 125.858 200.489 125.87V125.893Z" fill="black"/>
<path opacity="0.3" d="M201.14 131.648L105.346 142.256C105.24 142.266 105.137 142.297 105.044 142.348C104.95 142.398 104.868 142.467 104.802 142.55C104.735 142.633 104.687 142.728 104.658 142.83C104.629 142.932 104.622 143.038 104.635 143.143C104.647 143.249 104.679 143.351 104.73 143.444C104.781 143.536 104.85 143.619 104.932 143.685C105.015 143.751 105.11 143.801 105.212 143.83C105.315 143.86 105.421 143.87 105.527 143.858L201.313 133.25C201.423 133.243 201.53 133.214 201.627 133.164C201.725 133.115 201.812 133.046 201.882 132.963C201.953 132.879 202.006 132.782 202.038 132.678C202.07 132.573 202.081 132.464 202.069 132.355C202.057 132.247 202.023 132.142 201.97 132.047C201.916 131.953 201.843 131.87 201.756 131.804C201.669 131.737 201.57 131.69 201.464 131.663C201.358 131.636 201.248 131.631 201.14 131.648Z" fill="black"/>
<path opacity="0.3" d="M176.777 140.172L105.988 148.011C105.774 148.035 105.579 148.142 105.445 148.31C105.311 148.477 105.25 148.69 105.274 148.903C105.298 149.115 105.406 149.309 105.573 149.443C105.741 149.576 105.956 149.637 106.169 149.613L176.951 141.767C177.164 141.744 177.36 141.637 177.495 141.471C177.629 141.304 177.692 141.092 177.669 140.879C177.646 140.667 177.539 140.472 177.372 140.338C177.204 140.204 176.991 140.141 176.777 140.164V140.172Z" fill="black"/>
<path opacity="0.3" d="M221.616 122.824L213.167 123.76C212.031 123.886 211.212 124.905 211.338 126.037L212.279 134.448C212.405 135.58 213.429 136.395 214.565 136.269L223.014 135.333C224.151 135.207 224.97 134.188 224.843 133.056L223.903 124.645C223.776 123.513 222.753 122.698 221.616 122.824Z" stroke="#263238" stroke-linecap="round" stroke-linejoin="round"/>
<path d="M214.665 129.293L217.438 131.904L221.103 126.329" stroke="#92E3A9" stroke-width="3" stroke-linecap="round" stroke-linejoin="round"/>
<path opacity="0.3" d="M203.534 153.157L120.246 162.38C120.046 162.419 119.868 162.531 119.748 162.694C119.627 162.857 119.573 163.06 119.596 163.261C119.619 163.463 119.717 163.648 119.871 163.78C120.026 163.913 120.224 163.982 120.428 163.975L203.716 154.752C203.827 154.748 203.936 154.721 204.037 154.673C204.137 154.625 204.227 154.557 204.3 154.473C204.372 154.389 204.427 154.291 204.46 154.185C204.493 154.079 204.503 153.967 204.491 153.857C204.478 153.746 204.443 153.64 204.387 153.544C204.331 153.448 204.256 153.364 204.166 153.299C204.076 153.233 203.974 153.186 203.865 153.162C203.756 153.138 203.644 153.136 203.534 153.157Z" fill="black"/>
<path opacity="0.3" d="M204.185 158.912L108.391 169.52C108.285 169.53 108.182 169.561 108.089 169.612C107.995 169.662 107.913 169.731 107.847 169.814C107.78 169.897 107.732 169.992 107.703 170.094C107.674 170.196 107.667 170.302 107.68 170.407C107.692 170.513 107.724 170.615 107.775 170.708C107.826 170.801 107.894 170.883 107.977 170.949C108.06 171.015 108.155 171.065 108.257 171.095C108.359 171.124 108.466 171.134 108.572 171.122L204.358 160.515C204.573 160.49 204.768 160.382 204.903 160.214C205.037 160.047 205.1 159.833 205.076 159.619C205.052 159.408 204.944 159.215 204.777 159.083C204.61 158.95 204.397 158.889 204.185 158.912Z" fill="black"/>
<path opacity="0.3" d="M179.853 167.436L109.064 175.275C108.958 175.285 108.855 175.316 108.762 175.367C108.668 175.417 108.586 175.486 108.52 175.569C108.453 175.652 108.404 175.747 108.376 175.849C108.347 175.951 108.34 176.058 108.353 176.163C108.365 176.268 108.397 176.37 108.448 176.463C108.498 176.556 108.567 176.638 108.65 176.704C108.733 176.77 108.828 176.82 108.93 176.85C109.032 176.879 109.139 176.889 109.245 176.877L180.027 169.038C180.132 169.027 180.235 168.995 180.328 168.944C180.422 168.894 180.504 168.825 180.571 168.743C180.637 168.66 180.687 168.565 180.717 168.464C180.747 168.362 180.756 168.256 180.745 168.15C180.734 168.045 180.703 167.942 180.652 167.849C180.602 167.755 180.533 167.673 180.45 167.606C180.367 167.54 180.271 167.491 180.169 167.461C180.066 167.432 179.959 167.423 179.853 167.436Z" fill="black"/>
<path opacity="0.3" d="M224.665 150.082L216.216 151.018C215.079 151.144 214.261 152.163 214.387 153.295L215.327 161.706C215.454 162.838 216.478 163.653 217.614 163.527L226.063 162.591C227.2 162.465 228.018 161.446 227.892 160.314L226.952 151.902C226.825 150.771 225.801 149.956 224.665 150.082Z" stroke="#263238" stroke-linecap="round" stroke-linejoin="round"/>
<path d="M217.711 156.557L220.484 159.168L224.149 153.593" stroke="#92E3A9" stroke-width="3" stroke-linecap="round" stroke-linejoin="round"/>
<path opacity="0.3" d="M206.588 180.413L123.3 189.637C123.194 189.648 123.092 189.68 122.998 189.731C122.905 189.781 122.823 189.85 122.756 189.932C122.689 190.015 122.64 190.11 122.61 190.211C122.58 190.313 122.57 190.419 122.582 190.524C122.593 190.63 122.625 190.732 122.676 190.824C122.727 190.917 122.796 190.999 122.879 191.066C122.962 191.132 123.057 191.181 123.159 191.211C123.261 191.241 123.368 191.25 123.473 191.239L206.761 182.016C206.867 182.004 206.97 181.972 207.063 181.922C207.156 181.871 207.239 181.802 207.305 181.72C207.372 181.638 207.422 181.543 207.451 181.441C207.481 181.34 207.491 181.233 207.479 181.128C207.455 180.916 207.347 180.723 207.18 180.589C207.014 180.455 206.801 180.392 206.588 180.413Z" fill="black"/>
<path opacity="0.3" d="M207.229 186.153L111.436 196.761C111.324 196.765 111.215 196.792 111.114 196.84C111.014 196.888 110.924 196.956 110.851 197.04C110.779 197.124 110.724 197.222 110.691 197.328C110.658 197.434 110.648 197.546 110.66 197.656C110.673 197.766 110.708 197.873 110.764 197.969C110.82 198.065 110.895 198.149 110.985 198.214C111.075 198.28 111.177 198.327 111.286 198.351C111.395 198.375 111.507 198.377 111.617 198.356L207.403 187.748C207.515 187.746 207.625 187.72 207.727 187.673C207.828 187.626 207.918 187.558 207.992 187.474C208.066 187.39 208.121 187.292 208.155 187.186C208.189 187.08 208.2 186.968 208.188 186.857C208.176 186.746 208.141 186.639 208.085 186.542C208.029 186.446 207.954 186.362 207.864 186.296C207.774 186.23 207.671 186.183 207.562 186.158C207.452 186.134 207.339 186.132 207.229 186.153Z" fill="black"/>
<path opacity="0.3" d="M182.875 194.7L112.085 202.539C111.872 202.563 111.677 202.67 111.543 202.837C111.409 203.005 111.347 203.218 111.371 203.43C111.395 203.643 111.503 203.837 111.671 203.971C111.839 204.104 112.053 204.165 112.267 204.141L183.056 196.302C183.269 196.276 183.463 196.167 183.596 196C183.729 195.832 183.79 195.619 183.766 195.407C183.755 195.302 183.723 195.2 183.672 195.108C183.621 195.015 183.552 194.934 183.469 194.868C183.386 194.802 183.291 194.753 183.189 194.724C183.087 194.696 182.98 194.687 182.875 194.7Z" fill="black"/>
<path opacity="0.3" d="M227.705 177.355L219.256 178.291C218.12 178.417 217.301 179.436 217.427 180.567L218.367 188.979C218.494 190.111 219.518 190.926 220.654 190.8L229.103 189.864C230.24 189.738 231.058 188.719 230.932 187.587L229.992 179.175C229.865 178.044 228.841 177.229 227.705 177.355Z" stroke="#263238" stroke-linecap="round" stroke-linejoin="round"/>
<path d="M220.756 183.821L223.529 186.432L227.194 180.857" stroke="#92E3A9" stroke-width="3" stroke-linecap="round" stroke-linejoin="round"/>
<path opacity="0.3" d="M208.907 201.2L125.62 210.438C125.406 210.462 125.211 210.57 125.077 210.737C124.943 210.904 124.881 211.117 124.905 211.33C124.93 211.542 125.037 211.737 125.205 211.87C125.373 212.003 125.587 212.065 125.801 212.041L209.089 202.817C209.195 202.807 209.297 202.776 209.391 202.725C209.484 202.675 209.567 202.606 209.633 202.523C209.699 202.441 209.748 202.345 209.777 202.243C209.805 202.141 209.813 202.035 209.799 201.93C209.79 201.823 209.759 201.719 209.709 201.625C209.659 201.53 209.59 201.446 209.507 201.378C209.424 201.311 209.328 201.26 209.225 201.229C209.122 201.198 209.014 201.188 208.907 201.2Z" fill="black"/>
<path opacity="0.3" d="M209.549 206.978L113.763 217.585C113.651 217.588 113.541 217.614 113.439 217.661C113.338 217.708 113.248 217.776 113.174 217.86C113.1 217.943 113.045 218.041 113.011 218.148C112.977 218.254 112.966 218.366 112.978 218.477C112.99 218.588 113.025 218.695 113.081 218.791C113.137 218.888 113.212 218.972 113.302 219.038C113.392 219.104 113.495 219.151 113.604 219.175C113.714 219.2 113.827 219.201 113.937 219.18L209.73 208.572C209.93 208.534 210.108 208.422 210.229 208.259C210.35 208.095 210.404 207.893 210.381 207.691C210.358 207.49 210.26 207.305 210.105 207.172C209.951 207.04 209.753 206.97 209.549 206.978Z" fill="black"/>
<path opacity="0.3" d="M185.187 215.494L114.405 223.333C114.3 223.344 114.197 223.376 114.104 223.427C114.01 223.478 113.928 223.546 113.861 223.629C113.795 223.711 113.745 223.806 113.715 223.907C113.685 224.009 113.676 224.115 113.687 224.221C113.712 224.434 113.82 224.629 113.989 224.763C114.157 224.897 114.372 224.959 114.587 224.935L185.368 217.096C185.474 217.084 185.576 217.052 185.67 217.001C185.763 216.95 185.845 216.881 185.911 216.798C185.977 216.715 186.027 216.62 186.056 216.518C186.085 216.417 186.094 216.31 186.083 216.205C186.071 216.1 186.038 215.998 185.987 215.905C185.935 215.812 185.866 215.731 185.783 215.665C185.7 215.599 185.604 215.55 185.502 215.52C185.4 215.491 185.293 215.482 185.187 215.494Z" fill="black"/>
<path opacity="0.3" d="M230.039 198.149L221.59 199.085C220.454 199.211 219.635 200.23 219.761 201.361L220.701 209.773C220.828 210.905 221.852 211.72 222.988 211.594L231.437 210.658C232.574 210.532 233.392 209.512 233.266 208.381L232.326 199.969C232.199 198.838 231.175 198.023 230.039 198.149Z" stroke="#263238" stroke-linecap="round" stroke-linejoin="round"/>
<path d="M223.083 204.623L225.856 207.233L229.521 201.659" stroke="#92E3A9" stroke-width="3" stroke-linecap="round" stroke-linejoin="round"/>
<path d="M139.66 147.988C139.733 147.124 139.518 146.259 139.048 145.528L138.118 143.888L136.274 144.926L137.279 146.687C137.778 147.567 137.574 148.109 136.954 148.455C136.335 148.801 135.761 148.711 135.262 147.83L133.108 144.024L130.796 144.475L133.259 148.801C134.385 150.779 136.017 151.344 137.929 150.305C138.233 150.132 138.515 149.922 138.768 149.681C138.661 149.433 138.642 149.156 138.715 148.896C138.788 148.636 138.948 148.408 139.169 148.252C139.317 148.138 139.483 148.049 139.66 147.988Z" fill="#92E3A9"/>
<path d="M129.61 142.391L130.048 143.144H132.594L131.484 141.188C130.985 140.307 131.181 139.751 131.801 139.405C132.421 139.058 133.002 139.164 133.501 140.052L134.257 141.368L136.093 140.33L135.413 139.134C134.287 137.163 132.655 136.591 130.743 137.674C130.304 137.91 129.914 138.226 129.595 138.607C130.029 138.746 130.484 138.81 130.94 138.795L129.126 139.472C128.993 139.965 128.967 140.48 129.051 140.984C129.134 141.487 129.325 141.967 129.61 142.391Z" fill="#92E3A9"/>
<path d="M143.732 134.372C143.975 134.251 144.228 134.153 144.488 134.078C145.463 133.642 145.682 132.242 145.599 131.257L144.594 130.016L141.889 131.52L143.581 134.484C143.626 134.439 143.677 134.401 143.732 134.372Z" fill="#92E3A9"/>
<path d="M155.256 140.262L157.092 139.224L150.072 126.901L148.326 127.879C148.886 128.014 149.286 128.278 149.301 128.684C148.757 128.759 148.092 128.684 147.503 128.789L151.039 137.915L146.566 132.363C146.578 132.486 146.559 132.61 146.512 132.724C146.465 132.838 146.39 132.939 146.294 133.017C146.09 133.16 145.795 133.16 145.636 133.348C145.478 133.536 145.5 133.762 145.364 133.928C145.228 134.093 145.017 134.138 144.85 134.259C144.684 134.379 144.503 134.687 144.314 134.89C144.223 134.986 144.108 135.056 143.981 135.094L148.954 143.82L150.646 142.858L145.682 134.146L152.059 142.06L153.903 141.022L150.178 131.445L155.256 140.262Z" fill="#92E3A9"/>
<path d="M159.903 129.534C160.038 129.601 160.157 129.694 160.254 129.808C160.352 129.921 160.425 130.053 160.47 130.196C160.629 129.266 160.426 128.311 159.903 127.525L158.989 125.915C157.863 123.944 156.299 123.41 154.349 124.508L151.485 126.126L158.513 138.456L160.334 137.426C159.745 137.057 159.087 136.741 158.528 136.342C158.266 136.176 158.05 135.945 157.901 135.673C157.83 135.535 157.801 135.38 157.817 135.227C157.833 135.073 157.894 134.928 157.992 134.808C158.12 134.7 158.276 134.631 158.441 134.609C158.607 134.586 158.776 134.611 158.929 134.68L157.818 132.724L158.74 132.205C159.246 131.931 159.687 131.551 160.032 131.091C159.646 130.482 158.974 129.188 159.903 129.534ZM157.735 130.482L156.813 131.001L154.432 126.826L155.354 126.307C155.974 125.96 156.473 126.051 156.971 126.931L158.029 128.782C158.528 129.624 158.354 130.098 157.735 130.482Z" fill="#92E3A9"/>
<path d="M170.324 131.783L169.326 130.023L166.123 131.829L161.437 123.606L161.226 123.771C161.089 123.898 160.923 123.988 160.742 124.035C160.651 124.055 160.556 124.042 160.474 123.997C160.392 123.953 160.329 123.881 160.296 123.794C160.27 123.677 160.27 123.557 160.296 123.44C160.298 122.74 160.075 122.058 159.662 121.492L158.15 122.364L165.17 134.687L170.324 131.783Z" fill="#92E3A9"/>
<path d="M169.447 127.473C169.658 126.924 170.316 126.72 170.686 126.224C170.719 126.173 170.749 126.12 170.777 126.066L170.021 124.802L171.933 123.726C171.898 123.606 171.836 123.496 171.751 123.403C171.477 123.269 171.184 123.178 170.882 123.132C170.836 123.038 170.812 122.935 170.814 122.831C170.816 122.726 170.842 122.624 170.892 122.532C170.941 122.44 171.012 122.361 171.099 122.302C171.185 122.242 171.285 122.205 171.389 122.192C171.517 122.192 171.668 122.192 171.767 122.131C171.836 122.049 171.871 121.945 171.865 121.838L171.691 121.537L169.016 123.042L167.066 119.611L170.422 117.708L169.417 115.947L164.127 118.957L169.326 128.082C169.335 127.874 169.376 127.669 169.447 127.473Z" fill="#92E3A9"/>
<path d="M176.482 128.308L175.477 126.547L172.114 128.443L171.109 126.72L169.87 127.879L169.439 128.293L171.177 131.34L176.482 128.308Z" fill="#92E3A9"/>
<path d="M173.981 113.991C173.981 114.254 173.792 114.548 173.535 114.57C173.404 114.569 173.274 114.548 173.15 114.51C172.916 114.514 172.683 114.492 172.454 114.442C172.405 114.422 172.359 114.394 172.318 114.36L170.097 115.616L171.102 117.384L173.134 116.233L179.18 126.765L181.122 125.667L175.076 115.135L177.117 113.984L176.112 112.223L174.026 113.397C173.988 113.592 174.003 113.795 173.981 113.991Z" fill="#92E3A9"/>
<path d="M182.467 121.454L183.979 124.11L186.019 122.959C186.067 122.825 186.128 122.697 186.2 122.575C186.649 121.922 187.254 121.389 187.961 121.025L188.898 120.446L188.278 119.348L184.916 121.251L182.86 117.64L185.535 116.135L184.53 114.375L181.855 115.879L179.906 112.426L183.268 110.53L182.263 108.77L176.974 111.779L180.79 118.482C181.712 117.993 182.173 119.754 182.467 121.454Z" fill="#92E3A9"/>
<path d="M143.332 145.799C143.65 145.852 143.839 146.168 144.088 146.378C144.179 146.462 144.284 146.528 144.398 146.574C144.542 146.517 144.684 146.451 144.821 146.378C146.725 145.303 147.126 143.587 146.007 141.609L145.894 141.413L143.279 141.345L144.133 142.85C144.632 143.73 144.436 144.287 143.816 144.633C143.196 144.979 142.614 144.866 142.116 143.986L138.337 137.328C137.831 136.448 138.035 135.899 138.655 135.545C139.275 135.191 139.849 135.312 140.355 136.192L142.917 140.706C143.703 140.512 144.51 140.411 145.32 140.405L142.365 135.222C141.247 133.25 139.562 132.716 137.65 133.792C135.738 134.868 135.338 136.591 136.463 138.562L140.113 144.972C140.344 145.466 140.689 145.898 141.119 146.234C141.55 146.57 142.055 146.8 142.592 146.905C142.588 146.86 142.588 146.815 142.592 146.77C142.501 146.281 142.864 145.709 143.332 145.799Z" fill="#92E3A9"/>
<path d="M169.425 110.418L175.357 107.07C173.657 107.536 172.16 108.951 170.407 108.755C170.09 108.672 169.757 108.672 169.44 108.755C169.242 108.882 169.099 109.079 169.04 109.306C168.982 109.534 169.011 109.775 169.123 109.981C169.199 110.142 169.301 110.289 169.425 110.418Z" fill="#92E3A9"/>
<path d="M154.546 118.821C154.532 118.691 154.559 118.56 154.621 118.445C154.767 118.495 154.92 118.521 155.075 118.52L157.122 117.369C157.443 117.008 157.809 116.689 158.21 116.421C158.599 116.214 159.009 116.053 159.435 115.94L159.888 115.804L163.666 113.683C163.706 113.606 163.76 113.537 163.825 113.479C163.883 113.441 163.947 113.41 164.014 113.389L160.115 112.216L159.064 112.802L158.951 113.63L154.455 116.022C154.01 116.299 153.514 116.486 152.996 116.571C152.803 116.594 152.608 116.594 152.415 116.571L146.007 120.19C146.058 120.492 146.144 120.788 146.264 121.07C145.888 121.001 145.53 120.855 145.213 120.642L143.898 121.394C144.835 122.011 145.757 122.643 146.657 123.312L154.546 118.821Z" fill="#92E3A9"/>
<path d="M181.976 103.338L178.878 101.608L177.412 102.435C178.276 103.32 179.392 103.919 180.609 104.151L181.976 103.338Z" fill="#92E3A9"/>
<path d="M198.638 121.552L186.941 101.021C186.486 100.227 185.734 99.6447 184.849 99.4008C183.964 99.157 183.018 99.2716 182.218 99.7196L180.812 100.517L181.349 101.036C181.908 101.593 182.482 102.157 183.004 102.751L183.714 102.353C183.812 102.298 183.929 102.284 184.037 102.313C184.146 102.343 184.239 102.414 184.296 102.511L196.001 123.049C196.055 123.148 196.068 123.264 196.037 123.373C196.006 123.481 195.933 123.573 195.835 123.628L179.913 132.656C181.288 132.739 182.679 132.543 184.054 132.701C184.55 132.763 185.041 132.851 185.528 132.964L197.331 126.299C197.732 126.075 198.084 125.773 198.367 125.413C198.65 125.052 198.858 124.639 198.98 124.197C199.102 123.756 199.134 123.294 199.075 122.84C199.017 122.386 198.868 121.948 198.638 121.552Z" fill="#92E3A9"/>
<path d="M126.957 147.68L121.456 138.005C121.428 137.956 121.409 137.902 121.402 137.846C121.395 137.79 121.398 137.733 121.413 137.679C121.428 137.624 121.453 137.573 121.488 137.529C121.523 137.484 121.566 137.446 121.615 137.418L137.484 128.451C137.431 128.33 137.363 128.21 137.317 128.09C137.542 128.08 137.766 128.106 137.982 128.165L144.398 124.546C144.186 124.478 143.982 124.396 143.778 124.32L140.756 123.124L138.338 124.493L140.967 126.096C140.053 125.539 138.186 125.464 136.577 125.487L120.157 134.793C119.358 135.244 118.771 135.993 118.526 136.875C118.281 137.756 118.397 138.698 118.849 139.495L123.625 147.876C123.844 147.815 124.071 147.763 124.29 147.725C124.895 147.638 125.508 147.608 126.119 147.635C126.399 147.633 126.679 147.648 126.957 147.68Z" fill="#92E3A9"/>
<path d="M146.559 151.457C146.828 151.697 147.134 151.892 147.465 152.036C147.805 152.186 148.259 152.547 147.994 152.788C146.77 153.345 145.259 152.931 144.057 153.541C143.4 153.857 142.765 154.481 142.062 154.293C142.913 154.807 143.677 155.449 144.329 156.196L174.336 139.254C174.336 139.134 174.374 139.013 174.397 138.885C174.398 138.649 174.452 138.415 174.557 138.203C174.662 137.99 174.815 137.804 175.003 137.659C175.191 137.514 175.409 137.414 175.642 137.365C175.875 137.317 176.116 137.322 176.346 137.381C176.736 137.364 177.125 137.404 177.503 137.501L181.243 135.387C180.73 134.506 180.122 133.684 179.429 132.935L146.559 151.457Z" fill="#92E3A9"/>
<path d="M141.699 156.429C140.975 156.196 140.309 155.814 139.742 155.308L133.757 158.694C133.709 158.722 133.655 158.74 133.6 158.747C133.544 158.755 133.487 158.751 133.433 158.736C133.379 158.721 133.328 158.696 133.284 158.662C133.24 158.627 133.203 158.585 133.175 158.536L127.886 149.305C127.379 149.13 126.84 149.069 126.307 149.124C125.695 149.245 125.158 149.952 125.491 150.471C125.803 150.479 126.108 150.57 126.373 150.733C126.639 150.897 126.856 151.129 127.002 151.404C126.676 151.662 126.318 151.877 125.936 152.043L130.47 160.025C130.696 160.429 130.999 160.783 131.364 161.067C131.729 161.352 132.147 161.561 132.594 161.682C133.041 161.803 133.508 161.834 133.967 161.773C134.427 161.712 134.869 161.561 135.269 161.327L143.112 156.896L143.022 156.843C142.589 156.682 142.147 156.543 141.699 156.429Z" fill="#92E3A9"/>
<g opacity="0.2">
<path d="M139.66 147.988C139.733 147.124 139.518 146.259 139.048 145.528L138.118 143.888L136.274 144.926L137.279 146.687C137.778 147.567 137.574 148.109 136.954 148.455C136.335 148.801 135.761 148.711 135.262 147.83L133.108 144.024L130.796 144.475L133.259 148.801C134.385 150.779 136.017 151.344 137.929 150.305C138.233 150.132 138.515 149.922 138.768 149.681C138.661 149.433 138.642 149.156 138.715 148.896C138.788 148.636 138.948 148.408 139.169 148.252C139.317 148.138 139.483 148.049 139.66 147.988Z" fill="black"/>
<path d="M129.61 142.391L130.048 143.143H132.594L131.484 141.187C130.985 140.307 131.181 139.75 131.801 139.404C132.421 139.058 133.002 139.164 133.501 140.051L134.257 141.368L136.093 140.33L135.413 139.133C134.287 137.162 132.655 136.591 130.743 137.674C130.304 137.91 129.914 138.226 129.595 138.607C130.029 138.746 130.484 138.809 130.94 138.795L129.126 139.472C128.993 139.965 128.967 140.48 129.051 140.984C129.134 141.487 129.325 141.967 129.61 142.391Z" fill="black"/>
<path d="M143.732 134.371C143.975 134.251 144.228 134.152 144.488 134.078C145.463 133.642 145.682 132.242 145.599 131.257L144.594 130.015L141.889 131.52L143.581 134.484C143.626 134.439 143.677 134.401 143.732 134.371Z" fill="black"/>
<path d="M155.257 140.262L157.093 139.224L150.073 126.901L148.327 127.879C148.887 128.014 149.287 128.278 149.302 128.684C148.758 128.759 148.093 128.684 147.504 128.789L151.04 137.915L146.567 132.363C146.579 132.486 146.56 132.61 146.513 132.724C146.466 132.838 146.391 132.939 146.295 133.017C146.091 133.16 145.796 133.16 145.637 133.348C145.479 133.536 145.501 133.762 145.365 133.928C145.229 134.093 145.018 134.138 144.851 134.259C144.685 134.379 144.504 134.687 144.315 134.89C144.224 134.986 144.109 135.056 143.982 135.094L148.955 143.82L150.647 142.858L145.683 134.146L152.06 142.06L153.904 141.022L150.179 131.445L155.257 140.262Z" fill="black"/>
<path d="M159.904 129.534C160.039 129.601 160.158 129.694 160.255 129.808C160.353 129.921 160.426 130.053 160.471 130.196C160.63 129.266 160.427 128.311 159.904 127.525L158.99 125.915C157.864 123.944 156.3 123.41 154.35 124.508L151.486 126.126L158.514 138.456L160.335 137.426C159.746 137.057 159.088 136.741 158.529 136.342C158.266 136.176 158.051 135.945 157.902 135.673C157.831 135.535 157.802 135.38 157.818 135.227C157.834 135.073 157.895 134.928 157.992 134.808C158.12 134.7 158.276 134.631 158.442 134.609C158.608 134.586 158.777 134.611 158.929 134.68L157.819 132.724L158.741 132.205C159.247 131.931 159.688 131.551 160.033 131.091C159.647 130.482 158.975 129.188 159.904 129.534ZM157.736 130.482L156.814 131.001L154.433 126.826L155.355 126.307C155.975 125.96 156.474 126.051 156.972 126.931L158.03 128.782C158.529 129.624 158.355 130.098 157.736 130.482Z" fill="black"/>
<path d="M170.324 131.783L169.326 130.023L166.123 131.829L161.437 123.606L161.226 123.771C161.089 123.898 160.923 123.988 160.742 124.035C160.651 124.055 160.556 124.042 160.474 123.997C160.392 123.953 160.329 123.881 160.296 123.794C160.27 123.677 160.27 123.557 160.296 123.44C160.298 122.74 160.075 122.058 159.662 121.492L158.15 122.364L165.17 134.687L170.324 131.783Z" fill="black"/>
<path d="M169.448 127.473C169.659 126.923 170.317 126.72 170.687 126.224C170.72 126.173 170.75 126.12 170.778 126.066L170.022 124.802L171.934 123.726C171.899 123.606 171.837 123.495 171.752 123.402C171.478 123.269 171.185 123.178 170.883 123.132C170.837 123.038 170.813 122.935 170.815 122.83C170.817 122.726 170.843 122.623 170.893 122.531C170.942 122.439 171.013 122.36 171.1 122.301C171.186 122.242 171.286 122.204 171.39 122.191C171.518 122.191 171.669 122.191 171.768 122.131C171.836 122.049 171.872 121.944 171.866 121.838L171.692 121.537L169.017 123.041L167.067 119.611L170.423 117.707L169.417 115.947L164.128 118.956L169.327 128.082C169.336 127.874 169.377 127.668 169.448 127.473Z" fill="black"/>
<path d="M176.483 128.308L175.478 126.547L172.115 128.443L171.11 126.72L169.871 127.879L169.44 128.292L171.178 131.339L176.483 128.308Z" fill="black"/>
<path d="M173.982 113.991C173.982 114.254 173.793 114.548 173.536 114.57C173.405 114.569 173.275 114.548 173.15 114.51C172.917 114.514 172.684 114.492 172.455 114.442C172.406 114.422 172.36 114.394 172.319 114.36L170.098 115.616L171.103 117.384L173.135 116.233L179.181 126.765L181.123 125.667L175.077 115.135L177.118 113.984L176.113 112.223L174.027 113.397C173.989 113.592 174.004 113.795 173.982 113.991Z" fill="black"/>
<path d="M182.467 121.454L183.979 124.11L186.019 122.959C186.067 122.825 186.128 122.697 186.2 122.575C186.649 121.922 187.254 121.389 187.961 121.025L188.898 120.446L188.278 119.348L184.916 121.251L182.86 117.64L185.535 116.135L184.53 114.375L181.855 115.879L179.906 112.426L183.268 110.53L182.263 108.77L176.974 111.779L180.79 118.482C181.712 117.993 182.173 119.754 182.467 121.454Z" fill="black"/>
<path d="M143.332 145.799C143.65 145.852 143.839 146.168 144.088 146.378C144.179 146.462 144.284 146.528 144.398 146.574C144.542 146.517 144.684 146.451 144.821 146.378C146.725 145.303 147.126 143.587 146.007 141.609L145.894 141.413L143.279 141.345L144.133 142.85C144.632 143.73 144.436 144.287 143.816 144.633C143.196 144.979 142.614 144.866 142.116 143.986L138.337 137.328C137.831 136.448 138.035 135.899 138.655 135.545C139.275 135.191 139.849 135.312 140.355 136.192L142.917 140.706C143.703 140.512 144.51 140.411 145.32 140.405L142.365 135.222C141.247 133.25 139.562 132.716 137.65 133.792C135.738 134.868 135.338 136.591 136.463 138.562L140.113 144.972C140.344 145.466 140.689 145.898 141.119 146.234C141.55 146.57 142.055 146.8 142.592 146.905C142.588 146.86 142.588 146.815 142.592 146.77C142.501 146.281 142.864 145.709 143.332 145.799Z" fill="black"/>
<path d="M169.425 110.418L175.357 107.07C173.657 107.536 172.16 108.951 170.407 108.755C170.09 108.672 169.757 108.672 169.44 108.755C169.242 108.882 169.099 109.079 169.04 109.306C168.982 109.534 169.011 109.775 169.123 109.981C169.199 110.142 169.301 110.289 169.425 110.418Z" fill="black"/>
<path d="M154.547 118.821C154.533 118.691 154.56 118.56 154.622 118.445C154.768 118.495 154.921 118.521 155.076 118.52L157.123 117.369C157.444 117.008 157.81 116.689 158.211 116.421C158.6 116.214 159.01 116.053 159.436 115.94L159.889 115.804L163.667 113.683C163.707 113.606 163.761 113.537 163.826 113.479C163.884 113.441 163.948 113.41 164.015 113.389L160.116 112.216L159.065 112.802L158.952 113.63L154.456 116.022C154.011 116.299 153.515 116.486 152.997 116.571C152.804 116.594 152.609 116.594 152.416 116.571L146.008 120.19C146.059 120.492 146.145 120.788 146.265 121.07C145.889 121.001 145.531 120.855 145.214 120.642L143.899 121.394C144.836 122.011 145.758 122.643 146.658 123.312L154.547 118.821Z" fill="black"/>
<path d="M181.976 103.338L178.878 101.608L177.412 102.435C178.276 103.32 179.392 103.919 180.609 104.151L181.976 103.338Z" fill="black"/>
<path d="M198.638 121.552L186.941 101.021C186.486 100.227 185.734 99.6447 184.849 99.4008C183.964 99.157 183.018 99.2716 182.218 99.7196L180.812 100.517L181.349 101.036C181.908 101.593 182.482 102.157 183.004 102.751L183.714 102.353C183.812 102.298 183.929 102.284 184.037 102.313C184.146 102.343 184.239 102.414 184.296 102.511L196.001 123.049C196.055 123.148 196.068 123.264 196.037 123.373C196.006 123.481 195.933 123.573 195.835 123.628L179.913 132.656C181.288 132.739 182.679 132.543 184.054 132.701C184.55 132.763 185.041 132.851 185.528 132.964L197.331 126.299C197.732 126.075 198.084 125.773 198.367 125.413C198.65 125.052 198.858 124.639 198.98 124.197C199.102 123.756 199.134 123.294 199.075 122.84C199.017 122.386 198.868 121.948 198.638 121.552Z" fill="black"/>
<path d="M126.957 147.68L121.456 138.005C121.428 137.956 121.409 137.902 121.402 137.846C121.395 137.79 121.398 137.733 121.413 137.679C121.428 137.624 121.453 137.573 121.488 137.529C121.523 137.484 121.566 137.446 121.615 137.418L137.484 128.451C137.431 128.33 137.363 128.21 137.317 128.09C137.542 128.08 137.766 128.106 137.982 128.165L144.398 124.546C144.186 124.478 143.982 124.396 143.778 124.32L140.756 123.124L138.338 124.493L140.967 126.096C140.053 125.539 138.186 125.464 136.577 125.487L120.157 134.793C119.358 135.244 118.771 135.993 118.526 136.875C118.281 137.756 118.397 138.698 118.849 139.495L123.625 147.876C123.844 147.815 124.071 147.763 124.29 147.725C124.895 147.638 125.508 147.608 126.119 147.635C126.399 147.633 126.679 147.648 126.957 147.68Z" fill="black"/>
<path d="M146.559 151.456C146.828 151.697 147.134 151.892 147.465 152.036C147.805 152.186 148.259 152.547 147.994 152.788C146.77 153.345 145.259 152.931 144.057 153.54C143.4 153.856 142.765 154.481 142.062 154.293C142.913 154.806 143.677 155.449 144.329 156.196L174.336 139.254C174.336 139.133 174.374 139.013 174.397 138.885C174.398 138.648 174.452 138.415 174.557 138.202C174.662 137.99 174.815 137.804 175.003 137.659C175.191 137.514 175.409 137.413 175.642 137.365C175.875 137.317 176.116 137.322 176.346 137.381C176.736 137.363 177.125 137.404 177.503 137.501L181.243 135.387C180.73 134.506 180.122 133.684 179.429 132.934L146.559 151.456Z" fill="black"/>
<path d="M141.7 156.429C140.976 156.196 140.31 155.814 139.743 155.308L133.758 158.694C133.71 158.722 133.656 158.74 133.601 158.747C133.545 158.755 133.488 158.751 133.434 158.736C133.38 158.721 133.329 158.696 133.285 158.662C133.241 158.627 133.204 158.585 133.176 158.536L127.887 149.305C127.38 149.13 126.841 149.069 126.308 149.124C125.696 149.245 125.159 149.952 125.492 150.471C125.804 150.479 126.109 150.57 126.374 150.733C126.64 150.897 126.857 151.129 127.003 151.404C126.677 151.662 126.319 151.877 125.937 152.043L130.471 160.025C130.696 160.429 131 160.783 131.365 161.067C131.73 161.352 132.148 161.561 132.595 161.682C133.042 161.803 133.509 161.834 133.968 161.773C134.428 161.712 134.87 161.561 135.27 161.327L143.113 156.896L143.023 156.843C142.59 156.682 142.148 156.543 141.7 156.429Z" fill="black"/>
</g>
<path opacity="0.3" d="M107.673 129.564C112.283 132.935 116.136 149.124 116.484 163.968C116.832 178.811 124.04 203.841 124.902 207.941C125.763 212.041 125.446 217.954 130.796 209.724C136.146 201.493 151.796 187.207 158.317 191.954C164.838 196.701 153.858 212.658 147.911 221.249C141.964 229.841 141.36 244.97 134.234 254.441C127.108 263.913 120.67 278.215 113.688 277.996C106.706 277.778 60.46 311.934 60.46 311.934L61.3667 265.184L102.928 197.476L107.673 129.564Z" fill="black" fill-opacity="0.7"/>
<path d="M162.11 194.248C161.876 195.715 153.737 206.451 148.954 214.486C144.171 222.52 139.69 236.506 138.488 238.56C137.287 240.614 122.62 253.441 118.6 258.805C114.579 264.169 107.401 266.539 100.23 271.594C95.6202 274.844 81.2553 291.613 71.5754 303.191C66.1951 309.624 62.2582 314.476 62.2582 314.476L0.37793 298.414C0.37793 298.414 5.50124 294.209 12.2417 288.536H12.287L12.355 288.484C23.4328 279.117 38.8708 265.899 43.1327 260.911C50.0015 252.876 59.5681 243.33 59.5681 243.33C58.9862 232.173 60.1726 221.603 59.1223 217.585C58.5782 215.486 57.6109 203.547 56.8553 199.876C55.0191 190.494 47.0318 180.774 46.1326 176.945C45.2334 173.116 34.692 156.813 39.838 153.804C40.7736 153.217 41.8856 152.975 42.9815 153.119C49.9335 154.075 55.6614 170.791 59.6059 175.049C61.2961 177.065 62.827 179.208 64.1851 181.459C67.2984 186.372 70.3512 191.894 70.3512 191.894C71.5452 187.131 62.8778 170.167 60.4824 154.097C58.087 138.028 51.2181 129.399 60.4824 128.406C61.2436 128.321 62.0142 128.387 62.7494 128.601C69.2706 130.497 72.0968 143.986 75.9959 157.076C76.3586 158.28 79.3284 166.924 81.6407 173.59C83.152 177.953 84.361 181.466 84.361 181.466C84.6557 173.281 82.094 165.668 81.6709 158.25C81.4895 155.278 82.4265 143.369 81.2477 131.467C80.2351 121.424 80.6961 117.354 84.6406 116.564C85.4855 116.413 86.3467 116.372 87.2022 116.444C94.0409 116.873 96.4665 134.966 96.4665 142.022C96.4665 146.123 97.1693 154.127 97.7587 160.131C98.1894 164.472 98.5597 167.767 98.5597 167.767C98.5597 167.767 99.7536 157.799 98.8619 136.297C98.6579 131.588 98.9677 128.217 100.827 126.856C101.847 126.103 103.32 125.976 105.436 126.547C111.413 128.157 113.355 150.208 113.355 158.543C113.355 166.879 118.139 181.158 119.038 192.398C119.937 203.637 123.851 217.45 123.851 217.45C123.851 217.45 126.065 218.345 127.554 218.052C129.043 217.758 139.365 202.577 139.365 202.577C144.171 192.187 153.526 189.035 158.619 190.201C160.961 190.735 162.473 192.172 162.11 194.248Z" fill="white"/>
<path opacity="0.4" d="M162.11 194.248C161.876 195.715 153.737 206.451 148.954 214.486C144.171 222.52 139.69 236.506 138.488 238.56C137.287 240.614 122.619 253.441 118.599 258.805C114.579 264.169 107.401 266.539 100.229 271.594C95.62 274.844 81.2551 291.613 71.5752 303.192C72.6407 298.994 75.0285 293.63 81.2702 288.476C92.1062 279.516 92.7561 272.489 98.5822 266.539C104.408 260.588 114.67 262.371 118.358 255.254C122.045 248.137 134.906 241.562 137.596 235.31C140.287 229.058 134.906 227.734 139.69 220.211C144.473 212.688 149.113 210.86 148.432 207.91C147.752 204.961 145.742 200.493 149.891 196.769C152.483 194.452 155.528 191.54 158.641 190.201C160.961 190.735 162.472 192.172 162.11 194.248Z" fill="#92E3A9"/>
<path opacity="0.4" d="M84.5796 229.562C82.5923 228.569 84.1867 226.59 82.7887 224.943C81.3908 223.295 78.2019 233.933 77.4992 233.971C76.7964 234.008 74.6579 228.561 73.8116 228.02C72.9653 227.478 72.4665 229.758 71.2651 233.971C70.0636 238.184 65.6506 240.32 63.0889 243.329C60.5272 246.339 45.1195 262.702 41.3337 268.848C37.5479 274.995 14.1681 287.159 12.3545 288.469C23.4323 279.117 38.8703 265.899 43.1322 260.911C50.001 252.876 59.5676 243.329 59.5676 243.329C58.9857 232.173 60.1721 221.603 59.1217 217.585C58.5777 215.486 57.6104 203.547 56.8548 199.876C55.0186 190.494 47.0313 180.774 46.1321 176.945C45.2329 173.116 34.6915 156.813 39.8375 153.804C40.773 153.217 41.8851 152.975 42.981 153.119C41.8098 153.947 40.6687 155.135 41.7342 156.881C43.6309 159.935 45.7165 163.147 45.7165 166.525C45.7165 169.903 51.4972 174.658 53.7415 177.81C55.9858 180.962 53.8926 179.849 55.3888 184.167C56.885 188.485 58.6759 187.583 59.5676 191.946C60.4592 196.31 65.4465 199.093 64.6531 204.532C63.8597 209.972 67.041 217.54 67.041 217.54C67.041 217.54 69.6328 210.205 68.6883 206.255C67.7437 202.306 68.8394 197.325 67.9326 195.986C67.177 194.782 65.1065 186.612 64.1544 181.534C67.2677 186.447 70.3205 191.969 70.3205 191.969C71.5144 187.207 62.8471 170.242 60.4517 154.172C58.0563 138.103 51.1874 129.474 60.4517 128.481C61.2129 128.396 61.9835 128.462 62.7186 128.676C66.6707 136.026 63.9201 141.466 63.0436 144.655C62.0839 148.131 67.7966 157.054 68.6429 163.2C69.3986 168.94 70.9552 168.346 71.1593 168.241C70.9855 168.399 69.5119 169.896 70.4036 174.154C71.3331 178.668 77.9601 189.388 77.9601 192.383C77.9601 195.377 77.4161 200.304 77.4161 201.764C77.4161 203.223 82.7056 212.988 83.3404 215.546C83.9751 218.104 83.091 210.619 84.5343 208.023C85.9776 205.428 86.7408 196.37 86.9297 196.859C89.4158 203.148 86.5745 230.54 84.5796 229.562Z" fill="#92E3A9"/>
<path opacity="0.4" d="M88.8648 162.335C87.1722 164.885 87.2175 184.792 84.3309 184.86C82.933 184.86 82.2529 179.857 81.6861 173.575C83.1974 177.938 84.4065 181.452 84.4065 181.452C84.7012 173.266 82.1395 165.653 81.7164 158.235C81.535 155.263 82.472 143.354 81.2932 131.452C80.2806 121.409 80.7416 117.339 84.6861 116.549C85.5173 119.227 87.5575 122.387 88.0789 125.321C88.7893 129.369 87.3989 132.716 86.2049 133.22C85.011 133.724 84.807 136.335 86.3032 136.719C87.7994 137.102 86.3032 156.098 86.9984 158.536C87.6936 160.973 90.565 159.822 88.8648 162.335Z" fill="#92E3A9"/>
<path opacity="0.4" d="M104.393 140.051C101.287 141.413 101.121 143.851 100.191 147.349C99.2619 150.847 101.521 155.955 100.191 163.983C98.8614 172.01 103.713 177.186 100.191 186.168C96.67 195.151 98.3249 178.645 97.7355 171.122C97.5324 167.458 97.5476 163.785 97.7808 160.123C98.2116 164.464 98.5818 167.759 98.5818 167.759C98.5818 167.759 99.7758 157.791 98.8841 136.29C98.6801 131.58 98.9899 128.21 100.849 126.848C104.038 129.73 107.038 138.893 104.393 140.051Z" fill="#92E3A9"/>
<path d="M62.2577 314.484C62.2577 314.484 93.0505 276.687 100.229 271.602C107.408 266.516 114.587 264.161 118.599 258.812C122.612 253.463 137.294 240.651 138.488 238.567C139.682 236.484 144.17 222.498 148.954 214.493C153.737 206.489 161.875 195.685 162.109 194.256C163.152 187.703 146.415 187.41 139.387 202.592C139.387 202.592 129.072 217.766 127.576 218.067C126.08 218.368 123.874 217.465 123.874 217.465C123.874 217.465 119.959 203.66 119.06 192.413C118.161 181.166 113.378 166.872 113.378 158.558C113.378 150.245 111.436 128.172 105.458 126.562C99.4811 124.952 98.5743 129.03 98.8842 136.343C99.7758 157.844 98.5819 167.812 98.5819 167.812C98.5819 167.812 96.4887 149.132 96.4887 142.068C96.4887 135.003 94.0631 116.91 87.2244 116.489C80.945 116.09 80.0684 119.603 81.2699 131.535C82.4714 143.467 81.5117 155.346 81.6931 158.318C82.1389 165.758 84.7157 173.364 84.3832 181.534C84.3832 181.534 76.6075 159.123 76.0106 157.129C71.6807 142.519 68.6808 127.473 60.4593 128.376C51.195 129.369 58.0714 137.998 60.4593 154.067C62.8471 170.137 71.522 187.101 70.3281 191.864C70.3281 191.864 63.157 178.901 59.5827 175.019C55.0488 170.137 48.2026 148.861 39.83 153.774C34.684 156.783 45.2556 173.138 46.1472 176.968C47.0389 180.797 55.0337 190.509 56.8699 199.898C57.6256 203.57 58.5702 215.509 59.1369 217.608C60.1872 221.625 59.0009 232.195 59.5827 243.352C59.5827 243.352 50.0162 252.877 43.1473 260.911C36.2784 268.946 0.392578 298.414 0.392578 298.414" stroke="#263238" stroke-linecap="round" stroke-linejoin="round"/>
<path d="M123.874 217.457C125.253 220.847 125.253 224.638 123.874 228.027" stroke="#263238" stroke-linecap="round" stroke-linejoin="round"/>
<path d="M126.391 218.089C127.248 218.717 127.884 219.599 128.206 220.609C128.528 221.619 128.519 222.704 128.182 223.709" stroke="#263238" stroke-linecap="round" stroke-linejoin="round"/>
<path d="M98.582 167.759C98.582 167.759 100.977 184.574 99.9271 187.696" stroke="#263238" stroke-linecap="round" stroke-linejoin="round"/>
<path d="M84.3838 181.451C84.6403 183.076 84.6403 184.731 84.3838 186.357" stroke="#263238" stroke-linecap="round" stroke-linejoin="round"/>
<path d="M70.3359 191.864C70.3359 191.864 70.7818 194.399 70.3359 194.993" stroke="#263238" stroke-linecap="round" stroke-linejoin="round"/>
<path d="M146.112 206.15C146.112 206.15 148.818 207.61 149.702 209.724" stroke="#263238" stroke-linecap="round" stroke-linejoin="round"/>
<path d="M84.4814 136.29C85.3583 136.499 86.2741 136.486 87.1443 136.251C88.0146 136.015 88.8114 135.566 89.4612 134.943" stroke="#263238" stroke-linecap="round" stroke-linejoin="round"/>
<path d="M85.3965 160.469C85.3965 160.469 90.7767 162.252 92.7263 160.469" stroke="#263238" stroke-linecap="round" stroke-linejoin="round"/>
<path d="M102.92 165.675C102.92 165.675 106.502 164.336 108.897 165.081" stroke="#263238" stroke-linecap="round" stroke-linejoin="round"/>
<path d="M68.6885 170.438C68.6885 170.438 71.5297 166.714 73.774 167.759" stroke="#263238" stroke-linecap="round" stroke-linejoin="round"/>
<path d="M57.0293 181.451C57.0293 181.451 54.4903 182.64 53.7422 183.904" stroke="#263238" stroke-linecap="round" stroke-linejoin="round"/>
<path d="M59.5684 243.33C60.1913 242.634 60.7431 241.878 61.2157 241.073C61.6615 240.177 61.0645 230.653 61.2157 224.522" stroke="#263238" stroke-linecap="round" stroke-linejoin="round"/>
<path d="M90.9278 280.825C87.4065 284.752 76.6082 291.869 72.2783 296.18" stroke="#263238" stroke-linecap="round" stroke-linejoin="round"/>
<path d="M105.156 191.864C103.365 196.927 105.307 203.321 105.156 206.158C105.005 208.994 104.4 221.956 104.4 221.956" stroke="#263238" stroke-linecap="round" stroke-linejoin="round"/>
<path d="M88.8646 191.864C86.4768 195.881 87.2249 201.237 87.973 203.901C88.7211 206.564 88.0561 217.442 88.0561 217.442" stroke="#263238" stroke-linecap="round" stroke-linejoin="round"/>
<path d="M63.1571 204.66C62.9592 207.28 63.4817 209.905 64.6684 212.251" stroke="#263238" stroke-linecap="round" stroke-linejoin="round"/>
<path d="M77.9533 196.776C76.6083 201.689 78.4067 203.916 78.5579 204.66" stroke="#263238" stroke-linecap="round" stroke-linejoin="round"/>
<path opacity="0.3" d="M199.364 164.336L196.817 149.621C196.705 148.967 196.726 148.298 196.88 147.652C197.034 147.007 197.318 146.4 197.714 145.866C198.11 145.333 198.61 144.885 199.184 144.549C199.759 144.213 200.395 143.996 201.056 143.911L206.761 143.159C206.761 143.159 204.857 139.314 210.985 128.112C217.114 116.91 246.577 87.1561 268.914 137.14C291.251 187.124 311.661 288.98 311.661 288.98C311.661 288.98 251.367 219.075 249.448 215.494C247.529 211.913 229.174 214.057 224.935 204.45C220.696 194.843 211.794 167.428 211.794 167.428L204.902 168.369C203.635 168.54 202.35 168.215 201.317 167.463C200.285 166.711 199.584 165.591 199.364 164.336Z" fill="black" fill-opacity="0.7"/>
<path d="M252.501 130.572L240.932 132.664L224.851 135.575L203.791 139.389C203.388 139.463 202.973 139.457 202.571 139.371C202.17 139.285 201.789 139.121 201.452 138.888C201.114 138.655 200.826 138.358 200.604 138.015C200.381 137.671 200.23 137.287 200.157 136.884L195.532 111.569C195.387 110.757 195.57 109.921 196.041 109.243C196.512 108.565 197.234 108.1 198.049 107.95L210.298 105.693L228.116 102.473L246.758 99.0952C247.162 99.0214 247.576 99.0277 247.978 99.1138C248.379 99.1998 248.76 99.3639 249.098 99.5967C249.435 99.8294 249.723 100.126 249.946 100.47C250.168 100.814 250.32 101.198 250.392 101.6L255.017 126.916C255.097 127.321 255.095 127.737 255.011 128.141C254.927 128.546 254.763 128.929 254.529 129.269C254.295 129.61 253.995 129.9 253.646 130.124C253.298 130.348 252.909 130.5 252.501 130.572Z" fill="#92E3A9"/>
<mask id="mask0_43_865" style="mask-type:luminance" maskUnits="userSpaceOnUse" x="195" y="99" width="61" height="41">
<path d="M252.501 130.572L240.932 132.664L224.851 135.575L203.791 139.389C203.388 139.463 202.973 139.457 202.571 139.371C202.17 139.285 201.789 139.121 201.452 138.888C201.114 138.655 200.826 138.358 200.604 138.015C200.381 137.671 200.23 137.287 200.157 136.884L195.532 111.569C195.387 110.757 195.57 109.921 196.041 109.243C196.512 108.565 197.234 108.1 198.049 107.95L210.298 105.693L228.116 102.473L246.758 99.0952C247.162 99.0214 247.576 99.0277 247.978 99.1138C248.379 99.1998 248.76 99.3639 249.098 99.5967C249.435 99.8294 249.723 100.126 249.946 100.47C250.168 100.814 250.32 101.198 250.392 101.6L255.017 126.916C255.097 127.321 255.095 127.737 255.011 128.141C254.927 128.546 254.763 128.929 254.529 129.269C254.295 129.61 253.995 129.9 253.646 130.124C253.298 130.348 252.909 130.5 252.501 130.572Z" fill="white"/>
</mask>
<g mask="url(#mask0_43_865)">
<path opacity="0.3" d="M244.317 113.765L240.931 132.664L224.851 135.575C220.196 133.536 212.519 129.985 210.985 128.052C209.156 125.795 209.413 112.494 210.297 105.693L228.115 102.473C234.395 106.784 244.317 113.765 244.317 113.765Z" fill="black" fill-opacity="0.7"/>
<path opacity="0.3" d="M206.988 138.81L203.791 139.389C203.388 139.463 202.973 139.457 202.571 139.371C202.17 139.285 201.789 139.121 201.452 138.888C201.114 138.655 200.826 138.358 200.604 138.014C200.381 137.671 200.23 137.286 200.157 136.884L195.532 111.569C195.387 110.757 195.57 109.921 196.041 109.243C196.512 108.565 197.234 108.1 198.049 107.95L201.237 107.371C200.423 107.521 199.702 107.986 199.232 108.664C198.762 109.342 198.581 110.178 198.729 110.989L203.353 136.305C203.426 136.707 203.578 137.091 203.8 137.435C204.022 137.779 204.311 138.076 204.648 138.309C204.986 138.541 205.366 138.705 205.768 138.791C206.169 138.877 206.584 138.884 206.988 138.81Z" fill="black" fill-opacity="0.7"/>
</g>
<path d="M252.501 130.572L240.932 132.664L224.851 135.575L203.791 139.389C203.388 139.463 202.973 139.457 202.571 139.371C202.17 139.285 201.789 139.121 201.452 138.888C201.114 138.655 200.826 138.358 200.604 138.015C200.381 137.671 200.23 137.287 200.157 136.884L195.532 111.569C195.387 110.757 195.57 109.921 196.041 109.243C196.512 108.565 197.234 108.1 198.049 107.95L210.298 105.693L228.116 102.473L246.758 99.0952C247.162 99.0214 247.576 99.0277 247.978 99.1138C248.379 99.1998 248.76 99.3639 249.098 99.5967C249.435 99.8294 249.723 100.126 249.946 100.47C250.168 100.814 250.32 101.198 250.392 101.6L255.017 126.916C255.097 127.321 255.095 127.737 255.011 128.141C254.927 128.546 254.763 128.929 254.529 129.269C254.295 129.61 253.995 129.9 253.646 130.124C253.298 130.348 252.909 130.5 252.501 130.572Z" stroke="#263238" stroke-linecap="round" stroke-linejoin="round"/>
<path d="M249.057 97.7579L200.544 106.629C198.851 106.939 197.731 108.556 198.042 110.242L202.692 135.449C203.003 137.135 204.628 138.251 206.321 137.941L254.834 129.07C256.527 128.76 257.647 127.143 257.336 125.457L252.686 100.25C252.375 98.5638 250.75 97.4483 249.057 97.7579Z" stroke="#263238" stroke-width="0.996394" stroke-linecap="round" stroke-linejoin="round"/>
<path d="M247.7 100.802L201.984 109.073C201.163 109.222 200.618 110.005 200.767 110.823L205.321 135.767C205.47 136.585 206.257 137.127 207.078 136.979L252.794 128.707C253.615 128.559 254.16 127.776 254.011 126.958L249.457 102.013C249.308 101.196 248.521 100.654 247.7 100.802Z" stroke="#263238" stroke-linecap="round" stroke-linejoin="round"/>
<path d="M255.697 129.993L252.523 130.565C253.334 130.413 254.051 129.948 254.519 129.271C254.986 128.595 255.165 127.761 255.017 126.953L250.392 101.638C250.32 101.236 250.168 100.851 249.946 100.508C249.723 100.164 249.435 99.8669 249.097 99.6342C248.76 99.4015 248.379 99.2374 247.978 99.1513C247.576 99.0653 247.162 99.059 246.758 99.1328L249.954 98.5535C250.77 98.4086 251.609 98.5907 252.29 99.06C252.971 99.5294 253.438 100.248 253.589 101.059L258.213 126.374C258.359 127.186 258.176 128.022 257.705 128.7C257.233 129.378 256.512 129.843 255.697 129.993Z" stroke="#263238" stroke-linecap="round" stroke-linejoin="round"/>
<path d="M347.607 211.085L316.316 294.653C316.316 294.653 303.228 269.826 291.138 246.85C281.48 228.479 272.458 211.251 271.241 208.716C268.513 203.005 259.196 191.044 259.196 191.044C259.196 191.044 249.637 185.597 245.262 176.11C240.887 166.623 236.073 132.686 236.073 132.686C236.073 132.686 223.507 127.977 220.507 125.915C217.507 123.854 214.771 104.805 214.771 102.631C214.771 100.457 217.794 96.1011 217.794 96.1011C217.794 96.1011 217.122 92.9113 220.96 89.6914C222.215 88.6659 223.606 87.8178 225.094 87.1711H225.169C225.169 87.1711 224.671 79.9714 228.434 77.8725C228.613 77.7712 228.8 77.6832 228.993 77.6091C232.348 76.3227 243.35 74.6601 243.35 74.6601C244.906 73.2994 246.716 72.2587 248.678 71.5981C250.627 71.064 261.327 73.5391 267.304 75.0061C269.707 75.5929 271.347 76.0142 271.347 76.0142C271.347 76.0142 281.458 76.4731 283.369 77.6091C284.703 78.4796 285.922 79.5134 286.997 80.6861L287.186 80.9043C287.186 80.9043 296.2 82.77 298.112 86.0577C300.024 89.3453 300.84 105.656 299.48 116.256C298.12 126.856 300.561 144.844 300.561 144.844C300.561 144.844 303.379 158.739 305.563 164.013C307.747 169.287 347.607 211.085 347.607 211.085Z" fill="white"/>
<path opacity="0.4" d="M291.138 246.85C281.48 228.479 272.458 211.251 271.241 208.715C268.513 203.005 259.196 191.043 259.196 191.043C259.196 191.043 249.637 185.597 245.262 176.11C240.887 166.623 236.073 132.686 236.073 132.686C236.073 132.686 223.507 127.977 220.507 125.915C217.507 123.854 214.771 104.805 214.771 102.631C214.771 100.457 217.794 96.101 217.794 96.101C217.794 96.101 217.122 92.9111 220.96 89.6912C220.96 90.5489 220.96 91.9933 220.96 94.2653C220.87 98.5761 225.97 124.569 227.232 123.779C228.494 122.989 230.444 121.085 229.93 119.408C229.93 119.408 227.459 109.319 225.124 87.1709H225.199C225.199 87.1709 224.701 79.9713 228.464 77.8723C227.816 79.4313 227.401 81.0763 227.232 82.7548C227.149 86.2606 231.335 116.301 232.975 117.061C234.615 117.82 238.771 113.818 238.771 113.818C238.771 113.818 237.35 105.294 237.857 101.661C237.857 101.661 250.499 109.334 250.876 118.046C250.914 119.002 253.34 132.656 253.34 132.656C253.34 132.656 242.466 153.27 253.567 172.078C253.567 172.078 247.922 168.707 246.577 163.351C246.577 163.351 244.937 179.104 256.597 187.425C256.597 187.425 264.962 179.247 273.221 178.209C273.221 178.209 273.372 178.751 267.841 183.091C262.31 187.432 261.561 189.366 261.561 189.366C261.561 189.366 267.546 183.347 272.329 183.091C272.329 183.091 267.395 188.771 267.546 189.96C267.697 191.149 281.654 214.907 286.732 231.481C288.803 238.402 290.216 243.397 291.138 246.85Z" fill="#92E3A9"/>
<path opacity="0.4" d="M251.949 89.1796C251.949 89.1796 255.977 92.1889 257.171 89.1796C257.856 87.5694 258.292 85.8647 258.463 84.124C258.463 84.124 260.012 83.4169 261.486 87.1333C262.959 90.8498 277.732 91.7977 281.193 93.701C284.654 95.6044 286.029 93.701 286.029 93.701C286.835 94.3606 287.388 95.2768 287.595 96.2951C287.801 97.3134 287.649 98.3715 287.163 99.2908C285.485 102.744 290.238 103.052 292.082 100.51C293.926 97.9667 292.497 107.784 287.941 108.785C287.941 108.785 288.069 113.073 285.137 116.015H287.624C287.624 116.015 281.004 121.243 279.243 121.529C277.483 121.815 285.795 124.742 284.253 125.359C282.712 125.975 278.344 125.923 278.344 125.923C278.344 125.923 281.17 127.871 281.193 129.158C281.216 130.444 279.855 131.415 279.243 130.339C278.631 129.263 273.75 113.856 271.317 108.161C268.883 102.466 258.833 97.9592 251.949 89.1796Z" fill="#92E3A9"/>
<path opacity="0.4" d="M286.989 80.6334C278.51 78.3238 267.138 75.0361 267.138 75.0361L267.296 74.9534C269.699 75.5402 271.339 75.9615 271.339 75.9615C271.339 75.9615 281.45 76.4204 283.362 77.5564C284.695 78.4269 285.914 79.4606 286.989 80.6334Z" fill="#92E3A9"/>
<path d="M275.065 93.9117C267.69 92.4071 262.423 98.6814 262.423 98.6814C262.423 98.6814 269.753 105.287 271.377 108.123C273.002 110.959 275.7 120.521 275.7 120.521C278.79 121.018 284.488 117.843 285.856 109.417C287.223 100.991 282.402 95.4088 275.065 93.9117Z" fill="#92E3A9"/>
<path d="M316.316 294.653C316.316 294.653 273.999 214.426 271.241 208.715C268.483 203.005 259.196 191.043 259.196 191.043C259.196 191.043 249.637 185.597 245.262 176.11C240.887 166.623 236.073 132.686 236.073 132.686C236.073 132.686 223.507 127.977 220.507 125.915C217.507 123.854 214.771 104.805 214.771 102.631C214.771 100.457 217.794 96.101 217.794 96.101C217.794 96.101 216.706 90.9477 225.169 87.1334C225.169 87.1334 224.625 79.2416 228.993 77.5714C232.348 76.285 243.35 74.6224 243.35 74.6224C244.906 73.2617 246.716 72.221 248.678 71.5604C251.405 70.8081 271.347 75.9765 271.347 75.9765C271.347 75.9765 281.458 76.4354 283.369 77.5714C284.768 78.4897 286.04 79.5847 287.155 80.829C287.155 80.829 296.17 82.6947 298.082 85.9824C299.994 89.27 300.81 105.58 299.45 116.18C298.09 126.781 300.53 144.768 300.53 144.768C300.53 144.768 303.349 158.664 305.533 163.938C307.717 169.211 347.607 211.085 347.607 211.085" stroke="#263238" stroke-linecap="round" stroke-linejoin="round"/>
<path d="M280.491 131.58C280.491 131.58 278.579 131.174 276.123 122.199C273.667 113.224 273.017 109.026 267.924 103.707C264.312 99.9455 256.045 93.7991 251.95 89.1798C247.854 84.5606 243.328 80.8291 239.791 83.6879C236.965 85.9449 235.121 91.8054 237.607 100.848C240.804 112.464 250.884 117.994 250.884 117.994L253.348 132.604C253.348 132.604 242.655 153.924 254.708 174.049" stroke="#263238" stroke-linecap="round" stroke-linejoin="round"/>
<path d="M262.385 98.6815C262.385 98.6815 267.674 92.4146 275.027 93.9118C282.379 95.4089 287.155 100.984 285.818 109.417C284.48 117.851 278.752 121.018 275.662 120.521" stroke="#263238" stroke-linecap="round" stroke-linejoin="round"/>
<path d="M243.327 74.6074C242.223 77.3713 241.373 80.2293 240.788 83.1462" stroke="#263238" stroke-linecap="round" stroke-linejoin="round"/>
<path d="M238.854 104.068C238.854 104.068 239.488 113.359 240.803 116.211C242.118 119.062 244.302 121.379 245.254 125.05C246.206 128.722 246.35 134.432 246.622 135.252C246.894 136.072 248.473 136.282 248.473 136.282C250.74 136.335 251.654 135.161 252.962 133.371" stroke="#263238" stroke-linecap="round" stroke-linejoin="round"/>
<path d="M225.191 87.1184C225.191 87.1184 227.239 106.965 228.879 115.398C230.519 123.832 233.413 125.05 238.166 127.774C242.919 130.497 245.541 136.049 245.957 136.884C246.372 137.719 247.929 137.81 247.929 137.81C248.844 137.734 249.725 137.432 250.493 136.931C251.261 136.431 251.891 135.748 252.327 134.943" stroke="#263238" stroke-linecap="round" stroke-linejoin="round"/>
<path d="M217.801 96.0859C217.287 96.8759 221.67 117.03 223.952 122.876C226.234 128.721 226.491 129.647 232.529 131.302C238.567 132.957 243.153 135.711 244.786 134.74" stroke="#263238" stroke-linecap="round" stroke-linejoin="round"/>
<path d="M259.732 84.9368C259.732 84.9368 262.868 92.4148 260.798 97.335" stroke="#263238" stroke-linecap="round" stroke-linejoin="round"/>
<path d="M271.339 75.9614C276.478 77.9842 281.765 79.6114 287.155 80.8289" stroke="#263238" stroke-linecap="round" stroke-linejoin="round"/>
<path d="M292.105 101.804C292.105 101.804 289.702 106.175 286.06 107.115" stroke="#263238" stroke-linecap="round" stroke-linejoin="round"/>
<path d="M286.052 97.0415C286.052 97.0415 285.191 99.2985 284.276 99.9229" stroke="#263238" stroke-linecap="round" stroke-linejoin="round"/>
<path d="M289.075 114.992C289.075 114.992 283.611 119.107 278.367 120.175" stroke="#263238" stroke-linecap="round" stroke-linejoin="round"/>
<path d="M276.122 122.207C276.122 122.207 278.389 125.058 284.276 125.329" stroke="#263238" stroke-linecap="round" stroke-linejoin="round"/>
<path d="M258.44 109.725C258.44 109.725 263.79 104.61 266.843 105.317" stroke="#263238" stroke-linecap="round" stroke-linejoin="round"/>
<path d="M268.914 110.764C268.914 110.764 264.864 113.773 264.123 113.773" stroke="#263238" stroke-linecap="round" stroke-linejoin="round"/>
<path d="M227.209 126.72C227.209 126.72 228.554 126.969 229.604 125.351" stroke="#263238" stroke-linecap="round" stroke-linejoin="round"/>
<path d="M231.992 119.393C231.992 119.393 235.241 117.392 237.365 117.008" stroke="#263238" stroke-linecap="round" stroke-linejoin="round"/>
<path d="M260.616 187.252C261.289 186.658 267.568 181.602 271.452 179.812" stroke="#263238" stroke-linecap="round" stroke-linejoin="round"/>
<path d="M268.762 184.86C268.316 184.724 264.75 188.441 262.868 189.93" stroke="#263238" stroke-linecap="round" stroke-linejoin="round"/>
<path d="M270.53 195.881C270.53 195.881 282.492 218.45 285.182 227.478" stroke="#263238" stroke-linecap="round" stroke-linejoin="round"/>
<path d="M305.562 163.968C306.575 169.512 309.862 173.597 311.661 175.809" stroke="#263238" stroke-linecap="round" stroke-linejoin="round"/>
<path opacity="0.4" d="M267.856 96.086C266.118 97.1543 267.946 100.645 268.913 102.428C269.881 104.211 274.203 107.047 275.102 109.726C276.001 112.404 281.684 112.329 283.414 109.726C285.145 107.123 284.926 101.924 280.21 97.9668C275.495 94.0096 270.327 94.5814 267.856 96.086Z" fill="white"/>
<path d="M234.675 246.015C226.979 244.713 219.068 246.045 212.23 249.794C205.392 253.543 200.032 259.488 197.023 266.66C194.015 273.831 193.535 281.806 195.663 289.283C197.792 296.76 202.401 303.299 208.741 307.833" stroke="#263238" stroke-linecap="round" stroke-linejoin="round"/>
<path d="M249.07 252.011C245.867 249.708 242.288 247.972 238.491 246.881" stroke="#263238" stroke-linecap="round" stroke-linejoin="round"/>
<path d="M245.594 309.97C250.251 307.403 254.249 303.798 257.274 299.437C260.3 295.076 262.271 290.077 263.033 284.832C263.796 279.587 263.329 274.237 261.669 269.201C260.01 264.165 257.203 259.579 253.468 255.803" stroke="#263238" stroke-linecap="round" stroke-linejoin="round"/>
<path d="M247.257 320.818L249.32 322.624L246.108 311.693" stroke="#263238" stroke-linecap="round" stroke-linejoin="round"/>
<path d="M223.083 313.792C228.164 314.659 233.375 314.379 238.332 312.972L244.838 318.689" stroke="#263238" stroke-linecap="round" stroke-linejoin="round"/>
<path d="M215.164 311.459C216.454 312.013 217.776 312.488 219.124 312.881" stroke="#263238" stroke-linecap="round" stroke-linejoin="round"/>
<path d="M231.607 263.183C235.887 263.912 239.739 266.209 242.403 269.622C245.067 273.036 246.351 277.319 246.003 281.628C245.654 285.937 243.698 289.96 240.52 292.906C237.341 295.851 233.17 297.505 228.828 297.542C224.486 297.579 220.288 295.997 217.059 293.106C213.83 290.216 211.804 286.227 211.381 281.925C210.959 277.622 212.169 273.318 214.774 269.859C217.378 266.4 221.189 264.038 225.456 263.236" stroke="#263238" stroke-linecap="round" stroke-linejoin="round"/>
<path d="M225.456 299.136C220.423 298.283 215.937 295.474 212.983 291.328C210.03 287.181 208.852 282.037 209.708 277.026" stroke="#263238" stroke-linecap="round" stroke-linejoin="round"/>
<path d="M246.796 286.753C245.611 290.016 243.559 292.898 240.859 295.092C238.159 297.286 234.912 298.71 231.464 299.212" stroke="#263238" stroke-linecap="round" stroke-linejoin="round"/>
<path d="M211.189 272.241C213.14 268.018 216.566 264.644 220.83 262.748C225.093 260.852 229.903 260.563 234.365 261.935C238.826 263.307 242.635 266.246 245.081 270.206C247.528 274.165 248.446 278.875 247.665 283.458" stroke="#263238" stroke-linecap="round" stroke-linejoin="round"/>
<path d="M240.236 273.333L240.455 273.099" stroke="#263238" stroke-width="2" stroke-linecap="round" stroke-linejoin="round"/>
<path d="M237.153 276.642L238.687 274.995" stroke="#263238" stroke-width="2" stroke-linecap="round" stroke-linejoin="round"/>
<path d="M218.338 279.065L225.751 288.882L235.809 278.087" stroke="#263238" stroke-width="2" stroke-linecap="round" stroke-linejoin="round"/>
</g>
<defs>
<clipPath id="clip0_43_865">
<rect width="348" height="323" fill="white"/>
</clipPath>
</defs>
</svg>
